G04 DipTrace 2.4.0.2*
%INnewtop.gbr*%
%MOIN*%
%ADD13C,0.0394*%
%ADD14C,0.1575*%
%ADD15C,0.315*%
%ADD16C,0.1969*%
%ADD17C,0.025*%
%ADD18C,0.0787*%
%ADD19R,0.0787X0.0787*%
%ADD20R,0.0591X0.0591*%
%ADD21C,0.0591*%
%ADD34C,0.017*%
%FSLAX44Y44*%
G04*
G70*
G90*
G75*
G01*
%LNTop*%
%LPD*%
X19314Y14563D2*
D13*
X19501D1*
D14*
X21501Y12563D1*
X23939D1*
D13*
X24595Y11907D1*
X24689Y12000D1*
X19751Y62006D2*
D14*
X21876Y64131D1*
X24064D1*
X23939Y64256D1*
X39378Y11375D2*
D15*
X34503D1*
X36503Y9375D1*
X50942D1*
X61818Y20251D1*
Y32753D1*
X64881Y35815D1*
X73069D1*
X37503Y64756D2*
X32377D1*
X34753Y67131D1*
X51192D1*
X61568Y56755D1*
Y42879D1*
X63756Y40691D1*
X73257D1*
X60505Y35878D2*
D14*
X60818Y38003D1*
X53130Y59755D2*
X53817D1*
X58630Y54942D1*
Y52567D1*
X58755Y52692D1*
X51942Y16501D2*
X53817D1*
X58630Y21314D1*
Y22626D1*
X58755Y22751D1*
Y24377D1*
X46066Y12438D2*
X48067D1*
X50004Y14376D1*
X11125Y52317D2*
Y53442D1*
X13125Y55442D1*
X13250D1*
X11375Y25814D2*
Y24002D1*
X13125Y22251D1*
X45879Y64068D2*
X47379D1*
X49754Y61693D1*
X49629Y10688D2*
X53005Y14063D1*
X54505D1*
X48754Y66194D2*
D16*
X52630Y62318D1*
X55067D1*
X11063Y37128D2*
D14*
X8875D1*
Y32628D1*
X8688Y32440D1*
X11063Y40753D2*
X10625Y40316D1*
X8625D1*
Y43066D1*
X6562Y41003D1*
Y34940D1*
X8875Y32628D1*
X4339Y69883D2*
D17*
X32285D1*
X53659D2*
X74664D1*
X4339Y69634D2*
X32027D1*
X53917D2*
X74922D1*
X4339Y69385D2*
X31781D1*
X54163D2*
X74922D1*
X4343Y69137D2*
X31531D1*
X54413D2*
X74926D1*
X4343Y68888D2*
X31281D1*
X54663D2*
X74926D1*
X4343Y68639D2*
X31035D1*
X54909D2*
X74926D1*
X4343Y68391D2*
X30785D1*
X55159D2*
X74930D1*
X4347Y68142D2*
X30535D1*
X55409D2*
X74930D1*
X4347Y67893D2*
X30289D1*
X55655D2*
X74930D1*
X4347Y67645D2*
X30039D1*
X55905D2*
X74934D1*
X4347Y67396D2*
X29789D1*
X56155D2*
X74934D1*
X4347Y67147D2*
X23148D1*
X56401D2*
X74937D1*
X4351Y66899D2*
X21016D1*
X56651D2*
X74937D1*
X4351Y66650D2*
X20434D1*
X56901D2*
X74937D1*
X4351Y66401D2*
X20062D1*
X57148D2*
X74941D1*
X4351Y66152D2*
X19785D1*
X57398D2*
X74941D1*
X4355Y65904D2*
X19535D1*
X57648D2*
X74941D1*
X4355Y65655D2*
X19289D1*
X57894D2*
X74945D1*
X4355Y65406D2*
X19039D1*
X58144D2*
X74945D1*
X4355Y65158D2*
X18789D1*
X58394D2*
X74945D1*
X4359Y64909D2*
X18543D1*
X58640D2*
X74949D1*
X4359Y64660D2*
X18293D1*
X58890D2*
X74949D1*
X4359Y64412D2*
X18043D1*
X59140D2*
X74953D1*
X4359Y64163D2*
X17797D1*
X59386D2*
X74953D1*
X4362Y63914D2*
X17555D1*
X59636D2*
X74953D1*
X4362Y63666D2*
X17359D1*
X59886D2*
X74957D1*
X4362Y63417D2*
X17203D1*
X60132D2*
X74957D1*
X4362Y63168D2*
X17078D1*
X60382D2*
X74957D1*
X4366Y62920D2*
X16984D1*
X60632D2*
X74961D1*
X4366Y62671D2*
X16914D1*
X60878D2*
X74961D1*
X4366Y62422D2*
X16867D1*
X61128D2*
X74961D1*
X4366Y62173D2*
X16840D1*
X61378D2*
X74965D1*
X4370Y61925D2*
X15305D1*
X61624D2*
X74965D1*
X4370Y61676D2*
X14824D1*
X61874D2*
X74969D1*
X4370Y61427D2*
X14484D1*
X62124D2*
X74969D1*
X4370Y61179D2*
X14223D1*
X62370D2*
X74969D1*
X4370Y60930D2*
X14012D1*
X62620D2*
X74973D1*
X4374Y60681D2*
X13844D1*
X62870D2*
X74973D1*
X4374Y60433D2*
X13707D1*
X63116D2*
X74973D1*
X4374Y60184D2*
X13598D1*
X63366D2*
X74976D1*
X4374Y59935D2*
X13512D1*
X63616D2*
X74976D1*
X4378Y59687D2*
X13449D1*
X63862D2*
X74980D1*
X4378Y59438D2*
X13410D1*
X64112D2*
X74980D1*
X4378Y59189D2*
X13391D1*
X64351D2*
X74980D1*
X4378Y58941D2*
X13391D1*
X64550D2*
X74984D1*
X4382Y58692D2*
X13410D1*
X64722D2*
X74984D1*
X4382Y58443D2*
X12309D1*
X64862D2*
X74984D1*
X4382Y58194D2*
X11824D1*
X64980D2*
X74988D1*
X4382Y57946D2*
X11492D1*
X65073D2*
X74988D1*
X4386Y57697D2*
X11234D1*
X65148D2*
X74988D1*
X4386Y57448D2*
X11019D1*
X65206D2*
X74992D1*
X4386Y57200D2*
X10769D1*
X65245D2*
X74992D1*
X4386Y56951D2*
X10519D1*
X65265D2*
X74996D1*
X4390Y56702D2*
X10273D1*
X65273D2*
X74996D1*
X4390Y56454D2*
X10023D1*
X65273D2*
X74996D1*
X4390Y56205D2*
X9773D1*
X65273D2*
X75000D1*
X4390Y55956D2*
X9527D1*
X65273D2*
X75000D1*
X4390Y55708D2*
X9277D1*
X65273D2*
X75000D1*
X4394Y55459D2*
X9027D1*
X65273D2*
X75004D1*
X4394Y55210D2*
X8812D1*
X65273D2*
X75004D1*
X4394Y54962D2*
X8641D1*
X65273D2*
X75004D1*
X4394Y54713D2*
X8504D1*
X65273D2*
X75008D1*
X4398Y54464D2*
X8394D1*
X65273D2*
X75008D1*
X4398Y54215D2*
X8316D1*
X65273D2*
X75012D1*
X4398Y53967D2*
X6476D1*
X65273D2*
X75012D1*
X4398Y53718D2*
X6476D1*
X65273D2*
X75012D1*
X4401Y53469D2*
X6476D1*
X65273D2*
X75016D1*
X4401Y53221D2*
X6476D1*
X65273D2*
X75016D1*
X4401Y52972D2*
X6476D1*
X65273D2*
X75016D1*
X4401Y52723D2*
X6476D1*
X65273D2*
X75019D1*
X4405Y52475D2*
X6476D1*
X65273D2*
X75019D1*
X4405Y52226D2*
X6476D1*
X65273D2*
X75019D1*
X4405Y51977D2*
X6476D1*
X65273D2*
X75023D1*
X4405Y51729D2*
X6476D1*
X65273D2*
X75023D1*
X4409Y51480D2*
X6476D1*
X65273D2*
X75027D1*
X4409Y51231D2*
X6476D1*
X65273D2*
X75027D1*
X4409Y50983D2*
X6476D1*
X65273D2*
X75027D1*
X4409Y50734D2*
X6476D1*
X65273D2*
X75031D1*
X4413Y50485D2*
X6476D1*
X65273D2*
X75031D1*
X4413Y50236D2*
X6476D1*
X65273D2*
X75031D1*
X4413Y49988D2*
X6476D1*
X65273D2*
X75035D1*
X4413Y49739D2*
X6476D1*
X65273D2*
X75035D1*
X4413Y49490D2*
X6476D1*
X65273D2*
X75035D1*
X4417Y49242D2*
X6476D1*
X65273D2*
X75039D1*
X4417Y48993D2*
X6476D1*
X65866D2*
X75039D1*
X4417Y48744D2*
X6476D1*
X66515D2*
X75043D1*
X4417Y48496D2*
X6476D1*
X66917D2*
X75043D1*
X4421Y48247D2*
X6476D1*
X67214D2*
X75043D1*
X4421Y47998D2*
X6476D1*
X67452D2*
X75047D1*
X4421Y47750D2*
X6476D1*
X67640D2*
X75047D1*
X4421Y47501D2*
X6476D1*
X67792D2*
X75047D1*
X4425Y47252D2*
X6476D1*
X67917D2*
X75051D1*
X4425Y47004D2*
X6476D1*
X68015D2*
X75051D1*
X4425Y46755D2*
X6476D1*
X68089D2*
X75051D1*
X4425Y46506D2*
X6476D1*
X68140D2*
X75055D1*
X4429Y46257D2*
X6476D1*
X68171D2*
X75055D1*
X4429Y46009D2*
X6476D1*
X68183D2*
X75059D1*
X4429Y45760D2*
X6476D1*
X68171D2*
X75059D1*
X4429Y45511D2*
X6476D1*
X68140D2*
X75059D1*
X4433Y45263D2*
X6476D1*
X68089D2*
X75062D1*
X4433Y45014D2*
X6461D1*
X68019D2*
X75062D1*
X4433Y44765D2*
X6211D1*
X67921D2*
X75062D1*
X4433Y44517D2*
X5961D1*
X67800D2*
X75066D1*
X4437Y44268D2*
X5715D1*
X74140D2*
X75066D1*
X4437Y44019D2*
X5465D1*
X74847D2*
X75066D1*
X4437Y43771D2*
X5215D1*
X4437Y43522D2*
X4969D1*
X4437Y43273D2*
X4719D1*
X4480Y32828D2*
X4564D1*
X4480Y32580D2*
X4809D1*
X74843D2*
X75133D1*
X4480Y32331D2*
X5059D1*
X74273D2*
X75137D1*
X4480Y32082D2*
X5309D1*
X67609D2*
X75137D1*
X4484Y31834D2*
X5555D1*
X67792D2*
X75137D1*
X4484Y31585D2*
X5805D1*
X67941D2*
X75141D1*
X4484Y31336D2*
X5992D1*
X68058D2*
X75141D1*
X4484Y31088D2*
X6109D1*
X68151D2*
X75141D1*
X4484Y30839D2*
X6254D1*
X68222D2*
X75144D1*
X4487Y30590D2*
X6351D1*
X68273D2*
X75144D1*
X4487Y30341D2*
X6351D1*
X68300D2*
X75144D1*
X4487Y30093D2*
X6351D1*
X68308D2*
X75148D1*
X4487Y29844D2*
X6351D1*
X68292D2*
X75148D1*
X4491Y29595D2*
X6351D1*
X68261D2*
X75152D1*
X4491Y29347D2*
X6351D1*
X68206D2*
X75152D1*
X4491Y29098D2*
X6351D1*
X68128D2*
X75152D1*
X4491Y28849D2*
X6351D1*
X68030D2*
X75156D1*
X4495Y28601D2*
X6351D1*
X67901D2*
X75156D1*
X4495Y28352D2*
X6351D1*
X67745D2*
X75156D1*
X4495Y28103D2*
X6351D1*
X67550D2*
X75160D1*
X4495Y27855D2*
X6351D1*
X67308D2*
X75160D1*
X4499Y27606D2*
X6351D1*
X66999D2*
X75160D1*
X4499Y27357D2*
X6351D1*
X66581D2*
X75164D1*
X4499Y27109D2*
X6351D1*
X65866D2*
X75164D1*
X4499Y26860D2*
X6351D1*
X65523D2*
X75168D1*
X4503Y26611D2*
X6351D1*
X65523D2*
X75168D1*
X4503Y26362D2*
X6351D1*
X65523D2*
X75168D1*
X4503Y26114D2*
X6351D1*
X65523D2*
X75172D1*
X4503Y25865D2*
X6351D1*
X65523D2*
X75172D1*
X4507Y25616D2*
X6351D1*
X65523D2*
X75172D1*
X4507Y25368D2*
X6351D1*
X65523D2*
X75176D1*
X4507Y25119D2*
X6351D1*
X65523D2*
X75176D1*
X4507Y24870D2*
X6351D1*
X65523D2*
X75176D1*
X4507Y24622D2*
X6351D1*
X65523D2*
X75180D1*
X4511Y24373D2*
X6351D1*
X65523D2*
X75180D1*
X4511Y24124D2*
X6351D1*
X65523D2*
X75184D1*
X4511Y23876D2*
X6351D1*
X65523D2*
X75184D1*
X4511Y23627D2*
X6351D1*
X65523D2*
X75184D1*
X4515Y23378D2*
X6351D1*
X65523D2*
X75187D1*
X4515Y23130D2*
X6351D1*
X65523D2*
X75187D1*
X4515Y22881D2*
X6351D1*
X65523D2*
X75187D1*
X4515Y22632D2*
X6351D1*
X65523D2*
X75191D1*
X4519Y22383D2*
X6351D1*
X65523D2*
X75191D1*
X4519Y22135D2*
X6351D1*
X65523D2*
X75191D1*
X4519Y21886D2*
X9379D1*
X65523D2*
X75195D1*
X4519Y21637D2*
X9625D1*
X65523D2*
X75195D1*
X4523Y21389D2*
X9875D1*
X65523D2*
X75199D1*
X4523Y21140D2*
X10125D1*
X65523D2*
X75199D1*
X4523Y20891D2*
X10371D1*
X65523D2*
X75199D1*
X4523Y20643D2*
X10621D1*
X65523D2*
X75203D1*
X4526Y20394D2*
X10871D1*
X65523D2*
X75203D1*
X4526Y20145D2*
X11121D1*
X65519D2*
X75203D1*
X4526Y19897D2*
X11426D1*
X65503D2*
X75207D1*
X4526Y19648D2*
X11844D1*
X65472D2*
X75207D1*
X4530Y19399D2*
X12629D1*
X65421D2*
X75207D1*
X4530Y19150D2*
X12820D1*
X65355D2*
X75211D1*
X4530Y18902D2*
X12945D1*
X65265D2*
X75211D1*
X4530Y18653D2*
X13109D1*
X65155D2*
X75215D1*
X4530Y18404D2*
X13312D1*
X65023D2*
X75215D1*
X4534Y18156D2*
X13566D1*
X64866D2*
X75215D1*
X4534Y17907D2*
X13508D1*
X64679D2*
X75219D1*
X4534Y17658D2*
X13469D1*
X64452D2*
X75219D1*
X4534Y17410D2*
X13453D1*
X64202D2*
X75219D1*
X4538Y17161D2*
X13453D1*
X63956D2*
X75223D1*
X4538Y16912D2*
X13476D1*
X63706D2*
X75223D1*
X4538Y16664D2*
X13519D1*
X63456D2*
X75223D1*
X4538Y16415D2*
X13586D1*
X63210D2*
X75226D1*
X4542Y16166D2*
X13672D1*
X62960D2*
X75226D1*
X4542Y15918D2*
X13785D1*
X62710D2*
X75230D1*
X4542Y15669D2*
X13926D1*
X62464D2*
X75230D1*
X4542Y15420D2*
X14098D1*
X62214D2*
X75230D1*
X4546Y15171D2*
X14316D1*
X61964D2*
X75234D1*
X4546Y14923D2*
X14586D1*
X61718D2*
X75234D1*
X4546Y14674D2*
X14937D1*
X61468D2*
X75234D1*
X4546Y14425D2*
X15445D1*
X61218D2*
X75238D1*
X4550Y14177D2*
X16613D1*
X60972D2*
X75238D1*
X4550Y13928D2*
X16656D1*
X60722D2*
X75238D1*
X4550Y13679D2*
X16723D1*
X60472D2*
X75242D1*
X4550Y13431D2*
X16816D1*
X60226D2*
X75242D1*
X4550Y13182D2*
X16937D1*
X59976D2*
X75246D1*
X4554Y12933D2*
X17090D1*
X59726D2*
X75246D1*
X4554Y12685D2*
X17277D1*
X59480D2*
X75246D1*
X4554Y12436D2*
X17516D1*
X59230D2*
X75250D1*
X4554Y12187D2*
X17766D1*
X58980D2*
X75250D1*
X4558Y11939D2*
X18012D1*
X58734D2*
X75250D1*
X4558Y11690D2*
X18262D1*
X58484D2*
X75254D1*
X4558Y11441D2*
X18512D1*
X58234D2*
X75254D1*
X4558Y11192D2*
X18758D1*
X57987D2*
X75254D1*
X4562Y10944D2*
X19008D1*
X57737D2*
X75258D1*
X4562Y10695D2*
X19258D1*
X57487D2*
X75258D1*
X4562Y10446D2*
X19508D1*
X57241D2*
X75262D1*
X4562Y10198D2*
X19812D1*
X56991D2*
X75262D1*
X4566Y9949D2*
X20242D1*
X56741D2*
X75262D1*
X4566Y9700D2*
X21074D1*
X56495D2*
X75266D1*
X4566Y9452D2*
X31344D1*
X56245D2*
X75266D1*
X4566Y9203D2*
X31508D1*
X55995D2*
X75266D1*
X4569Y8954D2*
X31707D1*
X55749D2*
X75269D1*
X4569Y8706D2*
X31945D1*
X55499D2*
X75269D1*
X4569Y8457D2*
X32195D1*
X55249D2*
X75269D1*
X4569Y8208D2*
X32441D1*
X55003D2*
X75273D1*
X4573Y7960D2*
X32691D1*
X54753D2*
X75273D1*
X4573Y7711D2*
X32941D1*
X54503D2*
X75277D1*
X4573Y7462D2*
X33187D1*
X54257D2*
X75277D1*
X4573Y7213D2*
X33437D1*
X54007D2*
X75277D1*
X4573Y6965D2*
X33687D1*
X53757D2*
X75281D1*
X4577Y6716D2*
X33937D1*
X53507D2*
X75281D1*
X4577Y6467D2*
X34226D1*
X53218D2*
X75281D1*
X4577Y6219D2*
X34590D1*
X52855D2*
X75285D1*
X4577Y5970D2*
X35086D1*
X52359D2*
X75285D1*
X4581Y5721D2*
X36055D1*
X51390D2*
X75285D1*
X4581Y5473D2*
X75289D1*
X4581Y5224D2*
X75289D1*
X4581Y4975D2*
X75293D1*
X4585Y4727D2*
X75293D1*
X4585Y4478D2*
X72348D1*
X4585Y4229D2*
X37035D1*
X13442Y58646D2*
X13420Y58867D1*
X13413Y59117D1*
X13428Y59367D1*
X13462Y59614D1*
X13516Y59858D1*
X13590Y60097D1*
X13683Y60329D1*
X13794Y60553D1*
X13923Y60767D1*
X14069Y60970D1*
X14230Y61161D1*
X14407Y61337D1*
X14598Y61499D1*
X14800Y61645D1*
X15014Y61774D1*
X15238Y61886D1*
X15470Y61979D1*
X15709Y62052D1*
X15953Y62107D1*
X16201Y62141D1*
X16450Y62155D1*
X16700Y62149D1*
X16859Y62134D1*
X16893Y62442D1*
X16942Y62688D1*
X17011Y62928D1*
X17101Y63161D1*
X17211Y63385D1*
X17339Y63600D1*
X17486Y63802D1*
X17707Y64050D1*
X19922Y66261D1*
X20114Y66422D1*
X20318Y66566D1*
X20534Y66691D1*
X20761Y66798D1*
X20995Y66884D1*
X21236Y66950D1*
X21482Y66995D1*
X21731Y67018D1*
X22412Y67022D1*
X22679Y67090D1*
X22926Y67130D1*
X23257Y67149D1*
X29581D1*
X29865Y67445D1*
X32242Y69819D1*
X32439Y69991D1*
X32444Y70032D1*
X4316Y70131D1*
X4318Y68757D1*
X4418Y42942D1*
X5048Y43578D1*
X6504Y45034D1*
X6503Y49126D1*
Y54126D1*
X8319D1*
X8366Y54304D1*
X8451Y54539D1*
X8555Y54766D1*
X8679Y54983D1*
X8821Y55188D1*
X8981Y55381D1*
X9611Y56017D1*
X11103Y57508D1*
X11263Y57700D1*
X11439Y57878D1*
X11630Y58040D1*
X11833Y58184D1*
X12049Y58311D1*
X12274Y58419D1*
X12508Y58506D1*
X12749Y58573D1*
X12995Y58619D1*
X13243Y58644D1*
X13443Y58648D1*
X16628Y14227D2*
X16414Y14229D1*
X16165Y14251D1*
X15918Y14294D1*
X15676Y14356D1*
X15440Y14437D1*
X15211Y14538D1*
X14991Y14656D1*
X14781Y14792D1*
X14583Y14944D1*
X14398Y15112D1*
X14227Y15295D1*
X14071Y15490D1*
X13932Y15698D1*
X13810Y15916D1*
X13706Y16143D1*
X13621Y16378D1*
X13555Y16619D1*
X13508Y16865D1*
X13482Y17113D1*
X13476Y17363D1*
X13490Y17612D1*
X13524Y17860D1*
X13593Y18153D1*
X13386Y18350D1*
X13221Y18538D1*
X13073Y18739D1*
X12943Y18953D1*
X12832Y19177D1*
X12768Y19334D1*
X12689Y19394D1*
X12443Y19442D1*
X12203Y19512D1*
X11970Y19601D1*
X11746Y19711D1*
X11531Y19840D1*
X11329Y19986D1*
X11081Y20207D1*
X9200Y22098D1*
X9122Y22129D1*
X6378D1*
X6382Y27124D1*
X6378Y27379D1*
X6382Y28124D1*
X6378Y28379D1*
Y30704D1*
X6275Y30848D1*
X6146Y31062D1*
X6037Y31286D1*
X5977Y31435D1*
X4471Y32944D1*
X4453Y32882D1*
X4562Y4004D1*
X5811Y4009D1*
X75319Y4499D1*
X75157Y32784D1*
X74913Y32632D1*
X74692Y32514D1*
X74464Y32412D1*
X74230Y32325D1*
X73990Y32254D1*
X73746Y32200D1*
X73499Y32162D1*
X73250Y32141D1*
X72569Y32137D1*
X67534D1*
X67640Y32011D1*
X67784Y31807D1*
X67912Y31592D1*
X68021Y31367D1*
X68112Y31134D1*
X68184Y30895D1*
X68237Y30651D1*
X68269Y30403D1*
X68281Y30127D1*
X68271Y29878D1*
X68241Y29629D1*
X68191Y29385D1*
X68121Y29145D1*
X68032Y28911D1*
X67924Y28686D1*
X67798Y28469D1*
X67656Y28264D1*
X67497Y28071D1*
X67323Y27892D1*
X67135Y27727D1*
X66935Y27577D1*
X66723Y27445D1*
X66501Y27330D1*
X66271Y27233D1*
X66033Y27156D1*
X65790Y27098D1*
X65500Y27055D1*
X65496Y26503D1*
X65494Y20126D1*
X65477Y19877D1*
X65443Y19629D1*
X65393Y19384D1*
X65326Y19144D1*
X65242Y18908D1*
X65143Y18679D1*
X65029Y18456D1*
X64899Y18242D1*
X64756Y18038D1*
X64599Y17843D1*
X64331Y17562D1*
X53453Y6687D1*
X53265Y6523D1*
X53066Y6372D1*
X52857Y6234D1*
X52639Y6112D1*
X52413Y6004D1*
X52181Y5912D1*
X51943Y5836D1*
X51700Y5776D1*
X51454Y5733D1*
X51206Y5706D1*
X50817Y5697D1*
X36378Y5699D1*
X36129Y5716D1*
X35881Y5750D1*
X35636Y5800D1*
X35395Y5867D1*
X35160Y5951D1*
X34930Y6050D1*
X34708Y6164D1*
X34494Y6294D1*
X34290Y6437D1*
X34095Y6594D1*
X33814Y6863D1*
X31815Y8864D1*
X31651Y9053D1*
X31499Y9252D1*
X31306Y9549D1*
X22882Y9552D1*
X22633Y9573D1*
X22387Y9616D1*
X22172Y9673D1*
X21376Y9675D1*
X21127Y9696D1*
X20881Y9739D1*
X20640Y9803D1*
X20405Y9888D1*
X20178Y9993D1*
X19961Y10117D1*
X19755Y10259D1*
X19563Y10418D1*
X18927Y11049D1*
X17371Y12609D1*
X17210Y12801D1*
X17066Y13005D1*
X16941Y13221D1*
X16834Y13447D1*
X16748Y13682D1*
X16682Y13923D1*
X16639Y14157D1*
X68154Y45879D2*
X68133Y45630D1*
X68093Y45383D1*
X68033Y45141D1*
X67953Y44904D1*
X67855Y44674D1*
X67738Y44453D1*
X67688Y44369D1*
X73382Y44367D1*
X73631Y44350D1*
X73879Y44316D1*
X74124Y44266D1*
X74364Y44198D1*
X74600Y44115D1*
X74829Y44016D1*
X75096Y43876D1*
X75055Y50623D1*
X74944Y69882D1*
X53550Y69957D1*
X53793Y69732D1*
X64256Y59266D1*
X64420Y59078D1*
X64571Y58879D1*
X64709Y58670D1*
X64831Y58452D1*
X64939Y58227D1*
X65031Y57994D1*
X65108Y57756D1*
X65167Y57514D1*
X65211Y57267D1*
X65237Y57019D1*
X65246Y56630D1*
Y49087D1*
X65516Y49059D1*
X65762Y49013D1*
X66003Y48947D1*
X66238Y48862D1*
X66465Y48758D1*
X66683Y48636D1*
X66891Y48497D1*
X67086Y48341D1*
X67269Y48170D1*
X67437Y47985D1*
X67589Y47787D1*
X67725Y47577D1*
X67844Y47357D1*
X67944Y47128D1*
X68026Y46892D1*
X68088Y46650D1*
X68130Y46404D1*
X68152Y46155D1*
X68154Y45879D1*
D16*
X16501Y59068D3*
X16563Y17313D3*
X65193Y30127D3*
X65068Y46004D3*
D19*
X37253Y54442D3*
Y55442D3*
Y56442D3*
Y57442D3*
Y58442D3*
Y59442D3*
Y60442D3*
Y61442D3*
X9000Y45629D3*
Y46629D3*
Y47629D3*
Y48629D3*
Y49629D3*
Y50629D3*
Y51629D3*
X8875Y24627D3*
Y25627D3*
Y26627D3*
Y27627D3*
Y28627D3*
Y29627D3*
Y30627D3*
D20*
Y24627D3*
D21*
Y25627D3*
Y26627D3*
Y27627D3*
Y28627D3*
Y29627D3*
Y30627D3*
D19*
X33315Y38003D3*
X34315D3*
X40191Y38128D3*
X41191D3*
X37253Y34378D3*
Y35378D3*
Y14188D2*
D14*
X50004Y14626D1*
X19501Y14563D2*
X34909Y14537D1*
X23007Y12440D2*
X34818D1*
X34446D2*
X46257D1*
X19751Y62006D2*
X35159Y61979D1*
X38878Y61756D2*
X49129Y61693D1*
X37633Y63883D2*
X45879Y64068D1*
X23257Y64258D2*
X35068D1*
X13493Y40034D2*
D18*
G02X13493Y40034I13J0D01*
G01*
X15474D2*
D14*
X13506D1*
X13493D2*
D18*
G02X13493Y40034I13J0D01*
G01*
X15461D2*
G02X15461Y40034I13J0D01*
G01*
X15474Y55782D2*
D14*
Y40034D1*
X15461D2*
D18*
G02X15461Y40034I13J0D01*
G01*
Y55782D2*
G02X15461Y55782I13J0D01*
G01*
X19411D2*
D14*
X15474D1*
X15461D2*
D18*
G02X15461Y55782I13J0D01*
G01*
X19398D2*
G02X19398Y55782I13J0D01*
G01*
X19411Y59719D2*
D14*
Y55782D1*
X19398D2*
D18*
G02X19398Y55782I13J0D01*
G01*
Y59719D2*
G02X19398Y59719I13J0D01*
G01*
X33191D2*
D14*
X19411D1*
X19398D2*
D18*
G02X19398Y59719I13J0D01*
G01*
X33178D2*
G02X33178Y59719I13J0D01*
G01*
X33191Y57751D2*
D14*
Y59719D1*
X33178D2*
D18*
G02X33178Y59719I13J0D01*
G01*
Y57751D2*
G02X33178Y57751I13J0D01*
G01*
X21380D2*
D14*
X33191D1*
X33178D2*
D18*
G02X33178Y57751I13J0D01*
G01*
X21367D2*
G02X21367Y57751I13J0D01*
G01*
X21380Y53814D2*
D14*
Y57751D1*
X21367D2*
D18*
G02X21367Y57751I13J0D01*
G01*
Y53814D2*
G02X21367Y53814I13J0D01*
G01*
X17443D2*
D14*
X21380D1*
X21367D2*
D18*
G02X21367Y53814I13J0D01*
G01*
X17430D2*
G02X17430Y53814I13J0D01*
G01*
X17443Y40034D2*
D14*
Y53814D1*
X17430D2*
D18*
G02X17430Y53814I13J0D01*
G01*
Y40034D2*
G02X17430Y40034I13J0D01*
G01*
X19411D2*
D14*
X17443D1*
X17430D2*
D18*
G02X17430Y40034I13J0D01*
G01*
X19398D2*
G02X19398Y40034I13J0D01*
G01*
X19411Y51845D2*
D14*
Y40034D1*
X19398D2*
D18*
G02X19398Y40034I13J0D01*
G01*
Y51845D2*
G02X19398Y51845I13J0D01*
G01*
X23348D2*
D14*
X19411D1*
X19398D2*
D18*
G02X19398Y51845I13J0D01*
G01*
X23335D2*
G02X23335Y51845I13J0D01*
G01*
X23348Y55782D2*
D14*
Y51845D1*
X23335D2*
D18*
G02X23335Y51845I13J0D01*
G01*
Y55782D2*
G02X23335Y55782I13J0D01*
G01*
X33191D2*
D14*
X23348D1*
X23335D2*
D18*
G02X23335Y55782I13J0D01*
G01*
X33178D2*
G02X33178Y55782I13J0D01*
G01*
X33191Y53814D2*
D14*
Y55782D1*
X33178D2*
D18*
G02X33178Y55782I13J0D01*
G01*
Y53814D2*
G02X33178Y53814I13J0D01*
G01*
X25317D2*
D14*
X33191D1*
X33178D2*
D18*
G02X33178Y53814I13J0D01*
G01*
X25304D2*
G02X25304Y53814I13J0D01*
G01*
X25317Y49877D2*
D14*
Y53814D1*
X25304D2*
D18*
G02X25304Y53814I13J0D01*
G01*
Y49877D2*
G02X25304Y49877I13J0D01*
G01*
X21380D2*
D14*
X25317D1*
X25304D2*
D18*
G02X25304Y49877I13J0D01*
G01*
X21367D2*
G02X21367Y49877I13J0D01*
G01*
X21380Y40034D2*
D14*
Y49877D1*
X21367D2*
D18*
G02X21367Y49877I13J0D01*
G01*
Y40034D2*
G02X21367Y40034I13J0D01*
G01*
X23348D2*
D14*
X21380D1*
X21367D2*
D18*
G02X21367Y40034I13J0D01*
G01*
X23335D2*
G02X23335Y40034I13J0D01*
G01*
X23348Y47908D2*
D14*
Y40034D1*
X23335D2*
D18*
G02X23335Y40034I13J0D01*
G01*
Y47908D2*
G02X23335Y47908I13J0D01*
G01*
X27285D2*
D14*
X23348D1*
X23335D2*
D18*
G02X23335Y47908I13J0D01*
G01*
X27272D2*
G02X27272Y47908I13J0D01*
G01*
X27285Y51845D2*
D14*
Y47908D1*
X27272D2*
D18*
G02X27272Y47908I13J0D01*
G01*
Y51845D2*
G02X27272Y51845I13J0D01*
G01*
X33191D2*
D14*
X27285D1*
X27272D2*
D18*
G02X27272Y51845I13J0D01*
G01*
X33178D2*
G02X33178Y51845I13J0D01*
G01*
X33191Y49877D2*
D14*
Y51845D1*
X33178D2*
D18*
G02X33178Y51845I13J0D01*
G01*
Y49877D2*
G02X33178Y49877I13J0D01*
G01*
X29254D2*
D14*
X33191D1*
X33178D2*
D18*
G02X33178Y49877I13J0D01*
G01*
X29241D2*
G02X29241Y49877I13J0D01*
G01*
X29254Y45940D2*
D14*
Y49877D1*
X29241D2*
D18*
G02X29241Y49877I13J0D01*
G01*
Y45940D2*
G02X29241Y45940I13J0D01*
G01*
X25317D2*
D14*
X29254D1*
X29241D2*
D18*
G02X29241Y45940I13J0D01*
G01*
X25304D2*
G02X25304Y45940I13J0D01*
G01*
X25317Y40034D2*
D14*
Y45940D1*
X25304D2*
D18*
G02X25304Y45940I13J0D01*
G01*
Y40034D2*
G02X25304Y40034I13J0D01*
G01*
X27285D2*
D14*
X25317D1*
X25304D2*
D18*
G02X25304Y40034I13J0D01*
G01*
X27272D2*
G02X27272Y40034I13J0D01*
G01*
X27285Y43971D2*
D14*
Y40034D1*
X27272D2*
D18*
G02X27272Y40034I13J0D01*
G01*
Y43971D2*
G02X27272Y43971I13J0D01*
G01*
X31222D2*
D14*
X27285D1*
X27272D2*
D18*
G02X27272Y43971I13J0D01*
G01*
X31209D2*
G02X31209Y43971I13J0D01*
G01*
X31222Y47908D2*
D14*
Y43971D1*
X31209D2*
D18*
G02X31209Y43971I13J0D01*
G01*
Y47908D2*
G02X31209Y47908I13J0D01*
G01*
X33191D2*
D14*
X31222D1*
X31209D2*
D18*
G02X31209Y47908I13J0D01*
G01*
X33178D2*
G02X33178Y47908I13J0D01*
G01*
X33191Y42003D2*
D14*
Y47908D1*
X33178D2*
D18*
G02X33178Y47908I13J0D01*
G01*
Y42003D2*
G02X33178Y42003I13J0D01*
G01*
X29254D2*
D14*
X33191D1*
X33178D2*
D18*
G02X33178Y42003I13J0D01*
G01*
X29241D2*
G02X29241Y42003I13J0D01*
G01*
X29254Y40034D2*
D14*
Y42003D1*
X29241D2*
D18*
G02X29241Y42003I13J0D01*
G01*
Y40034D2*
G02X29241Y40034I13J0D01*
G01*
X35159D2*
D14*
X29254D1*
X29241D2*
D18*
G02X29241Y40034I13J0D01*
G01*
X35146D2*
G02X35146Y40034I13J0D01*
G01*
X35159D2*
D14*
X35378Y61756D1*
X35146Y40034D2*
D18*
G02X35146Y40034I13J0D01*
G01*
X5619Y36097D2*
G02X5619Y36097I13J0D01*
G01*
G02X5619Y36097I13J0D01*
G01*
X35146Y14444D2*
G02X35146Y14444I13J0D01*
G01*
X35159Y16412D2*
D14*
Y14444D1*
X35146D2*
D18*
G02X35146Y14444I13J0D01*
G01*
Y16412D2*
G02X35146Y16412I13J0D01*
G01*
X19411D2*
D14*
X35159D1*
X35146D2*
D18*
G02X35146Y16412I13J0D01*
G01*
X19398D2*
G02X19398Y16412I13J0D01*
G01*
X19411Y20349D2*
D14*
Y16412D1*
X19398D2*
D18*
G02X19398Y16412I13J0D01*
G01*
Y20349D2*
G02X19398Y20349I13J0D01*
G01*
X15474D2*
D14*
X19411D1*
X19398D2*
D18*
G02X19398Y20349I13J0D01*
G01*
X15461D2*
G02X15461Y20349I13J0D01*
G01*
X15474Y36097D2*
D14*
Y20349D1*
X15461D2*
D18*
G02X15461Y20349I13J0D01*
G01*
Y36097D2*
G02X15461Y36097I13J0D01*
G01*
X17443D2*
D14*
X15474D1*
X15461D2*
D18*
G02X15461Y36097I13J0D01*
G01*
X17430D2*
G02X17430Y36097I13J0D01*
G01*
X17443Y22318D2*
D14*
Y36097D1*
X17430D2*
D18*
G02X17430Y36097I13J0D01*
G01*
Y22318D2*
G02X17430Y22318I13J0D01*
G01*
X21380D2*
D14*
X17443D1*
X17430D2*
D18*
G02X17430Y22318I13J0D01*
G01*
X21367D2*
G02X21367Y22318I13J0D01*
G01*
X21380Y18381D2*
D14*
Y22318D1*
X21367D2*
D18*
G02X21367Y22318I13J0D01*
G01*
Y18381D2*
G02X21367Y18381I13J0D01*
G01*
X35159D2*
D14*
X21380D1*
X21367D2*
D18*
G02X21367Y18381I13J0D01*
G01*
X35146D2*
G02X35146Y18381I13J0D01*
G01*
X35159Y20349D2*
D14*
Y18381D1*
X35146D2*
D18*
G02X35146Y18381I13J0D01*
G01*
Y20349D2*
G02X35146Y20349I13J0D01*
G01*
X23348D2*
D14*
X35159D1*
X35146D2*
D18*
G02X35146Y20349I13J0D01*
G01*
X23335D2*
G02X23335Y20349I13J0D01*
G01*
X23348Y24286D2*
D14*
Y20349D1*
X23335D2*
D18*
G02X23335Y20349I13J0D01*
G01*
Y24286D2*
G02X23335Y24286I13J0D01*
G01*
X19411D2*
D14*
X23348D1*
X23335D2*
D18*
G02X23335Y24286I13J0D01*
G01*
X19398D2*
G02X19398Y24286I13J0D01*
G01*
X19411Y36097D2*
D14*
Y24286D1*
X19398D2*
D18*
G02X19398Y24286I13J0D01*
G01*
Y36097D2*
G02X19398Y36097I13J0D01*
G01*
X21380D2*
D14*
X19411D1*
X19398D2*
D18*
G02X19398Y36097I13J0D01*
G01*
X21367D2*
G02X21367Y36097I13J0D01*
G01*
X21380Y26255D2*
D14*
Y36097D1*
X21367D2*
D18*
G02X21367Y36097I13J0D01*
G01*
Y26255D2*
G02X21367Y26255I13J0D01*
G01*
X25317D2*
D14*
X21380D1*
X21367D2*
D18*
G02X21367Y26255I13J0D01*
G01*
X25304D2*
G02X25304Y26255I13J0D01*
G01*
X25317Y22318D2*
D14*
Y26255D1*
X25304D2*
D18*
G02X25304Y26255I13J0D01*
G01*
Y22318D2*
G02X25304Y22318I13J0D01*
G01*
X35159D2*
D14*
X25317D1*
X25304D2*
D18*
G02X25304Y22318I13J0D01*
G01*
X35146D2*
G02X35146Y22318I13J0D01*
G01*
X35159Y24286D2*
D14*
Y22318D1*
X35146D2*
D18*
G02X35146Y22318I13J0D01*
G01*
Y24286D2*
G02X35146Y24286I13J0D01*
G01*
X27285D2*
D14*
X35159D1*
X35146D2*
D18*
G02X35146Y24286I13J0D01*
G01*
X27272D2*
G02X27272Y24286I13J0D01*
G01*
X27285Y28223D2*
D14*
Y24286D1*
X27272D2*
D18*
G02X27272Y24286I13J0D01*
G01*
Y28223D2*
G02X27272Y28223I13J0D01*
G01*
X23348D2*
D14*
X27285D1*
X27272D2*
D18*
G02X27272Y28223I13J0D01*
G01*
X23335D2*
G02X23335Y28223I13J0D01*
G01*
X23348Y36097D2*
D14*
Y28223D1*
X23335D2*
D18*
G02X23335Y28223I13J0D01*
G01*
Y36097D2*
G02X23335Y36097I13J0D01*
G01*
X25317D2*
D14*
X23348D1*
X23335D2*
D18*
G02X23335Y36097I13J0D01*
G01*
X25304D2*
G02X25304Y36097I13J0D01*
G01*
X25317Y30192D2*
D14*
Y36097D1*
X25304D2*
D18*
G02X25304Y36097I13J0D01*
G01*
Y30192D2*
G02X25304Y30192I13J0D01*
G01*
X29254D2*
D14*
X25317D1*
X25304D2*
D18*
G02X25304Y30192I13J0D01*
G01*
X29241D2*
G02X29241Y30192I13J0D01*
G01*
X29254Y26255D2*
D14*
Y30192D1*
X29241D2*
D18*
G02X29241Y30192I13J0D01*
G01*
Y26255D2*
G02X29241Y26255I13J0D01*
G01*
X35159D2*
D14*
X29254D1*
X29241D2*
D18*
G02X29241Y26255I13J0D01*
G01*
X35146D2*
G02X35146Y26255I13J0D01*
G01*
X35159Y28223D2*
D14*
Y26255D1*
X35146D2*
D18*
G02X35146Y26255I13J0D01*
G01*
Y28223D2*
G02X35146Y28223I13J0D01*
G01*
X31222D2*
D14*
X35159D1*
X35146D2*
D18*
G02X35146Y28223I13J0D01*
G01*
X31209D2*
G02X31209Y28223I13J0D01*
G01*
X31222Y32160D2*
D14*
Y28223D1*
X31209D2*
D18*
G02X31209Y28223I13J0D01*
G01*
Y32160D2*
G02X31209Y32160I13J0D01*
G01*
X27285D2*
D14*
X31222D1*
X31209D2*
D18*
G02X31209Y32160I13J0D01*
G01*
X27272D2*
G02X27272Y32160I13J0D01*
G01*
X27285Y36097D2*
D14*
Y32160D1*
X27272D2*
D18*
G02X27272Y32160I13J0D01*
G01*
Y36097D2*
G02X27272Y36097I13J0D01*
G01*
X29254D2*
D14*
X27285D1*
X27272D2*
D18*
G02X27272Y36097I13J0D01*
G01*
X29241D2*
G02X29241Y36097I13J0D01*
G01*
X29254Y34129D2*
D14*
Y36097D1*
X29241D2*
D18*
G02X29241Y36097I13J0D01*
G01*
Y34129D2*
G02X29241Y34129I13J0D01*
G01*
X33191D2*
D14*
X29254D1*
X29241D2*
D18*
G02X29241Y34129I13J0D01*
G01*
X33178D2*
G02X33178Y34129I13J0D01*
G01*
X33191Y30192D2*
D14*
Y34129D1*
X33178D2*
D18*
G02X33178Y34129I13J0D01*
G01*
Y30192D2*
G02X33178Y30192I13J0D01*
G01*
X35159D2*
D14*
X33191D1*
X33178D2*
D18*
G02X33178Y30192I13J0D01*
G01*
X35146D2*
G02X35146Y30192I13J0D01*
G01*
X35159Y36097D2*
D14*
Y30192D1*
X35146D2*
D18*
G02X35146Y30192I13J0D01*
G01*
Y36097D2*
G02X35146Y36097I13J0D01*
G01*
X31222D2*
D14*
X35159D1*
X35146D2*
D18*
G02X35146Y36097I13J0D01*
G01*
X31209D2*
G02X31209Y36097I13J0D01*
G01*
X31222Y38066D2*
D14*
Y36097D1*
X31209D2*
D18*
G02X31209Y36097I13J0D01*
G01*
Y38066D2*
G02X31209Y38066I13J0D01*
G01*
X13125Y37816D2*
D14*
X31222Y38066D1*
X31209D2*
D18*
G02X31209Y38066I13J0D01*
G01*
X60737Y36097D2*
G02X60737Y36097I13J0D01*
G01*
X58782D2*
D14*
X60750D1*
X60737D2*
D18*
G02X60737Y36097I13J0D01*
G01*
X58768D2*
G02X58768Y36097I13J0D01*
G01*
X58755Y22626D2*
D14*
X58782Y36097D1*
X58768D2*
D18*
G02X58768Y36097I13J0D01*
G01*
X13378Y40349D2*
D14*
X13404Y55758D1*
X13191Y22347D2*
X13217Y37756D1*
X11223Y40538D2*
Y52349D1*
X39096Y16412D2*
X51567Y16376D1*
X39083Y16412D2*
D18*
G02X39083Y16412I13J0D01*
G01*
X39096Y18381D2*
D14*
Y16412D1*
X39083D2*
D18*
G02X39083Y16412I13J0D01*
G01*
Y18381D2*
G02X39083Y18381I13J0D01*
G01*
X52876D2*
D14*
X39096D1*
X39083D2*
D18*
G02X39083Y18381I13J0D01*
G01*
X52863D2*
G02X52863Y18381I13J0D01*
G01*
X52876Y22318D2*
D14*
Y18381D1*
X52863D2*
D18*
G02X52863Y18381I13J0D01*
G01*
Y22318D2*
G02X52863Y22318I13J0D01*
G01*
X56813D2*
D14*
X52876D1*
X52863D2*
D18*
G02X52863Y22318I13J0D01*
G01*
X56800D2*
G02X56800Y22318I13J0D01*
G01*
X56813Y36097D2*
D14*
Y22318D1*
X56800D2*
D18*
G02X56800Y22318I13J0D01*
G01*
Y36097D2*
G02X56800Y36097I13J0D01*
G01*
X54845D2*
D14*
X56813D1*
X56800D2*
D18*
G02X56800Y36097I13J0D01*
G01*
X54831D2*
G02X54831Y36097I13J0D01*
G01*
X54845Y24286D2*
D14*
Y36097D1*
X54831D2*
D18*
G02X54831Y36097I13J0D01*
G01*
Y24286D2*
G02X54831Y24286I13J0D01*
G01*
X50908D2*
D14*
X54845D1*
X54831D2*
D18*
G02X54831Y24286I13J0D01*
G01*
X50894D2*
G02X50894Y24286I13J0D01*
G01*
X50908Y20349D2*
D14*
Y24286D1*
X50894D2*
D18*
G02X50894Y24286I13J0D01*
G01*
Y20349D2*
G02X50894Y20349I13J0D01*
G01*
X39096D2*
D14*
X50908D1*
X50894D2*
D18*
G02X50894Y20349I13J0D01*
G01*
X39083D2*
G02X39083Y20349I13J0D01*
G01*
X39096Y22318D2*
D14*
Y20349D1*
X39083D2*
D18*
G02X39083Y20349I13J0D01*
G01*
Y22318D2*
G02X39083Y22318I13J0D01*
G01*
X48939D2*
D14*
X39096D1*
X39083D2*
D18*
G02X39083Y22318I13J0D01*
G01*
X48926D2*
G02X48926Y22318I13J0D01*
G01*
X48939Y26255D2*
D14*
Y22318D1*
X48926D2*
D18*
G02X48926Y22318I13J0D01*
G01*
Y26255D2*
G02X48926Y26255I13J0D01*
G01*
X52876D2*
D14*
X48939D1*
X48926D2*
D18*
G02X48926Y26255I13J0D01*
G01*
X52863D2*
G02X52863Y26255I13J0D01*
G01*
X52876Y36097D2*
D14*
Y26255D1*
X52863D2*
D18*
G02X52863Y26255I13J0D01*
G01*
Y36097D2*
G02X52863Y36097I13J0D01*
G01*
X50908D2*
D14*
X52876D1*
X52863D2*
D18*
G02X52863Y36097I13J0D01*
G01*
X50894D2*
G02X50894Y36097I13J0D01*
G01*
X50908Y28223D2*
D14*
Y36097D1*
X50894D2*
D18*
G02X50894Y36097I13J0D01*
G01*
Y28223D2*
G02X50894Y28223I13J0D01*
G01*
X46971D2*
D14*
X50908D1*
X50894D2*
D18*
G02X50894Y28223I13J0D01*
G01*
X46957D2*
G02X46957Y28223I13J0D01*
G01*
X46971Y24286D2*
D14*
Y28223D1*
X46957D2*
D18*
G02X46957Y28223I13J0D01*
G01*
Y24286D2*
G02X46957Y24286I13J0D01*
G01*
X39096D2*
D14*
X46971D1*
X46957D2*
D18*
G02X46957Y24286I13J0D01*
G01*
X39083D2*
G02X39083Y24286I13J0D01*
G01*
X39096Y26255D2*
D14*
Y24286D1*
X39083D2*
D18*
G02X39083Y24286I13J0D01*
G01*
Y26255D2*
G02X39083Y26255I13J0D01*
G01*
X45002D2*
D14*
X39096D1*
X39083D2*
D18*
G02X39083Y26255I13J0D01*
G01*
X44989D2*
G02X44989Y26255I13J0D01*
G01*
X45002Y30192D2*
D14*
Y26255D1*
X44989D2*
D18*
G02X44989Y26255I13J0D01*
G01*
Y30192D2*
G02X44989Y30192I13J0D01*
G01*
X48939D2*
D14*
X45002D1*
X44989D2*
D18*
G02X44989Y30192I13J0D01*
G01*
X48926D2*
G02X48926Y30192I13J0D01*
G01*
X48939Y36097D2*
D14*
Y30192D1*
X48926D2*
D18*
G02X48926Y30192I13J0D01*
G01*
Y36097D2*
G02X48926Y36097I13J0D01*
G01*
X46971D2*
D14*
X48939D1*
X48926D2*
D18*
G02X48926Y36097I13J0D01*
G01*
X46957D2*
G02X46957Y36097I13J0D01*
G01*
X46971Y32160D2*
D14*
Y36097D1*
X46957D2*
D18*
G02X46957Y36097I13J0D01*
G01*
Y32160D2*
G02X46957Y32160I13J0D01*
G01*
X43034D2*
D14*
X46971D1*
X46957D2*
D18*
G02X46957Y32160I13J0D01*
G01*
X43020D2*
G02X43020Y32160I13J0D01*
G01*
X43034Y28223D2*
D14*
Y32160D1*
X43020D2*
D18*
G02X43020Y32160I13J0D01*
G01*
Y28223D2*
G02X43020Y28223I13J0D01*
G01*
X39096D2*
D14*
X43034D1*
X43020D2*
D18*
G02X43020Y28223I13J0D01*
G01*
X39083D2*
G02X39083Y28223I13J0D01*
G01*
X39096Y30192D2*
D14*
Y28223D1*
X39083D2*
D18*
G02X39083Y28223I13J0D01*
G01*
Y30192D2*
G02X39083Y30192I13J0D01*
G01*
X41065D2*
D14*
X39096D1*
X39083D2*
D18*
G02X39083Y30192I13J0D01*
G01*
X41052D2*
G02X41052Y30192I13J0D01*
G01*
X41065Y34129D2*
D14*
Y30192D1*
X41052D2*
D18*
G02X41052Y30192I13J0D01*
G01*
Y34129D2*
G02X41052Y34129I13J0D01*
G01*
X45002D2*
D14*
X41065D1*
X41052D2*
D18*
G02X41052Y34129I13J0D01*
G01*
X44989D2*
G02X44989Y34129I13J0D01*
G01*
X45002Y36097D2*
D14*
Y34129D1*
X44989D2*
D18*
G02X44989Y34129I13J0D01*
G01*
Y36097D2*
G02X44989Y36097I13J0D01*
G01*
X39096D2*
D14*
X45002D1*
X44989D2*
D18*
G02X44989Y36097I13J0D01*
G01*
X39083D2*
G02X39083Y36097I13J0D01*
G01*
X39096D2*
D14*
Y32160D1*
X39083D2*
D18*
G02X39083Y32160I13J0D01*
G01*
Y36097D2*
G02X39083Y36097I13J0D01*
G01*
X39096Y32160D2*
D14*
X37128D1*
X37115D2*
D18*
G02X37115Y32160I13J0D01*
G01*
X39083D2*
G02X39083Y32160I13J0D01*
G01*
X37128D2*
D14*
X37065Y14251D1*
X37115Y32160D2*
D18*
G02X37115Y32160I13J0D01*
G01*
X39083Y61688D2*
G02X39083Y61688I13J0D01*
G01*
X39096Y59719D2*
D14*
Y61688D1*
X39083D2*
D18*
G02X39083Y61688I13J0D01*
G01*
Y59719D2*
G02X39083Y59719I13J0D01*
G01*
X52880Y59755D2*
D14*
X39096Y59719D1*
X39083D2*
D18*
G02X39083Y59719I13J0D01*
G01*
X54831D2*
G02X54831Y59719I13J0D01*
G01*
G02X54831Y59719I13J0D01*
G01*
X58943Y55782D2*
Y55783D1*
Y55784D1*
Y55785D1*
Y55786D1*
Y55787D1*
Y55788D1*
Y55789D1*
Y55790D1*
Y55791D1*
Y55792D1*
Y55793D1*
Y55794D1*
Y55795D1*
Y55794D1*
Y55793D1*
Y55792D1*
Y55791D1*
Y55790D1*
Y55789D1*
Y55788D1*
Y55787D1*
Y55786D1*
Y55785D1*
Y55784D1*
Y55783D1*
Y55782D1*
Y55781D1*
Y55780D1*
Y55779D1*
Y55778D1*
Y55777D1*
Y55776D1*
Y55775D1*
Y55774D1*
Y55773D1*
Y55772D1*
Y55771D1*
Y55770D1*
Y55769D1*
Y55770D1*
Y55771D1*
Y55772D1*
Y55773D1*
Y55774D1*
Y55775D1*
Y55776D1*
Y55777D1*
Y55778D1*
Y55779D1*
Y55780D1*
Y55781D1*
Y55782D1*
X58782Y40034D2*
D14*
X58755Y53192D1*
X58630Y55782D2*
D18*
Y55783D1*
X58631Y55784D1*
X58632Y55785D1*
X58633Y55786D1*
X58635Y55787D1*
X58637D1*
X58640Y55788D1*
X58643Y55789D1*
X58646Y55790D1*
X58649Y55791D1*
X58653D1*
X58657Y55792D1*
X58662D1*
X58666Y55793D1*
X58671D1*
X58676Y55794D1*
X58682D1*
X58687Y55795D1*
X58693D1*
X58698D1*
X58704D1*
X58710D1*
X58715D1*
X58721D1*
X58727D1*
X58732D1*
X58738D1*
X58743Y55794D1*
X58748D1*
X58754Y55793D1*
X58758D1*
X58763Y55792D1*
X58767D1*
X58772Y55791D1*
X58775D1*
X58779Y55790D1*
X58782Y55789D1*
X58785Y55788D1*
X58788Y55787D1*
X58790D1*
X58791Y55786D1*
X58793Y55785D1*
X58794Y55784D1*
Y55783D1*
X58795Y55782D1*
X58794Y55781D1*
Y55780D1*
X58793Y55779D1*
X58791D1*
X58790Y55778D1*
X58788Y55777D1*
X58785Y55776D1*
X58782Y55775D1*
X58779Y55774D1*
X58775D1*
X58772Y55773D1*
X58767Y55772D1*
X58763D1*
X58758Y55771D1*
X58754D1*
X58748Y55770D1*
X58743D1*
X58738D1*
X58732Y55769D1*
X58727D1*
X58721D1*
X58715D1*
X58710D1*
X58704D1*
X58698D1*
X58693D1*
X58687Y55770D1*
X58682D1*
X58676D1*
X58671Y55771D1*
X58666D1*
X58662Y55772D1*
X58657D1*
X58653Y55773D1*
X58649Y55774D1*
X58646D1*
X58643Y55775D1*
X58640Y55776D1*
X58637Y55777D1*
X58635Y55778D1*
X58633Y55779D1*
X58632D1*
X58631Y55780D1*
X58630Y55781D1*
Y55782D1*
X58768Y40034D2*
G02X58768Y40034I13J0D01*
G01*
X56813D2*
D14*
X58782D1*
X58768D2*
D18*
G02X58768Y40034I13J0D01*
G01*
X56800D2*
G02X56800Y40034I13J0D01*
G01*
X56813Y53814D2*
D14*
Y40034D1*
X56800D2*
D18*
G02X56800Y40034I13J0D01*
G01*
Y53814D2*
G02X56800Y53814I13J0D01*
G01*
X52876D2*
D14*
X56813D1*
X56800D2*
D18*
G02X56800Y53814I13J0D01*
G01*
X52863D2*
G02X52863Y53814I13J0D01*
G01*
X52876Y57751D2*
D14*
Y53814D1*
X52863D2*
D18*
G02X52863Y53814I13J0D01*
G01*
Y57751D2*
G02X52863Y57751I13J0D01*
G01*
X39096D2*
D14*
X52876D1*
X52863D2*
D18*
G02X52863Y57751I13J0D01*
G01*
X39083D2*
G02X39083Y57751I13J0D01*
G01*
X39096Y55782D2*
D14*
Y57751D1*
X39083D2*
D18*
G02X39083Y57751I13J0D01*
G01*
Y55782D2*
G02X39083Y55782I13J0D01*
G01*
X50908D2*
D14*
X39096D1*
X39083D2*
D18*
G02X39083Y55782I13J0D01*
G01*
X50894D2*
G02X50894Y55782I13J0D01*
G01*
X50908Y51845D2*
D14*
Y55782D1*
X50894D2*
D18*
G02X50894Y55782I13J0D01*
G01*
Y51845D2*
G02X50894Y51845I13J0D01*
G01*
X54845D2*
D14*
X50908D1*
X50894D2*
D18*
G02X50894Y51845I13J0D01*
G01*
X54831D2*
G02X54831Y51845I13J0D01*
G01*
X54845Y40034D2*
D14*
Y51845D1*
X54831D2*
D18*
G02X54831Y51845I13J0D01*
G01*
Y40034D2*
G02X54831Y40034I13J0D01*
G01*
X52876D2*
D14*
X54845D1*
X54831D2*
D18*
G02X54831Y40034I13J0D01*
G01*
X52863D2*
G02X52863Y40034I13J0D01*
G01*
X52876Y49877D2*
D14*
Y40034D1*
X52863D2*
D18*
G02X52863Y40034I13J0D01*
G01*
Y49877D2*
G02X52863Y49877I13J0D01*
G01*
X48939D2*
D14*
X52876D1*
X52863D2*
D18*
G02X52863Y49877I13J0D01*
G01*
X48926D2*
G02X48926Y49877I13J0D01*
G01*
X48939Y53814D2*
D14*
Y49877D1*
X48926D2*
D18*
G02X48926Y49877I13J0D01*
G01*
Y53814D2*
G02X48926Y53814I13J0D01*
G01*
X39096D2*
D14*
X48939D1*
X48926D2*
D18*
G02X48926Y53814I13J0D01*
G01*
X39083D2*
G02X39083Y53814I13J0D01*
G01*
X39096Y51845D2*
D14*
Y53814D1*
X39083D2*
D18*
G02X39083Y53814I13J0D01*
G01*
Y51845D2*
G02X39083Y51845I13J0D01*
G01*
X46971D2*
D14*
X39096D1*
X39083D2*
D18*
G02X39083Y51845I13J0D01*
G01*
X46957D2*
G02X46957Y51845I13J0D01*
G01*
X46971Y47908D2*
D14*
Y51845D1*
X46957D2*
D18*
G02X46957Y51845I13J0D01*
G01*
Y47908D2*
G02X46957Y47908I13J0D01*
G01*
X50908D2*
D14*
X46971D1*
X46957D2*
D18*
G02X46957Y47908I13J0D01*
G01*
X50894D2*
G02X50894Y47908I13J0D01*
G01*
X50908Y40034D2*
D14*
Y47908D1*
X50894D2*
D18*
G02X50894Y47908I13J0D01*
G01*
Y40034D2*
G02X50894Y40034I13J0D01*
G01*
X48939D2*
D14*
X50908D1*
X50894D2*
D18*
G02X50894Y40034I13J0D01*
G01*
X48926D2*
G02X48926Y40034I13J0D01*
G01*
X48939Y45940D2*
D14*
Y40034D1*
X48926D2*
D18*
G02X48926Y40034I13J0D01*
G01*
Y45940D2*
G02X48926Y45940I13J0D01*
G01*
X45002D2*
D14*
X48939D1*
X48926D2*
D18*
G02X48926Y45940I13J0D01*
G01*
X44989D2*
G02X44989Y45940I13J0D01*
G01*
X45002Y49877D2*
D14*
Y45940D1*
X44989D2*
D18*
G02X44989Y45940I13J0D01*
G01*
Y49877D2*
G02X44989Y49877I13J0D01*
G01*
X39096D2*
D14*
X45002D1*
X44989D2*
D18*
G02X44989Y49877I13J0D01*
G01*
X39083D2*
G02X39083Y49877I13J0D01*
G01*
X39096Y47908D2*
D14*
Y49877D1*
X39083D2*
D18*
G02X39083Y49877I13J0D01*
G01*
Y47908D2*
G02X39083Y47908I13J0D01*
G01*
X43034D2*
D14*
X39096D1*
X39083D2*
D18*
G02X39083Y47908I13J0D01*
G01*
X43020D2*
G02X43020Y47908I13J0D01*
G01*
X43034Y43971D2*
D14*
Y47908D1*
X43020D2*
D18*
G02X43020Y47908I13J0D01*
G01*
Y43971D2*
G02X43020Y43971I13J0D01*
G01*
X46971D2*
D14*
X43034D1*
X43020D2*
D18*
G02X43020Y43971I13J0D01*
G01*
X46957D2*
G02X46957Y43971I13J0D01*
G01*
X46971Y40034D2*
D14*
Y43971D1*
X46957D2*
D18*
G02X46957Y43971I13J0D01*
G01*
Y40034D2*
G02X46957Y40034I13J0D01*
G01*
X45002D2*
D14*
X46971D1*
X46957D2*
D18*
G02X46957Y40034I13J0D01*
G01*
X44989D2*
G02X44989Y40034I13J0D01*
G01*
X45002Y42003D2*
D14*
Y40034D1*
X44989D2*
D18*
G02X44989Y40034I13J0D01*
G01*
Y42003D2*
G02X44989Y42003I13J0D01*
G01*
X41065D2*
D14*
X45002D1*
X44989D2*
D18*
G02X44989Y42003I13J0D01*
G01*
X41052D2*
G02X41052Y42003I13J0D01*
G01*
X41065Y45940D2*
D14*
Y42003D1*
X41052D2*
D18*
G02X41052Y42003I13J0D01*
G01*
Y45940D2*
G02X41052Y45940I13J0D01*
G01*
X39096D2*
D14*
X41065D1*
X41052D2*
D18*
G02X41052Y45940I13J0D01*
G01*
X39083D2*
G02X39083Y45940I13J0D01*
G01*
X39096Y40034D2*
D14*
Y45940D1*
X39083D2*
D18*
G02X39083Y45940I13J0D01*
G01*
Y40034D2*
G02X39083Y40034I13J0D01*
G01*
X43034D2*
D14*
X39096D1*
X39083D2*
D18*
G02X39083Y40034I13J0D01*
G01*
X43020D2*
G02X43020Y40034I13J0D01*
G01*
X43034Y38066D2*
D14*
Y40034D1*
X43020D2*
D18*
G02X43020Y40034I13J0D01*
G01*
Y38066D2*
G02X43020Y38066I13J0D01*
G01*
X61256Y38191D2*
D14*
X43034Y38066D1*
X43020D2*
D18*
G02X43020Y38066I13J0D01*
G01*
X11098Y25411D2*
D14*
Y37222D1*
X36626Y37410D2*
D34*
X37731D1*
Y37884D1*
X37678Y38042D1*
X37625Y38094D1*
X37521Y38147D1*
X37363D1*
X37257Y38094D1*
X37205Y38042D1*
X37152Y37884D1*
X37099Y38042D1*
X37047Y38094D1*
X36942Y38147D1*
X36836D1*
X36732Y38094D1*
X36678Y38042D1*
X36626Y37884D1*
Y37410D1*
X37152D2*
Y37884D1*
X37731Y39328D2*
X36626D1*
X37731Y38907D1*
X36626Y38486D1*
X37731D1*
X36784Y40404D2*
X36678Y40300D1*
X36626Y40142D1*
Y39931D1*
X36678Y39773D1*
X36784Y39667D1*
X36889D1*
X36994Y39721D1*
X37047Y39773D1*
X37099Y39878D1*
X37205Y40194D1*
X37257Y40300D1*
X37311Y40352D1*
X37415Y40404D1*
X37573D1*
X37678Y40300D1*
X37731Y40142D1*
Y39931D1*
X37678Y39773D1*
X37573Y39667D1*
X36889Y41533D2*
X36784Y41481D1*
X36678Y41375D1*
X36626Y41270D1*
Y41060D1*
X36678Y40954D1*
X36784Y40850D1*
X36889Y40796D1*
X37047Y40744D1*
X37311D1*
X37467Y40796D1*
X37573Y40850D1*
X37678Y40954D1*
X37731Y41060D1*
Y41270D1*
X37678Y41375D1*
X37573Y41481D1*
X37467Y41533D1*
X36626Y42556D2*
Y41873D1*
X37731D1*
Y42556D1*
X37152Y41873D2*
Y42293D1*
M02*
