G04 DipTrace 2.4.0.2*
%INTop.gbr*%
%MOIN*%
%ADD12C,0.003*%
%ADD13C,0.0394*%
%ADD14C,0.1575*%
%ADD15C,0.315*%
%ADD16C,0.1969*%
%ADD17C,0.0787*%
%ADD18R,0.0787X0.0787*%
%ADD19R,0.0591X0.0591*%
%ADD20C,0.0591*%
%FSLAX44Y44*%
G04*
G70*
G90*
G75*
G01*
%LNTop*%
%LPD*%
X19314Y14563D2*
D13*
X19501D1*
D14*
X21501Y12563D1*
X23939D1*
D13*
X24595Y11907D1*
X24689Y12000D1*
X19751Y62006D2*
D14*
X21876Y64131D1*
X24064D1*
X23939Y64256D1*
X39378Y11375D2*
D15*
X34503D1*
X36503Y9375D1*
X50942D1*
X61818Y20251D1*
Y32753D1*
X65381Y36315D1*
X86633D1*
X37503Y64756D2*
X32377D1*
X34753Y67131D1*
X51192D1*
X61568Y56755D1*
Y42879D1*
X63693Y40753D1*
X86883D1*
X60505Y35878D2*
D14*
X60818Y38003D1*
X53130Y59755D2*
X53817D1*
X58630Y54942D1*
Y52567D1*
X58755Y52692D1*
X51942Y16501D2*
X53817D1*
X58630Y21314D1*
Y22626D1*
X58755Y22751D1*
Y24377D1*
X46066Y12438D2*
X48067D1*
X50004Y14376D1*
X11125Y52317D2*
Y53442D1*
X13125Y55442D1*
X13250D1*
X11375Y25814D2*
Y24002D1*
X13125Y22251D1*
X45879Y64068D2*
X47379D1*
X49754Y61693D1*
X49629Y10688D2*
X53005Y14063D1*
X54505D1*
X48754Y66194D2*
D16*
X52630Y62318D1*
X55067D1*
X11063Y37128D2*
D14*
X8875D1*
Y32628D1*
X8688Y32440D1*
X11063Y40753D2*
X10625Y40316D1*
X8625D1*
Y43066D1*
X6562Y41003D1*
Y34940D1*
X8875Y32628D1*
D16*
X16501Y59068D3*
X16563Y17313D3*
X65193Y30127D3*
X65068Y46004D3*
D18*
X37253Y54442D3*
Y55442D3*
Y56442D3*
Y57442D3*
Y58442D3*
Y59442D3*
Y60442D3*
Y61442D3*
X9000Y45629D3*
Y46629D3*
Y47629D3*
Y48629D3*
Y49629D3*
Y50629D3*
Y51629D3*
X8875Y24627D3*
Y25627D3*
Y26627D3*
Y27627D3*
Y28627D3*
Y29627D3*
Y30627D3*
D19*
Y24627D3*
D20*
Y25627D3*
Y26627D3*
Y27627D3*
Y28627D3*
Y29627D3*
Y30627D3*
D18*
X33315Y38003D3*
X34315D3*
X40191Y38128D3*
X41191D3*
X37253Y34378D3*
Y35378D3*
Y14188D2*
D14*
X50004Y14626D1*
X19501Y14563D2*
X34909Y14537D1*
X23007Y12440D2*
X34818D1*
X34446D2*
X46257D1*
X19751Y62006D2*
X35159Y61979D1*
X38878Y61756D2*
X49129Y61693D1*
X37633Y63883D2*
X45879Y64068D1*
X23257Y64258D2*
X35068D1*
X13493Y40034D2*
D17*
G02X13493Y40034I13J0D01*
G01*
X15474D2*
D14*
X13506D1*
X13493D2*
D17*
G02X13493Y40034I13J0D01*
G01*
X15461D2*
G02X15461Y40034I13J0D01*
G01*
X15474Y55782D2*
D14*
Y40034D1*
X15461D2*
D17*
G02X15461Y40034I13J0D01*
G01*
Y55782D2*
G02X15461Y55782I13J0D01*
G01*
X19411D2*
D14*
X15474D1*
X15461D2*
D17*
G02X15461Y55782I13J0D01*
G01*
X19398D2*
G02X19398Y55782I13J0D01*
G01*
X19411Y59719D2*
D14*
Y55782D1*
X19398D2*
D17*
G02X19398Y55782I13J0D01*
G01*
Y59719D2*
G02X19398Y59719I13J0D01*
G01*
X33191D2*
D14*
X19411D1*
X19398D2*
D17*
G02X19398Y59719I13J0D01*
G01*
X33178D2*
G02X33178Y59719I13J0D01*
G01*
X33191Y57751D2*
D14*
Y59719D1*
X33178D2*
D17*
G02X33178Y59719I13J0D01*
G01*
Y57751D2*
G02X33178Y57751I13J0D01*
G01*
X21380D2*
D14*
X33191D1*
X33178D2*
D17*
G02X33178Y57751I13J0D01*
G01*
X21367D2*
G02X21367Y57751I13J0D01*
G01*
X21380Y53814D2*
D14*
Y57751D1*
X21367D2*
D17*
G02X21367Y57751I13J0D01*
G01*
Y53814D2*
G02X21367Y53814I13J0D01*
G01*
X17443D2*
D14*
X21380D1*
X21367D2*
D17*
G02X21367Y53814I13J0D01*
G01*
X17430D2*
G02X17430Y53814I13J0D01*
G01*
X17443Y40034D2*
D14*
Y53814D1*
X17430D2*
D17*
G02X17430Y53814I13J0D01*
G01*
Y40034D2*
G02X17430Y40034I13J0D01*
G01*
X19411D2*
D14*
X17443D1*
X17430D2*
D17*
G02X17430Y40034I13J0D01*
G01*
X19398D2*
G02X19398Y40034I13J0D01*
G01*
X19411Y51845D2*
D14*
Y40034D1*
X19398D2*
D17*
G02X19398Y40034I13J0D01*
G01*
Y51845D2*
G02X19398Y51845I13J0D01*
G01*
X23348D2*
D14*
X19411D1*
X19398D2*
D17*
G02X19398Y51845I13J0D01*
G01*
X23335D2*
G02X23335Y51845I13J0D01*
G01*
X23348Y55782D2*
D14*
Y51845D1*
X23335D2*
D17*
G02X23335Y51845I13J0D01*
G01*
Y55782D2*
G02X23335Y55782I13J0D01*
G01*
X33191D2*
D14*
X23348D1*
X23335D2*
D17*
G02X23335Y55782I13J0D01*
G01*
X33178D2*
G02X33178Y55782I13J0D01*
G01*
X33191Y53814D2*
D14*
Y55782D1*
X33178D2*
D17*
G02X33178Y55782I13J0D01*
G01*
Y53814D2*
G02X33178Y53814I13J0D01*
G01*
X25317D2*
D14*
X33191D1*
X33178D2*
D17*
G02X33178Y53814I13J0D01*
G01*
X25304D2*
G02X25304Y53814I13J0D01*
G01*
X25317Y49877D2*
D14*
Y53814D1*
X25304D2*
D17*
G02X25304Y53814I13J0D01*
G01*
Y49877D2*
G02X25304Y49877I13J0D01*
G01*
X21380D2*
D14*
X25317D1*
X25304D2*
D17*
G02X25304Y49877I13J0D01*
G01*
X21367D2*
G02X21367Y49877I13J0D01*
G01*
X21380Y40034D2*
D14*
Y49877D1*
X21367D2*
D17*
G02X21367Y49877I13J0D01*
G01*
Y40034D2*
G02X21367Y40034I13J0D01*
G01*
X23348D2*
D14*
X21380D1*
X21367D2*
D17*
G02X21367Y40034I13J0D01*
G01*
X23335D2*
G02X23335Y40034I13J0D01*
G01*
X23348Y47908D2*
D14*
Y40034D1*
X23335D2*
D17*
G02X23335Y40034I13J0D01*
G01*
Y47908D2*
G02X23335Y47908I13J0D01*
G01*
X27285D2*
D14*
X23348D1*
X23335D2*
D17*
G02X23335Y47908I13J0D01*
G01*
X27272D2*
G02X27272Y47908I13J0D01*
G01*
X27285Y51845D2*
D14*
Y47908D1*
X27272D2*
D17*
G02X27272Y47908I13J0D01*
G01*
Y51845D2*
G02X27272Y51845I13J0D01*
G01*
X33191D2*
D14*
X27285D1*
X27272D2*
D17*
G02X27272Y51845I13J0D01*
G01*
X33178D2*
G02X33178Y51845I13J0D01*
G01*
X33191Y49877D2*
D14*
Y51845D1*
X33178D2*
D17*
G02X33178Y51845I13J0D01*
G01*
Y49877D2*
G02X33178Y49877I13J0D01*
G01*
X29254D2*
D14*
X33191D1*
X33178D2*
D17*
G02X33178Y49877I13J0D01*
G01*
X29241D2*
G02X29241Y49877I13J0D01*
G01*
X29254Y45940D2*
D14*
Y49877D1*
X29241D2*
D17*
G02X29241Y49877I13J0D01*
G01*
Y45940D2*
G02X29241Y45940I13J0D01*
G01*
X25317D2*
D14*
X29254D1*
X29241D2*
D17*
G02X29241Y45940I13J0D01*
G01*
X25304D2*
G02X25304Y45940I13J0D01*
G01*
X25317Y40034D2*
D14*
Y45940D1*
X25304D2*
D17*
G02X25304Y45940I13J0D01*
G01*
Y40034D2*
G02X25304Y40034I13J0D01*
G01*
X27285D2*
D14*
X25317D1*
X25304D2*
D17*
G02X25304Y40034I13J0D01*
G01*
X27272D2*
G02X27272Y40034I13J0D01*
G01*
X27285Y43971D2*
D14*
Y40034D1*
X27272D2*
D17*
G02X27272Y40034I13J0D01*
G01*
Y43971D2*
G02X27272Y43971I13J0D01*
G01*
X31222D2*
D14*
X27285D1*
X27272D2*
D17*
G02X27272Y43971I13J0D01*
G01*
X31209D2*
G02X31209Y43971I13J0D01*
G01*
X31222Y47908D2*
D14*
Y43971D1*
X31209D2*
D17*
G02X31209Y43971I13J0D01*
G01*
Y47908D2*
G02X31209Y47908I13J0D01*
G01*
X33191D2*
D14*
X31222D1*
X31209D2*
D17*
G02X31209Y47908I13J0D01*
G01*
X33178D2*
G02X33178Y47908I13J0D01*
G01*
X33191Y42003D2*
D14*
Y47908D1*
X33178D2*
D17*
G02X33178Y47908I13J0D01*
G01*
Y42003D2*
G02X33178Y42003I13J0D01*
G01*
X29254D2*
D14*
X33191D1*
X33178D2*
D17*
G02X33178Y42003I13J0D01*
G01*
X29241D2*
G02X29241Y42003I13J0D01*
G01*
X29254Y40034D2*
D14*
Y42003D1*
X29241D2*
D17*
G02X29241Y42003I13J0D01*
G01*
Y40034D2*
G02X29241Y40034I13J0D01*
G01*
X35159D2*
D14*
X29254D1*
X29241D2*
D17*
G02X29241Y40034I13J0D01*
G01*
X35146D2*
G02X35146Y40034I13J0D01*
G01*
X35159D2*
D14*
X35378Y61756D1*
X35146Y40034D2*
D17*
G02X35146Y40034I13J0D01*
G01*
X5619Y36097D2*
G02X5619Y36097I13J0D01*
G01*
G02X5619Y36097I13J0D01*
G01*
X35146Y14444D2*
G02X35146Y14444I13J0D01*
G01*
X35159Y16412D2*
D14*
Y14444D1*
X35146D2*
D17*
G02X35146Y14444I13J0D01*
G01*
Y16412D2*
G02X35146Y16412I13J0D01*
G01*
X19411D2*
D14*
X35159D1*
X35146D2*
D17*
G02X35146Y16412I13J0D01*
G01*
X19398D2*
G02X19398Y16412I13J0D01*
G01*
X19411Y20349D2*
D14*
Y16412D1*
X19398D2*
D17*
G02X19398Y16412I13J0D01*
G01*
Y20349D2*
G02X19398Y20349I13J0D01*
G01*
X15474D2*
D14*
X19411D1*
X19398D2*
D17*
G02X19398Y20349I13J0D01*
G01*
X15461D2*
G02X15461Y20349I13J0D01*
G01*
X15474Y36097D2*
D14*
Y20349D1*
X15461D2*
D17*
G02X15461Y20349I13J0D01*
G01*
Y36097D2*
G02X15461Y36097I13J0D01*
G01*
X17443D2*
D14*
X15474D1*
X15461D2*
D17*
G02X15461Y36097I13J0D01*
G01*
X17430D2*
G02X17430Y36097I13J0D01*
G01*
X17443Y22318D2*
D14*
Y36097D1*
X17430D2*
D17*
G02X17430Y36097I13J0D01*
G01*
Y22318D2*
G02X17430Y22318I13J0D01*
G01*
X21380D2*
D14*
X17443D1*
X17430D2*
D17*
G02X17430Y22318I13J0D01*
G01*
X21367D2*
G02X21367Y22318I13J0D01*
G01*
X21380Y18381D2*
D14*
Y22318D1*
X21367D2*
D17*
G02X21367Y22318I13J0D01*
G01*
Y18381D2*
G02X21367Y18381I13J0D01*
G01*
X35159D2*
D14*
X21380D1*
X21367D2*
D17*
G02X21367Y18381I13J0D01*
G01*
X35146D2*
G02X35146Y18381I13J0D01*
G01*
X35159Y20349D2*
D14*
Y18381D1*
X35146D2*
D17*
G02X35146Y18381I13J0D01*
G01*
Y20349D2*
G02X35146Y20349I13J0D01*
G01*
X23348D2*
D14*
X35159D1*
X35146D2*
D17*
G02X35146Y20349I13J0D01*
G01*
X23335D2*
G02X23335Y20349I13J0D01*
G01*
X23348Y24286D2*
D14*
Y20349D1*
X23335D2*
D17*
G02X23335Y20349I13J0D01*
G01*
Y24286D2*
G02X23335Y24286I13J0D01*
G01*
X19411D2*
D14*
X23348D1*
X23335D2*
D17*
G02X23335Y24286I13J0D01*
G01*
X19398D2*
G02X19398Y24286I13J0D01*
G01*
X19411Y36097D2*
D14*
Y24286D1*
X19398D2*
D17*
G02X19398Y24286I13J0D01*
G01*
Y36097D2*
G02X19398Y36097I13J0D01*
G01*
X21380D2*
D14*
X19411D1*
X19398D2*
D17*
G02X19398Y36097I13J0D01*
G01*
X21367D2*
G02X21367Y36097I13J0D01*
G01*
X21380Y26255D2*
D14*
Y36097D1*
X21367D2*
D17*
G02X21367Y36097I13J0D01*
G01*
Y26255D2*
G02X21367Y26255I13J0D01*
G01*
X25317D2*
D14*
X21380D1*
X21367D2*
D17*
G02X21367Y26255I13J0D01*
G01*
X25304D2*
G02X25304Y26255I13J0D01*
G01*
X25317Y22318D2*
D14*
Y26255D1*
X25304D2*
D17*
G02X25304Y26255I13J0D01*
G01*
Y22318D2*
G02X25304Y22318I13J0D01*
G01*
X35159D2*
D14*
X25317D1*
X25304D2*
D17*
G02X25304Y22318I13J0D01*
G01*
X35146D2*
G02X35146Y22318I13J0D01*
G01*
X35159Y24286D2*
D14*
Y22318D1*
X35146D2*
D17*
G02X35146Y22318I13J0D01*
G01*
Y24286D2*
G02X35146Y24286I13J0D01*
G01*
X27285D2*
D14*
X35159D1*
X35146D2*
D17*
G02X35146Y24286I13J0D01*
G01*
X27272D2*
G02X27272Y24286I13J0D01*
G01*
X27285Y28223D2*
D14*
Y24286D1*
X27272D2*
D17*
G02X27272Y24286I13J0D01*
G01*
Y28223D2*
G02X27272Y28223I13J0D01*
G01*
X23348D2*
D14*
X27285D1*
X27272D2*
D17*
G02X27272Y28223I13J0D01*
G01*
X23335D2*
G02X23335Y28223I13J0D01*
G01*
X23348Y36097D2*
D14*
Y28223D1*
X23335D2*
D17*
G02X23335Y28223I13J0D01*
G01*
Y36097D2*
G02X23335Y36097I13J0D01*
G01*
X25317D2*
D14*
X23348D1*
X23335D2*
D17*
G02X23335Y36097I13J0D01*
G01*
X25304D2*
G02X25304Y36097I13J0D01*
G01*
X25317Y30192D2*
D14*
Y36097D1*
X25304D2*
D17*
G02X25304Y36097I13J0D01*
G01*
Y30192D2*
G02X25304Y30192I13J0D01*
G01*
X29254D2*
D14*
X25317D1*
X25304D2*
D17*
G02X25304Y30192I13J0D01*
G01*
X29241D2*
G02X29241Y30192I13J0D01*
G01*
X29254Y26255D2*
D14*
Y30192D1*
X29241D2*
D17*
G02X29241Y30192I13J0D01*
G01*
Y26255D2*
G02X29241Y26255I13J0D01*
G01*
X35159D2*
D14*
X29254D1*
X29241D2*
D17*
G02X29241Y26255I13J0D01*
G01*
X35146D2*
G02X35146Y26255I13J0D01*
G01*
X35159Y28223D2*
D14*
Y26255D1*
X35146D2*
D17*
G02X35146Y26255I13J0D01*
G01*
Y28223D2*
G02X35146Y28223I13J0D01*
G01*
X31222D2*
D14*
X35159D1*
X35146D2*
D17*
G02X35146Y28223I13J0D01*
G01*
X31209D2*
G02X31209Y28223I13J0D01*
G01*
X31222Y32160D2*
D14*
Y28223D1*
X31209D2*
D17*
G02X31209Y28223I13J0D01*
G01*
Y32160D2*
G02X31209Y32160I13J0D01*
G01*
X27285D2*
D14*
X31222D1*
X31209D2*
D17*
G02X31209Y32160I13J0D01*
G01*
X27272D2*
G02X27272Y32160I13J0D01*
G01*
X27285Y36097D2*
D14*
Y32160D1*
X27272D2*
D17*
G02X27272Y32160I13J0D01*
G01*
Y36097D2*
G02X27272Y36097I13J0D01*
G01*
X29254D2*
D14*
X27285D1*
X27272D2*
D17*
G02X27272Y36097I13J0D01*
G01*
X29241D2*
G02X29241Y36097I13J0D01*
G01*
X29254Y34129D2*
D14*
Y36097D1*
X29241D2*
D17*
G02X29241Y36097I13J0D01*
G01*
Y34129D2*
G02X29241Y34129I13J0D01*
G01*
X33191D2*
D14*
X29254D1*
X29241D2*
D17*
G02X29241Y34129I13J0D01*
G01*
X33178D2*
G02X33178Y34129I13J0D01*
G01*
X33191Y30192D2*
D14*
Y34129D1*
X33178D2*
D17*
G02X33178Y34129I13J0D01*
G01*
Y30192D2*
G02X33178Y30192I13J0D01*
G01*
X35159D2*
D14*
X33191D1*
X33178D2*
D17*
G02X33178Y30192I13J0D01*
G01*
X35146D2*
G02X35146Y30192I13J0D01*
G01*
X35159Y36097D2*
D14*
Y30192D1*
X35146D2*
D17*
G02X35146Y30192I13J0D01*
G01*
Y36097D2*
G02X35146Y36097I13J0D01*
G01*
X31222D2*
D14*
X35159D1*
X35146D2*
D17*
G02X35146Y36097I13J0D01*
G01*
X31209D2*
G02X31209Y36097I13J0D01*
G01*
X31222Y38066D2*
D14*
Y36097D1*
X31209D2*
D17*
G02X31209Y36097I13J0D01*
G01*
Y38066D2*
G02X31209Y38066I13J0D01*
G01*
X13125Y37816D2*
D14*
X31222Y38066D1*
X31209D2*
D17*
G02X31209Y38066I13J0D01*
G01*
X60737Y36097D2*
G02X60737Y36097I13J0D01*
G01*
X58782D2*
D14*
X60750D1*
X60737D2*
D17*
G02X60737Y36097I13J0D01*
G01*
X58768D2*
G02X58768Y36097I13J0D01*
G01*
X58755Y22626D2*
D14*
X58782Y36097D1*
X58768D2*
D17*
G02X58768Y36097I13J0D01*
G01*
X13378Y40349D2*
D14*
X13404Y55758D1*
X13191Y22347D2*
X13217Y37756D1*
X11223Y40538D2*
Y52349D1*
X39096Y16412D2*
X51567Y16376D1*
X39083Y16412D2*
D17*
G02X39083Y16412I13J0D01*
G01*
X39096Y18381D2*
D14*
Y16412D1*
X39083D2*
D17*
G02X39083Y16412I13J0D01*
G01*
Y18381D2*
G02X39083Y18381I13J0D01*
G01*
X52876D2*
D14*
X39096D1*
X39083D2*
D17*
G02X39083Y18381I13J0D01*
G01*
X52863D2*
G02X52863Y18381I13J0D01*
G01*
X52876Y22318D2*
D14*
Y18381D1*
X52863D2*
D17*
G02X52863Y18381I13J0D01*
G01*
Y22318D2*
G02X52863Y22318I13J0D01*
G01*
X56813D2*
D14*
X52876D1*
X52863D2*
D17*
G02X52863Y22318I13J0D01*
G01*
X56800D2*
G02X56800Y22318I13J0D01*
G01*
X56813Y36097D2*
D14*
Y22318D1*
X56800D2*
D17*
G02X56800Y22318I13J0D01*
G01*
Y36097D2*
G02X56800Y36097I13J0D01*
G01*
X54845D2*
D14*
X56813D1*
X56800D2*
D17*
G02X56800Y36097I13J0D01*
G01*
X54831D2*
G02X54831Y36097I13J0D01*
G01*
X54845Y24286D2*
D14*
Y36097D1*
X54831D2*
D17*
G02X54831Y36097I13J0D01*
G01*
Y24286D2*
G02X54831Y24286I13J0D01*
G01*
X50908D2*
D14*
X54845D1*
X54831D2*
D17*
G02X54831Y24286I13J0D01*
G01*
X50894D2*
G02X50894Y24286I13J0D01*
G01*
X50908Y20349D2*
D14*
Y24286D1*
X50894D2*
D17*
G02X50894Y24286I13J0D01*
G01*
Y20349D2*
G02X50894Y20349I13J0D01*
G01*
X39096D2*
D14*
X50908D1*
X50894D2*
D17*
G02X50894Y20349I13J0D01*
G01*
X39083D2*
G02X39083Y20349I13J0D01*
G01*
X39096Y22318D2*
D14*
Y20349D1*
X39083D2*
D17*
G02X39083Y20349I13J0D01*
G01*
Y22318D2*
G02X39083Y22318I13J0D01*
G01*
X48939D2*
D14*
X39096D1*
X39083D2*
D17*
G02X39083Y22318I13J0D01*
G01*
X48926D2*
G02X48926Y22318I13J0D01*
G01*
X48939Y26255D2*
D14*
Y22318D1*
X48926D2*
D17*
G02X48926Y22318I13J0D01*
G01*
Y26255D2*
G02X48926Y26255I13J0D01*
G01*
X52876D2*
D14*
X48939D1*
X48926D2*
D17*
G02X48926Y26255I13J0D01*
G01*
X52863D2*
G02X52863Y26255I13J0D01*
G01*
X52876Y36097D2*
D14*
Y26255D1*
X52863D2*
D17*
G02X52863Y26255I13J0D01*
G01*
Y36097D2*
G02X52863Y36097I13J0D01*
G01*
X50908D2*
D14*
X52876D1*
X52863D2*
D17*
G02X52863Y36097I13J0D01*
G01*
X50894D2*
G02X50894Y36097I13J0D01*
G01*
X50908Y28223D2*
D14*
Y36097D1*
X50894D2*
D17*
G02X50894Y36097I13J0D01*
G01*
Y28223D2*
G02X50894Y28223I13J0D01*
G01*
X46971D2*
D14*
X50908D1*
X50894D2*
D17*
G02X50894Y28223I13J0D01*
G01*
X46957D2*
G02X46957Y28223I13J0D01*
G01*
X46971Y24286D2*
D14*
Y28223D1*
X46957D2*
D17*
G02X46957Y28223I13J0D01*
G01*
Y24286D2*
G02X46957Y24286I13J0D01*
G01*
X39096D2*
D14*
X46971D1*
X46957D2*
D17*
G02X46957Y24286I13J0D01*
G01*
X39083D2*
G02X39083Y24286I13J0D01*
G01*
X39096Y26255D2*
D14*
Y24286D1*
X39083D2*
D17*
G02X39083Y24286I13J0D01*
G01*
Y26255D2*
G02X39083Y26255I13J0D01*
G01*
X45002D2*
D14*
X39096D1*
X39083D2*
D17*
G02X39083Y26255I13J0D01*
G01*
X44989D2*
G02X44989Y26255I13J0D01*
G01*
X45002Y30192D2*
D14*
Y26255D1*
X44989D2*
D17*
G02X44989Y26255I13J0D01*
G01*
Y30192D2*
G02X44989Y30192I13J0D01*
G01*
X48939D2*
D14*
X45002D1*
X44989D2*
D17*
G02X44989Y30192I13J0D01*
G01*
X48926D2*
G02X48926Y30192I13J0D01*
G01*
X48939Y36097D2*
D14*
Y30192D1*
X48926D2*
D17*
G02X48926Y30192I13J0D01*
G01*
Y36097D2*
G02X48926Y36097I13J0D01*
G01*
X46971D2*
D14*
X48939D1*
X48926D2*
D17*
G02X48926Y36097I13J0D01*
G01*
X46957D2*
G02X46957Y36097I13J0D01*
G01*
X46971Y32160D2*
D14*
Y36097D1*
X46957D2*
D17*
G02X46957Y36097I13J0D01*
G01*
Y32160D2*
G02X46957Y32160I13J0D01*
G01*
X43034D2*
D14*
X46971D1*
X46957D2*
D17*
G02X46957Y32160I13J0D01*
G01*
X43020D2*
G02X43020Y32160I13J0D01*
G01*
X43034Y28223D2*
D14*
Y32160D1*
X43020D2*
D17*
G02X43020Y32160I13J0D01*
G01*
Y28223D2*
G02X43020Y28223I13J0D01*
G01*
X39096D2*
D14*
X43034D1*
X43020D2*
D17*
G02X43020Y28223I13J0D01*
G01*
X39083D2*
G02X39083Y28223I13J0D01*
G01*
X39096Y30192D2*
D14*
Y28223D1*
X39083D2*
D17*
G02X39083Y28223I13J0D01*
G01*
Y30192D2*
G02X39083Y30192I13J0D01*
G01*
X41065D2*
D14*
X39096D1*
X39083D2*
D17*
G02X39083Y30192I13J0D01*
G01*
X41052D2*
G02X41052Y30192I13J0D01*
G01*
X41065Y34129D2*
D14*
Y30192D1*
X41052D2*
D17*
G02X41052Y30192I13J0D01*
G01*
Y34129D2*
G02X41052Y34129I13J0D01*
G01*
X45002D2*
D14*
X41065D1*
X41052D2*
D17*
G02X41052Y34129I13J0D01*
G01*
X44989D2*
G02X44989Y34129I13J0D01*
G01*
X45002Y36097D2*
D14*
Y34129D1*
X44989D2*
D17*
G02X44989Y34129I13J0D01*
G01*
Y36097D2*
G02X44989Y36097I13J0D01*
G01*
X39096D2*
D14*
X45002D1*
X44989D2*
D17*
G02X44989Y36097I13J0D01*
G01*
X39083D2*
G02X39083Y36097I13J0D01*
G01*
X39096D2*
D14*
Y32160D1*
X39083D2*
D17*
G02X39083Y32160I13J0D01*
G01*
Y36097D2*
G02X39083Y36097I13J0D01*
G01*
X39096Y32160D2*
D14*
X37128D1*
X37115D2*
D17*
G02X37115Y32160I13J0D01*
G01*
X39083D2*
G02X39083Y32160I13J0D01*
G01*
X37128D2*
D14*
X37065Y14251D1*
X37115Y32160D2*
D17*
G02X37115Y32160I13J0D01*
G01*
X39083Y61688D2*
G02X39083Y61688I13J0D01*
G01*
X39096Y59719D2*
D14*
Y61688D1*
X39083D2*
D17*
G02X39083Y61688I13J0D01*
G01*
Y59719D2*
G02X39083Y59719I13J0D01*
G01*
X52880Y59755D2*
D14*
X39096Y59719D1*
X39083D2*
D17*
G02X39083Y59719I13J0D01*
G01*
X54831D2*
G02X54831Y59719I13J0D01*
G01*
G02X54831Y59719I13J0D01*
G01*
X58943Y55782D2*
Y55783D1*
Y55784D1*
Y55785D1*
Y55786D1*
Y55787D1*
Y55788D1*
Y55789D1*
Y55790D1*
Y55791D1*
Y55792D1*
Y55793D1*
Y55794D1*
Y55795D1*
Y55794D1*
Y55793D1*
Y55792D1*
Y55791D1*
Y55790D1*
Y55789D1*
Y55788D1*
Y55787D1*
Y55786D1*
Y55785D1*
Y55784D1*
Y55783D1*
Y55782D1*
Y55781D1*
Y55780D1*
Y55779D1*
Y55778D1*
Y55777D1*
Y55776D1*
Y55775D1*
Y55774D1*
Y55773D1*
Y55772D1*
Y55771D1*
Y55770D1*
Y55769D1*
Y55770D1*
Y55771D1*
Y55772D1*
Y55773D1*
Y55774D1*
Y55775D1*
Y55776D1*
Y55777D1*
Y55778D1*
Y55779D1*
Y55780D1*
Y55781D1*
Y55782D1*
X58782Y40034D2*
D14*
X58755Y53192D1*
X58630Y55782D2*
D17*
Y55783D1*
X58631Y55784D1*
X58632Y55785D1*
X58633Y55786D1*
X58635Y55787D1*
X58637D1*
X58640Y55788D1*
X58643Y55789D1*
X58646Y55790D1*
X58649Y55791D1*
X58653D1*
X58657Y55792D1*
X58662D1*
X58666Y55793D1*
X58671D1*
X58676Y55794D1*
X58682D1*
X58687Y55795D1*
X58693D1*
X58698D1*
X58704D1*
X58710D1*
X58715D1*
X58721D1*
X58727D1*
X58732D1*
X58738D1*
X58743Y55794D1*
X58748D1*
X58754Y55793D1*
X58758D1*
X58763Y55792D1*
X58767D1*
X58772Y55791D1*
X58775D1*
X58779Y55790D1*
X58782Y55789D1*
X58785Y55788D1*
X58788Y55787D1*
X58790D1*
X58791Y55786D1*
X58793Y55785D1*
X58794Y55784D1*
Y55783D1*
X58795Y55782D1*
X58794Y55781D1*
Y55780D1*
X58793Y55779D1*
X58791D1*
X58790Y55778D1*
X58788Y55777D1*
X58785Y55776D1*
X58782Y55775D1*
X58779Y55774D1*
X58775D1*
X58772Y55773D1*
X58767Y55772D1*
X58763D1*
X58758Y55771D1*
X58754D1*
X58748Y55770D1*
X58743D1*
X58738D1*
X58732Y55769D1*
X58727D1*
X58721D1*
X58715D1*
X58710D1*
X58704D1*
X58698D1*
X58693D1*
X58687Y55770D1*
X58682D1*
X58676D1*
X58671Y55771D1*
X58666D1*
X58662Y55772D1*
X58657D1*
X58653Y55773D1*
X58649Y55774D1*
X58646D1*
X58643Y55775D1*
X58640Y55776D1*
X58637Y55777D1*
X58635Y55778D1*
X58633Y55779D1*
X58632D1*
X58631Y55780D1*
X58630Y55781D1*
Y55782D1*
X58768Y40034D2*
G02X58768Y40034I13J0D01*
G01*
X56813D2*
D14*
X58782D1*
X58768D2*
D17*
G02X58768Y40034I13J0D01*
G01*
X56800D2*
G02X56800Y40034I13J0D01*
G01*
X56813Y53814D2*
D14*
Y40034D1*
X56800D2*
D17*
G02X56800Y40034I13J0D01*
G01*
Y53814D2*
G02X56800Y53814I13J0D01*
G01*
X52876D2*
D14*
X56813D1*
X56800D2*
D17*
G02X56800Y53814I13J0D01*
G01*
X52863D2*
G02X52863Y53814I13J0D01*
G01*
X52876Y57751D2*
D14*
Y53814D1*
X52863D2*
D17*
G02X52863Y53814I13J0D01*
G01*
Y57751D2*
G02X52863Y57751I13J0D01*
G01*
X39096D2*
D14*
X52876D1*
X52863D2*
D17*
G02X52863Y57751I13J0D01*
G01*
X39083D2*
G02X39083Y57751I13J0D01*
G01*
X39096Y55782D2*
D14*
Y57751D1*
X39083D2*
D17*
G02X39083Y57751I13J0D01*
G01*
Y55782D2*
G02X39083Y55782I13J0D01*
G01*
X50908D2*
D14*
X39096D1*
X39083D2*
D17*
G02X39083Y55782I13J0D01*
G01*
X50894D2*
G02X50894Y55782I13J0D01*
G01*
X50908Y51845D2*
D14*
Y55782D1*
X50894D2*
D17*
G02X50894Y55782I13J0D01*
G01*
Y51845D2*
G02X50894Y51845I13J0D01*
G01*
X54845D2*
D14*
X50908D1*
X50894D2*
D17*
G02X50894Y51845I13J0D01*
G01*
X54831D2*
G02X54831Y51845I13J0D01*
G01*
X54845Y40034D2*
D14*
Y51845D1*
X54831D2*
D17*
G02X54831Y51845I13J0D01*
G01*
Y40034D2*
G02X54831Y40034I13J0D01*
G01*
X52876D2*
D14*
X54845D1*
X54831D2*
D17*
G02X54831Y40034I13J0D01*
G01*
X52863D2*
G02X52863Y40034I13J0D01*
G01*
X52876Y49877D2*
D14*
Y40034D1*
X52863D2*
D17*
G02X52863Y40034I13J0D01*
G01*
Y49877D2*
G02X52863Y49877I13J0D01*
G01*
X48939D2*
D14*
X52876D1*
X52863D2*
D17*
G02X52863Y49877I13J0D01*
G01*
X48926D2*
G02X48926Y49877I13J0D01*
G01*
X48939Y53814D2*
D14*
Y49877D1*
X48926D2*
D17*
G02X48926Y49877I13J0D01*
G01*
Y53814D2*
G02X48926Y53814I13J0D01*
G01*
X39096D2*
D14*
X48939D1*
X48926D2*
D17*
G02X48926Y53814I13J0D01*
G01*
X39083D2*
G02X39083Y53814I13J0D01*
G01*
X39096Y51845D2*
D14*
Y53814D1*
X39083D2*
D17*
G02X39083Y53814I13J0D01*
G01*
Y51845D2*
G02X39083Y51845I13J0D01*
G01*
X46971D2*
D14*
X39096D1*
X39083D2*
D17*
G02X39083Y51845I13J0D01*
G01*
X46957D2*
G02X46957Y51845I13J0D01*
G01*
X46971Y47908D2*
D14*
Y51845D1*
X46957D2*
D17*
G02X46957Y51845I13J0D01*
G01*
Y47908D2*
G02X46957Y47908I13J0D01*
G01*
X50908D2*
D14*
X46971D1*
X46957D2*
D17*
G02X46957Y47908I13J0D01*
G01*
X50894D2*
G02X50894Y47908I13J0D01*
G01*
X50908Y40034D2*
D14*
Y47908D1*
X50894D2*
D17*
G02X50894Y47908I13J0D01*
G01*
Y40034D2*
G02X50894Y40034I13J0D01*
G01*
X48939D2*
D14*
X50908D1*
X50894D2*
D17*
G02X50894Y40034I13J0D01*
G01*
X48926D2*
G02X48926Y40034I13J0D01*
G01*
X48939Y45940D2*
D14*
Y40034D1*
X48926D2*
D17*
G02X48926Y40034I13J0D01*
G01*
Y45940D2*
G02X48926Y45940I13J0D01*
G01*
X45002D2*
D14*
X48939D1*
X48926D2*
D17*
G02X48926Y45940I13J0D01*
G01*
X44989D2*
G02X44989Y45940I13J0D01*
G01*
X45002Y49877D2*
D14*
Y45940D1*
X44989D2*
D17*
G02X44989Y45940I13J0D01*
G01*
Y49877D2*
G02X44989Y49877I13J0D01*
G01*
X39096D2*
D14*
X45002D1*
X44989D2*
D17*
G02X44989Y49877I13J0D01*
G01*
X39083D2*
G02X39083Y49877I13J0D01*
G01*
X39096Y47908D2*
D14*
Y49877D1*
X39083D2*
D17*
G02X39083Y49877I13J0D01*
G01*
Y47908D2*
G02X39083Y47908I13J0D01*
G01*
X43034D2*
D14*
X39096D1*
X39083D2*
D17*
G02X39083Y47908I13J0D01*
G01*
X43020D2*
G02X43020Y47908I13J0D01*
G01*
X43034Y43971D2*
D14*
Y47908D1*
X43020D2*
D17*
G02X43020Y47908I13J0D01*
G01*
Y43971D2*
G02X43020Y43971I13J0D01*
G01*
X46971D2*
D14*
X43034D1*
X43020D2*
D17*
G02X43020Y43971I13J0D01*
G01*
X46957D2*
G02X46957Y43971I13J0D01*
G01*
X46971Y40034D2*
D14*
Y43971D1*
X46957D2*
D17*
G02X46957Y43971I13J0D01*
G01*
Y40034D2*
G02X46957Y40034I13J0D01*
G01*
X45002D2*
D14*
X46971D1*
X46957D2*
D17*
G02X46957Y40034I13J0D01*
G01*
X44989D2*
G02X44989Y40034I13J0D01*
G01*
X45002Y42003D2*
D14*
Y40034D1*
X44989D2*
D17*
G02X44989Y40034I13J0D01*
G01*
Y42003D2*
G02X44989Y42003I13J0D01*
G01*
X41065D2*
D14*
X45002D1*
X44989D2*
D17*
G02X44989Y42003I13J0D01*
G01*
X41052D2*
G02X41052Y42003I13J0D01*
G01*
X41065Y45940D2*
D14*
Y42003D1*
X41052D2*
D17*
G02X41052Y42003I13J0D01*
G01*
Y45940D2*
G02X41052Y45940I13J0D01*
G01*
X39096D2*
D14*
X41065D1*
X41052D2*
D17*
G02X41052Y45940I13J0D01*
G01*
X39083D2*
G02X39083Y45940I13J0D01*
G01*
X39096Y40034D2*
D14*
Y45940D1*
X39083D2*
D17*
G02X39083Y45940I13J0D01*
G01*
Y40034D2*
G02X39083Y40034I13J0D01*
G01*
X43034D2*
D14*
X39096D1*
X39083D2*
D17*
G02X39083Y40034I13J0D01*
G01*
X43020D2*
G02X43020Y40034I13J0D01*
G01*
X43034Y38066D2*
D14*
Y40034D1*
X43020D2*
D17*
G02X43020Y40034I13J0D01*
G01*
Y38066D2*
G02X43020Y38066I13J0D01*
G01*
X61256Y38191D2*
D14*
X43034Y38066D1*
X43020D2*
D17*
G02X43020Y38066I13J0D01*
G01*
X11098Y25411D2*
D14*
Y37222D1*
X35843Y39196D2*
D12*
X36830D1*
X37668D2*
X38685D1*
X35843Y39166D2*
X36830D1*
X37668D2*
X38685D1*
X35843Y39136D2*
X36830D1*
X37668D2*
X38685D1*
X35843Y39106D2*
X36830D1*
X37668D2*
X38685D1*
X35843Y39076D2*
X35962D1*
X38565D2*
X38685D1*
X35843Y39046D2*
X35962D1*
X38565D2*
X38685D1*
X35843Y39017D2*
X35962D1*
X38565D2*
X38685D1*
X35843Y38987D2*
X35962D1*
X38565D2*
X38685D1*
X35843Y38957D2*
X35962D1*
X38565D2*
X38685D1*
X35843Y38927D2*
X35962D1*
X38565D2*
X38685D1*
X35843Y38897D2*
X35962D1*
X38565D2*
X38685D1*
X35843Y38867D2*
X35962D1*
X38565D2*
X38685D1*
X35843Y38837D2*
X35962D1*
X38565D2*
X38685D1*
X35843Y38807D2*
X35962D1*
X38565D2*
X38685D1*
X35843Y38777D2*
X35962D1*
X38565D2*
X38685D1*
X35843Y38747D2*
X35962D1*
X38565D2*
X38685D1*
X35843Y38717D2*
X35962D1*
X38565D2*
X38685D1*
X35843Y38687D2*
X35962D1*
X38565D2*
X38685D1*
X35843Y38657D2*
X35962D1*
X38565D2*
X38685D1*
X35843Y38628D2*
X35962D1*
X38565D2*
X38685D1*
X35843Y38598D2*
X35962D1*
X38565D2*
X38685D1*
X35843Y38568D2*
X35962D1*
X37159D2*
X37578D1*
X38565D2*
X38685D1*
X35843Y38538D2*
X35962D1*
X37074D2*
X37592D1*
X38565D2*
X38685D1*
X35843Y38508D2*
X35962D1*
X37006D2*
X37600D1*
X38565D2*
X38685D1*
X35843Y38478D2*
X35962D1*
X36958D2*
X37605D1*
X38565D2*
X38685D1*
X36922Y38448D2*
X37201D1*
X37458D2*
X37607D1*
X38565D2*
X38685D1*
X36907Y38418D2*
X37137D1*
X37458D2*
X37608D1*
X38565D2*
X38685D1*
X36897Y38388D2*
X37086D1*
X37458D2*
X37608D1*
X36893Y38358D2*
X37060D1*
X37458D2*
X37608D1*
X36891Y38328D2*
X37049D1*
X37458D2*
X37608D1*
X36890Y38298D2*
X37045D1*
X37458D2*
X37608D1*
X36891Y38268D2*
X37045D1*
X37458D2*
X37608D1*
X36896Y38239D2*
X37056D1*
X37458D2*
X37608D1*
X36908Y38209D2*
X37088D1*
X37458D2*
X37608D1*
X36928Y38179D2*
X37183D1*
X37458D2*
X37608D1*
X36953Y38149D2*
X37333D1*
X37458D2*
X37608D1*
X36980Y38119D2*
X37608D1*
X36940Y38089D2*
X37608D1*
X36902Y38059D2*
X37608D1*
X36871Y38029D2*
X37608D1*
X36849Y37999D2*
X37075D1*
X37458D2*
X37608D1*
X36834Y37969D2*
X37029D1*
X37458D2*
X37608D1*
X36822Y37939D2*
X36994D1*
X37458D2*
X37608D1*
X36812Y37909D2*
X36968D1*
X37458D2*
X37608D1*
X36806Y37880D2*
X36960D1*
X37458D2*
X37608D1*
X36804Y37850D2*
X36956D1*
X37458D2*
X37608D1*
X35843Y37820D2*
X35962D1*
X36806D2*
X36969D1*
X37458D2*
X37608D1*
X35843Y37790D2*
X35962D1*
X36814D2*
X36988D1*
X37458D2*
X37608D1*
X35843Y37760D2*
X35962D1*
X36826D2*
X37028D1*
X37458D2*
X37608D1*
X38565D2*
X38685D1*
X35843Y37730D2*
X35962D1*
X36844D2*
X37145D1*
X37458D2*
X37608D1*
X38565D2*
X38685D1*
X35843Y37700D2*
X35962D1*
X36869D2*
X37326D1*
X37458D2*
X37608D1*
X38565D2*
X38685D1*
X35843Y37670D2*
X35962D1*
X36906D2*
X37607D1*
X38565D2*
X38685D1*
X35843Y37640D2*
X35962D1*
X36963D2*
X37602D1*
X38565D2*
X38685D1*
X35843Y37610D2*
X35962D1*
X37041D2*
X37592D1*
X38565D2*
X38685D1*
X35843Y37580D2*
X35962D1*
X37129D2*
X37578D1*
X38565D2*
X38685D1*
X35843Y37550D2*
X35962D1*
X38565D2*
X38685D1*
X35843Y37520D2*
X35962D1*
X38565D2*
X38685D1*
X35843Y37491D2*
X35962D1*
X38565D2*
X38685D1*
X35843Y37461D2*
X35962D1*
X38565D2*
X38685D1*
X35843Y37431D2*
X35962D1*
X38565D2*
X38685D1*
X35843Y37401D2*
X35962D1*
X38565D2*
X38685D1*
X35843Y37371D2*
X35962D1*
X38565D2*
X38685D1*
X35843Y37341D2*
X35962D1*
X38565D2*
X38685D1*
X35843Y37311D2*
X35962D1*
X38565D2*
X38685D1*
X35843Y37281D2*
X35962D1*
X38565D2*
X38685D1*
X35843Y37251D2*
X35962D1*
X38565D2*
X38685D1*
X35843Y37221D2*
X35962D1*
X38565D2*
X38685D1*
X35843Y37191D2*
X35962D1*
X38565D2*
X38685D1*
X35843Y37161D2*
X35962D1*
X38565D2*
X38685D1*
X35843Y37131D2*
X35962D1*
X38565D2*
X38685D1*
X35843Y37102D2*
X36770D1*
X37608D2*
X38685D1*
X35843Y37072D2*
X36770D1*
X37608D2*
X38685D1*
X35843Y37042D2*
X36770D1*
X37608D2*
X38685D1*
X35843Y37012D2*
X36770D1*
X37608D2*
X38685D1*
X36587Y52700D2*
X36677D1*
X37724D2*
D3*
X36587Y52670D2*
X36691D1*
X37687D2*
X37754D1*
X36587Y52640D2*
X36700D1*
X37656D2*
X37754D1*
X36587Y52610D2*
X36704D1*
X37156D2*
X37216D1*
X37645D2*
X37754D1*
X36587Y52580D2*
X36706D1*
X37156D2*
X37243D1*
X37639D2*
X37754D1*
X36587Y52551D2*
X36707D1*
X37156D2*
X37264D1*
X37636D2*
X37754D1*
X36587Y52521D2*
X36707D1*
X37156D2*
X37270D1*
X37635D2*
X37754D1*
X36587Y52491D2*
X36707D1*
X37156D2*
X37273D1*
X37635D2*
X37754D1*
X36587Y52461D2*
X36707D1*
X37156D2*
X37275D1*
X37635D2*
X37754D1*
X36587Y52431D2*
X36707D1*
X37156D2*
X37275D1*
X37635D2*
X37754D1*
X36587Y52401D2*
X36707D1*
X37156D2*
X37275D1*
X37635D2*
X37754D1*
X36587Y52371D2*
X36707D1*
X37156D2*
X37276D1*
X37635D2*
X37754D1*
X36587Y52341D2*
X36707D1*
X37156D2*
X37276D1*
X37635D2*
X37754D1*
X36587Y52311D2*
X36707D1*
X37156D2*
X37276D1*
X37635D2*
X37754D1*
X36587Y52281D2*
X36707D1*
X37156D2*
X37276D1*
X37635D2*
X37754D1*
X36587Y52251D2*
X36707D1*
X37156D2*
X37276D1*
X37635D2*
X37754D1*
X36587Y52221D2*
X36707D1*
X37156D2*
X37276D1*
X37635D2*
X37754D1*
X36587Y52191D2*
X36707D1*
X37156D2*
X37276D1*
X37635D2*
X37754D1*
X36587Y52162D2*
X36707D1*
X37156D2*
X37276D1*
X37635D2*
X37754D1*
X36587Y52132D2*
X36707D1*
X37156D2*
X37276D1*
X37635D2*
X37754D1*
X36587Y52102D2*
X36707D1*
X37156D2*
X37276D1*
X37635D2*
X37754D1*
X36587Y52072D2*
X37754D1*
X36587Y52042D2*
X37753D1*
X36587Y52012D2*
X37748D1*
X36587Y51982D2*
X37738D1*
X36587Y51952D2*
X37724D1*
X37635Y51713D2*
X37754D1*
X37635Y51683D2*
X37754D1*
X37635Y51653D2*
X37754D1*
X37635Y51623D2*
X37754D1*
X37635Y51593D2*
X37754D1*
X37635Y51563D2*
X37754D1*
X37635Y51533D2*
X37754D1*
X37635Y51503D2*
X37754D1*
X37635Y51473D2*
X37754D1*
X37635Y51443D2*
X37754D1*
X37635Y51414D2*
X37754D1*
X37635Y51384D2*
X37754D1*
X37635Y51354D2*
X37754D1*
X37635Y51324D2*
X37754D1*
X36587Y51294D2*
X37754D1*
X36587Y51264D2*
X37754D1*
X36587Y51234D2*
X37754D1*
X36587Y51204D2*
X37754D1*
X36587Y51174D2*
X37754D1*
X36587Y51144D2*
X37754D1*
X37635Y51114D2*
X37754D1*
X37635Y51084D2*
X37754D1*
X37635Y51054D2*
X37754D1*
X37635Y51025D2*
X37754D1*
X37635Y50995D2*
X37754D1*
X37635Y50965D2*
X37754D1*
X37635Y50935D2*
X37754D1*
X37635Y50905D2*
X37754D1*
X37635Y50875D2*
X37754D1*
X37635Y50845D2*
X37754D1*
X37635Y50815D2*
X37754D1*
X37635Y50785D2*
X37754D1*
X37635Y50755D2*
X37754D1*
X37635Y50725D2*
X37754D1*
X36587Y50636D2*
X36617D1*
X36587Y50606D2*
X36694D1*
X36587Y50576D2*
X36774D1*
X36589Y50546D2*
X36855D1*
X36592Y50516D2*
X36933D1*
X36611Y50486D2*
X37008D1*
X36655Y50456D2*
X37078D1*
X36709Y50426D2*
X37146D1*
X36769Y50396D2*
X37211D1*
X36826Y50366D2*
X37275D1*
X36876Y50336D2*
X37342D1*
X36900Y50306D2*
X37417D1*
X36909Y50276D2*
X37499D1*
X36913Y50247D2*
X37006D1*
X37115D2*
X37578D1*
X36915Y50217D2*
X37006D1*
X37214D2*
X37645D1*
X36916Y50187D2*
X37006D1*
X37301D2*
X37695D1*
X36916Y50157D2*
X37006D1*
X37378D2*
X37731D1*
X36916Y50127D2*
X37006D1*
X37446D2*
X37743D1*
X36916Y50097D2*
X37006D1*
X37506D2*
X37750D1*
X36916Y50067D2*
X37006D1*
X37558D2*
X37752D1*
X36916Y50037D2*
X37006D1*
X37605D2*
X37752D1*
X36916Y50007D2*
X37006D1*
X37527D2*
X37749D1*
X36916Y49977D2*
X37006D1*
X37445D2*
X37731D1*
X36916Y49947D2*
X37007D1*
X37360D2*
X37687D1*
X36916Y49917D2*
X37008D1*
X37278D2*
X37633D1*
X36916Y49888D2*
X37022D1*
X37196D2*
X37575D1*
X36916Y49858D2*
X37069D1*
X37105D2*
X37514D1*
X36914Y49828D2*
X37451D1*
X36908Y49798D2*
X37387D1*
X36885Y49768D2*
X37323D1*
X36835Y49738D2*
X37257D1*
X36771Y49708D2*
X37186D1*
X36703Y49678D2*
X37107D1*
X36648Y49648D2*
X37023D1*
X36609Y49618D2*
X36941D1*
X36598Y49588D2*
X36865D1*
X36592Y49558D2*
X36794D1*
X36589Y49528D2*
X36726D1*
X36588Y49499D2*
X36657D1*
X36587Y49469D2*
D3*
Y49259D2*
X37724D1*
X36587Y49229D2*
X37735D1*
X36587Y49199D2*
X37744D1*
X36587Y49169D2*
X37749D1*
X36587Y49139D2*
X37752D1*
X36587Y49110D2*
X37753D1*
X36587Y49080D2*
X37753D1*
X37611Y49050D2*
X37749D1*
X37533Y49020D2*
X37740D1*
X37463Y48990D2*
X37726D1*
X37399Y48960D2*
X37693D1*
X37337Y48930D2*
X37650D1*
X37276Y48900D2*
X37599D1*
X37216Y48870D2*
X37544D1*
X37156Y48840D2*
X37488D1*
X37094Y48810D2*
X37433D1*
X37026Y48780D2*
X37376D1*
X36952Y48751D2*
X37313D1*
X36878Y48721D2*
X37244D1*
X36811Y48691D2*
X37172D1*
X36750Y48661D2*
X37104D1*
X36694Y48631D2*
X37040D1*
X36648Y48601D2*
X36978D1*
X36612Y48571D2*
X36920D1*
X36599Y48541D2*
X36869D1*
X36593Y48511D2*
X36829D1*
X36590Y48481D2*
X36797D1*
X36599Y48451D2*
X36887D1*
X36631Y48421D2*
X36969D1*
X36676Y48391D2*
X37041D1*
X36731Y48362D2*
X37107D1*
X36792Y48332D2*
X37169D1*
X36854Y48302D2*
X37230D1*
X36915Y48272D2*
X37290D1*
X36976Y48242D2*
X37350D1*
X37036Y48212D2*
X37412D1*
X37098Y48182D2*
X37477D1*
X37166Y48152D2*
X37548D1*
X37240Y48122D2*
X37618D1*
X37315Y48092D2*
X37670D1*
X37386Y48062D2*
X37709D1*
X37453Y48032D2*
X37727D1*
X37513Y48002D2*
X37740D1*
X37564Y47973D2*
X37748D1*
X37587Y47943D2*
X37752D1*
X36587Y47913D2*
X37753D1*
X36587Y47883D2*
X37754D1*
X36587Y47853D2*
X37754D1*
X36587Y47823D2*
X37754D1*
X36587Y47793D2*
X37754D1*
X37036Y47464D2*
X37335D1*
X36950Y47434D2*
X37418D1*
X36878Y47404D2*
X37486D1*
X36822Y47374D2*
X37538D1*
X36778Y47344D2*
X37580D1*
X36742Y47314D2*
X37615D1*
X36713Y47284D2*
X37644D1*
X36686Y47254D2*
X37043D1*
X37359D2*
X37669D1*
X36660Y47225D2*
X36942D1*
X37435D2*
X37692D1*
X36636Y47195D2*
X36861D1*
X37499D2*
X37709D1*
X36616Y47165D2*
X36802D1*
X37547D2*
X37722D1*
X36602Y47135D2*
X36763D1*
X37582D2*
X37733D1*
X36594Y47105D2*
X36738D1*
X37599D2*
X37743D1*
X36590Y47075D2*
X36721D1*
X37613D2*
X37750D1*
X36587Y47045D2*
X36709D1*
X37628D2*
X37757D1*
X36583Y47015D2*
X36698D1*
X37641D2*
X37766D1*
X36575Y46985D2*
X36688D1*
X37652D2*
X37774D1*
X36568Y46955D2*
X36682D1*
X37659D2*
X37779D1*
X36562Y46925D2*
X36679D1*
X37662D2*
X37782D1*
X36560Y46895D2*
X36678D1*
X37664D2*
X37783D1*
X36558Y46865D2*
X36677D1*
X37664D2*
X37784D1*
X36558Y46836D2*
X36677D1*
X37664D2*
X37784D1*
X36558Y46806D2*
X36677D1*
X37664D2*
X37783D1*
X36559Y46776D2*
X36678D1*
X37663D2*
X37779D1*
X36562Y46746D2*
X36682D1*
X37659D2*
X37772D1*
X36570Y46716D2*
X36689D1*
X37651D2*
X37764D1*
X36577Y46686D2*
X36697D1*
X37640D2*
X37758D1*
X36583Y46656D2*
X36705D1*
X37626D2*
X37751D1*
X36586Y46626D2*
X36716D1*
X37610D2*
X37743D1*
X36592Y46596D2*
X36737D1*
X37588D2*
X37734D1*
X36600Y46566D2*
X36767D1*
X37559D2*
X37723D1*
X36613Y46536D2*
X36806D1*
X37523D2*
X37709D1*
X36630Y46506D2*
X36856D1*
X37478D2*
X37692D1*
X36648Y46476D2*
X36914D1*
X37424D2*
X37674D1*
X36668Y46447D2*
X36975D1*
X37365D2*
X37653D1*
X36688Y46417D2*
X37628D1*
X36713Y46387D2*
X37597D1*
X36742Y46357D2*
X37560D1*
X36780Y46327D2*
X37519D1*
X36829Y46297D2*
X37473D1*
X36887Y46267D2*
X37425D1*
X37635Y46088D2*
X37754D1*
X37635Y46058D2*
X37754D1*
X37635Y46028D2*
X37754D1*
X37635Y45998D2*
X37754D1*
X37635Y45968D2*
X37754D1*
X37635Y45938D2*
X37754D1*
X37635Y45908D2*
X37754D1*
X37635Y45878D2*
X37754D1*
X37635Y45848D2*
X37754D1*
X37635Y45818D2*
X37754D1*
X37635Y45788D2*
X37754D1*
X37635Y45758D2*
X37754D1*
X37635Y45728D2*
X37754D1*
X37635Y45699D2*
X37754D1*
X36587Y45669D2*
X37754D1*
X36587Y45639D2*
X37754D1*
X36587Y45609D2*
X37754D1*
X36587Y45579D2*
X37754D1*
X36587Y45549D2*
X37754D1*
X36587Y45519D2*
X37754D1*
X37635Y45489D2*
X37754D1*
X37635Y45459D2*
X37754D1*
X37635Y45429D2*
X37754D1*
X37635Y45399D2*
X37754D1*
X37635Y45369D2*
X37754D1*
X37635Y45339D2*
X37754D1*
X37635Y45310D2*
X37754D1*
X37635Y45280D2*
X37754D1*
X37635Y45250D2*
X37754D1*
X37635Y45220D2*
X37754D1*
X37635Y45190D2*
X37754D1*
X37635Y45160D2*
X37754D1*
X37635Y45130D2*
X37754D1*
X37635Y45100D2*
X37754D1*
X36916Y44891D2*
X37724D1*
X36845Y44861D2*
X37738D1*
X36788Y44831D2*
X37747D1*
X36742Y44801D2*
X37751D1*
X36700Y44771D2*
X37753D1*
X36664Y44741D2*
X37754D1*
X36636Y44711D2*
X36863D1*
X36616Y44681D2*
X36815D1*
X36602Y44651D2*
X36776D1*
X36594Y44621D2*
X36747D1*
X36590Y44591D2*
X36726D1*
X36587Y44562D2*
X36711D1*
X36583Y44532D2*
X36699D1*
X36575Y44502D2*
X36689D1*
X36568Y44472D2*
X36683D1*
X36562Y44442D2*
X36679D1*
X36560Y44412D2*
X36678D1*
X36558Y44382D2*
X36677D1*
X36558Y44352D2*
X36677D1*
X36558Y44322D2*
X36678D1*
X36559Y44292D2*
X36682D1*
X36562Y44262D2*
X36689D1*
X36570Y44232D2*
X36698D1*
X36577Y44202D2*
X36710D1*
X36584Y44173D2*
X36725D1*
X36590Y44143D2*
X36758D1*
X36600Y44113D2*
X36802D1*
X36613Y44083D2*
X36860D1*
X36631Y44053D2*
X36930D1*
X36653Y44023D2*
X37754D1*
X36681Y43993D2*
X37754D1*
X36714Y43963D2*
X37754D1*
X36756Y43933D2*
X37754D1*
X36804Y43903D2*
X37754D1*
X36857Y43873D2*
X37754D1*
X36587Y43634D2*
X36617D1*
X36587Y43604D2*
X36683D1*
X36587Y43574D2*
X36752D1*
X36589Y43544D2*
X36832D1*
X36592Y43514D2*
X36918D1*
X36611Y43484D2*
X36999D1*
X36655Y43454D2*
X37075D1*
X36709Y43425D2*
X37145D1*
X36769Y43395D2*
X37211D1*
X36826Y43365D2*
X37274D1*
X36876Y43335D2*
X37339D1*
X36900Y43305D2*
X37406D1*
X36909Y43275D2*
X37477D1*
X36913Y43245D2*
X37006D1*
X37147D2*
X37555D1*
X36915Y43215D2*
X37006D1*
X37215D2*
X37629D1*
X36916Y43185D2*
X37006D1*
X37296D2*
X37686D1*
X36916Y43155D2*
X37006D1*
X37374D2*
X37728D1*
X36916Y43125D2*
X37006D1*
X37444D2*
X37742D1*
X36916Y43095D2*
X37006D1*
X37505D2*
X37749D1*
X36916Y43065D2*
X37006D1*
X37557D2*
X37752D1*
X36916Y43036D2*
X37006D1*
X37605D2*
X37752D1*
X36916Y43006D2*
X37006D1*
X37534D2*
X37748D1*
X36916Y42976D2*
X37006D1*
X37459D2*
X37740D1*
X36916Y42946D2*
X37007D1*
X37375D2*
X37715D1*
X36916Y42916D2*
X37008D1*
X37289D2*
X37658D1*
X36916Y42886D2*
X37022D1*
X37202D2*
X37591D1*
X36916Y42856D2*
X37069D1*
X37108D2*
X37523D1*
X36914Y42826D2*
X37455D1*
X36908Y42796D2*
X37389D1*
X36879Y42766D2*
X37323D1*
X36834Y42736D2*
X37257D1*
X36774Y42706D2*
X37188D1*
X36710Y42676D2*
X37117D1*
X36656Y42647D2*
X37045D1*
X36615Y42617D2*
X36971D1*
X36600Y42587D2*
X36891D1*
X36593Y42557D2*
X36810D1*
X36589Y42527D2*
X36734D1*
X36588Y42497D2*
X36661D1*
X36587Y42467D2*
D3*
X37006Y42317D2*
X37036D1*
X36992Y42288D2*
X37050D1*
X36984Y42258D2*
X37059D1*
X36980Y42228D2*
X37063D1*
X36978Y42198D2*
X37065D1*
X36977Y42168D2*
X37066D1*
X36977Y42138D2*
X37066D1*
X36976Y42108D2*
X37066D1*
X36976Y42078D2*
X37066D1*
X36976Y42048D2*
X37066D1*
X36976Y42018D2*
X37066D1*
X36976Y41988D2*
X37066D1*
X36976Y41958D2*
X37066D1*
X36976Y41928D2*
X37066D1*
X36976Y41899D2*
X37066D1*
X36976Y41869D2*
X37066D1*
X36976Y41839D2*
X37066D1*
X36797Y41629D2*
X37006D1*
X36761Y41599D2*
X37046D1*
X36730Y41569D2*
X37084D1*
X36703Y41539D2*
X37115D1*
X37395D2*
X37515D1*
X36679Y41510D2*
X37137D1*
X37356D2*
X37572D1*
X36658Y41480D2*
X37155D1*
X37320D2*
X37619D1*
X36638Y41450D2*
X37177D1*
X37287D2*
X37657D1*
X36618Y41420D2*
X36793D1*
X37011D2*
X37223D1*
X37253D2*
X37686D1*
X36604Y41390D2*
X36761D1*
X37047D2*
X37708D1*
X36595Y41360D2*
X36736D1*
X37080D2*
X37408D1*
X37533D2*
X37717D1*
X36590Y41330D2*
X36717D1*
X37104D2*
X37348D1*
X37569D2*
X37722D1*
X36589Y41300D2*
X36712D1*
X37121D2*
X37304D1*
X37593D2*
X37728D1*
X36588Y41270D2*
X36709D1*
X37134D2*
X37288D1*
X37610D2*
X37736D1*
X36588Y41240D2*
X36708D1*
X37144D2*
X37276D1*
X37622D2*
X37744D1*
X36587Y41210D2*
X36707D1*
X37150D2*
X37266D1*
X37629D2*
X37749D1*
X36587Y41180D2*
X36707D1*
X37154D2*
X37257D1*
X37632D2*
X37752D1*
X36587Y41151D2*
X36707D1*
X37155D2*
X37251D1*
X37634D2*
X37753D1*
X36587Y41121D2*
X36707D1*
X37156D2*
X37248D1*
X37634D2*
X37754D1*
X36587Y41091D2*
X36707D1*
X37156D2*
X37246D1*
X37634D2*
X37754D1*
X36587Y41061D2*
X36707D1*
X37156D2*
X37246D1*
X37635D2*
X37754D1*
X36587Y41031D2*
X36707D1*
X37156D2*
X37246D1*
X37635D2*
X37754D1*
X36587Y41001D2*
X36707D1*
X37156D2*
X37246D1*
X37635D2*
X37754D1*
X36587Y40971D2*
X36707D1*
X37156D2*
X37246D1*
X37635D2*
X37754D1*
X36587Y40941D2*
X36707D1*
X37156D2*
X37246D1*
X37635D2*
X37754D1*
X36587Y40911D2*
X36707D1*
X37156D2*
X37246D1*
X37635D2*
X37754D1*
X36587Y40881D2*
X37754D1*
X36587Y40851D2*
X37754D1*
X36587Y40821D2*
X37754D1*
X36587Y40791D2*
X37754D1*
X36587Y40762D2*
X37754D1*
X35843Y39196D2*
Y39166D1*
Y39136D1*
Y39106D1*
Y39076D1*
Y39046D1*
Y39017D1*
Y38987D1*
Y38957D1*
Y38927D1*
Y38897D1*
Y38867D1*
Y38837D1*
Y38807D1*
Y38777D1*
Y38747D1*
Y38717D1*
Y38687D1*
Y38657D1*
Y38628D1*
Y38598D1*
Y38568D1*
Y38538D1*
Y38508D1*
Y38478D1*
X36830Y39196D2*
Y39166D1*
Y39136D1*
Y39106D1*
X37668Y39196D2*
Y39166D1*
Y39136D1*
Y39106D1*
X38685Y39196D2*
Y39166D1*
Y39136D1*
Y39106D1*
Y39076D1*
Y39046D1*
Y39017D1*
Y38987D1*
Y38957D1*
Y38927D1*
Y38897D1*
Y38867D1*
Y38837D1*
Y38807D1*
Y38777D1*
Y38747D1*
Y38717D1*
Y38687D1*
Y38657D1*
Y38628D1*
Y38598D1*
Y38568D1*
Y38538D1*
Y38508D1*
Y38478D1*
Y38448D1*
Y38418D1*
X35962Y39106D2*
Y39076D1*
Y39046D1*
Y39017D1*
Y38987D1*
Y38957D1*
Y38927D1*
Y38897D1*
Y38867D1*
Y38837D1*
Y38807D1*
Y38777D1*
Y38747D1*
Y38717D1*
Y38687D1*
Y38657D1*
Y38628D1*
Y38598D1*
Y38568D1*
Y38538D1*
Y38508D1*
Y38478D1*
X38565Y39106D2*
Y39076D1*
Y39046D1*
Y39017D1*
Y38987D1*
Y38957D1*
Y38927D1*
Y38897D1*
Y38867D1*
Y38837D1*
Y38807D1*
Y38777D1*
Y38747D1*
Y38717D1*
Y38687D1*
Y38657D1*
Y38628D1*
Y38598D1*
Y38568D1*
Y38538D1*
Y38508D1*
Y38478D1*
Y38448D1*
Y38418D1*
X37159Y38568D2*
X37074Y38538D1*
X37006Y38508D1*
X36958Y38478D1*
X36922Y38448D1*
X36907Y38418D1*
X36897Y38388D1*
X36893Y38358D1*
X36891Y38328D1*
X36890Y38298D1*
X36891Y38268D1*
X36896Y38239D1*
X36908Y38209D1*
X36928Y38179D1*
X36953Y38149D1*
X36980Y38119D1*
X36940Y38089D1*
X36902Y38059D1*
X36871Y38029D1*
X36849Y37999D1*
X36834Y37969D1*
X36822Y37939D1*
X36812Y37909D1*
X36806Y37880D1*
X36804Y37850D1*
X36806Y37820D1*
X36814Y37790D1*
X36826Y37760D1*
X36844Y37730D1*
X36869Y37700D1*
X36906Y37670D1*
X36963Y37640D1*
X37041Y37610D1*
X37129Y37580D1*
X37578Y38568D2*
X37592Y38538D1*
X37600Y38508D1*
X37605Y38478D1*
X37607Y38448D1*
X37608Y38418D1*
Y38388D1*
Y38358D1*
Y38328D1*
Y38298D1*
Y38268D1*
Y38239D1*
Y38209D1*
Y38179D1*
Y38149D1*
Y38119D1*
Y38089D1*
Y38059D1*
Y38029D1*
Y37999D1*
Y37969D1*
Y37939D1*
Y37909D1*
Y37880D1*
Y37850D1*
Y37820D1*
Y37790D1*
Y37760D1*
Y37730D1*
Y37700D1*
X37607Y37670D1*
X37602Y37640D1*
X37592Y37610D1*
X37578Y37580D1*
X37279Y38478D2*
X37201Y38448D1*
X37137Y38418D1*
X37086Y38388D1*
X37060Y38358D1*
X37049Y38328D1*
X37045Y38298D1*
Y38268D1*
X37056Y38239D1*
X37088Y38209D1*
X37183Y38179D1*
X37333Y38149D1*
X37518Y38119D1*
X37458Y38478D2*
Y38448D1*
Y38418D1*
Y38388D1*
Y38358D1*
Y38328D1*
Y38298D1*
Y38268D1*
Y38239D1*
Y38209D1*
Y38179D1*
Y38149D1*
X37219Y38119D1*
X37129Y38029D2*
X37075Y37999D1*
X37029Y37969D1*
X36994Y37939D1*
X36968Y37909D1*
X36960Y37880D1*
X36956Y37850D1*
X36969Y37820D1*
X36988Y37790D1*
X37028Y37760D1*
X37145Y37730D1*
X37326Y37700D1*
X37548Y37670D1*
X37458Y38029D2*
Y37999D1*
Y37969D1*
Y37939D1*
Y37909D1*
Y37880D1*
Y37850D1*
Y37820D1*
Y37790D1*
Y37760D1*
Y37730D1*
Y37700D1*
X37189Y37670D1*
X35843Y37820D2*
Y37790D1*
Y37760D1*
Y37730D1*
Y37700D1*
Y37670D1*
Y37640D1*
Y37610D1*
Y37580D1*
Y37550D1*
Y37520D1*
Y37491D1*
Y37461D1*
Y37431D1*
Y37401D1*
Y37371D1*
Y37341D1*
Y37311D1*
Y37281D1*
Y37251D1*
Y37221D1*
Y37191D1*
Y37161D1*
Y37131D1*
Y37102D1*
Y37072D1*
Y37042D1*
Y37012D1*
X35962Y37820D2*
Y37790D1*
Y37760D1*
Y37730D1*
Y37700D1*
Y37670D1*
Y37640D1*
Y37610D1*
Y37580D1*
Y37550D1*
Y37520D1*
Y37491D1*
Y37461D1*
Y37431D1*
Y37401D1*
Y37371D1*
Y37341D1*
Y37311D1*
Y37281D1*
Y37251D1*
Y37221D1*
Y37191D1*
Y37161D1*
Y37131D1*
Y37102D1*
X38565Y37760D2*
Y37730D1*
Y37700D1*
Y37670D1*
Y37640D1*
Y37610D1*
Y37580D1*
Y37550D1*
Y37520D1*
Y37491D1*
Y37461D1*
Y37431D1*
Y37401D1*
Y37371D1*
Y37341D1*
Y37311D1*
Y37281D1*
Y37251D1*
Y37221D1*
Y37191D1*
Y37161D1*
Y37131D1*
Y37102D1*
X38685Y37760D2*
Y37730D1*
Y37700D1*
Y37670D1*
Y37640D1*
Y37610D1*
Y37580D1*
Y37550D1*
Y37520D1*
Y37491D1*
Y37461D1*
Y37431D1*
Y37401D1*
Y37371D1*
Y37341D1*
Y37311D1*
Y37281D1*
Y37251D1*
Y37221D1*
Y37191D1*
Y37161D1*
Y37131D1*
Y37102D1*
Y37072D1*
Y37042D1*
Y37012D1*
X36770Y37102D2*
Y37072D1*
Y37042D1*
Y37012D1*
X37608Y37102D2*
Y37072D1*
Y37042D1*
Y37012D1*
X36587Y52700D2*
Y52670D1*
Y52640D1*
Y52610D1*
Y52580D1*
Y52551D1*
Y52521D1*
Y52491D1*
Y52461D1*
Y52431D1*
Y52401D1*
Y52371D1*
Y52341D1*
Y52311D1*
Y52281D1*
Y52251D1*
Y52221D1*
Y52191D1*
Y52162D1*
Y52132D1*
Y52102D1*
Y52072D1*
Y52042D1*
Y52012D1*
Y51982D1*
Y51952D1*
X36677Y52700D2*
X36691Y52670D1*
X36700Y52640D1*
X36704Y52610D1*
X36706Y52580D1*
X36707Y52551D1*
Y52521D1*
Y52491D1*
Y52461D1*
Y52431D1*
Y52401D1*
Y52371D1*
Y52341D1*
Y52311D1*
Y52281D1*
Y52251D1*
Y52221D1*
Y52191D1*
Y52162D1*
Y52132D1*
Y52102D1*
Y52072D1*
X37724Y52700D2*
X37687Y52670D1*
X37656Y52640D1*
X37645Y52610D1*
X37639Y52580D1*
X37636Y52551D1*
X37635Y52521D1*
Y52491D1*
Y52461D1*
Y52431D1*
Y52401D1*
Y52371D1*
Y52341D1*
Y52311D1*
Y52281D1*
Y52251D1*
Y52221D1*
Y52191D1*
Y52162D1*
Y52132D1*
Y52102D1*
X37305Y52072D1*
X37754Y52670D2*
Y52640D1*
Y52610D1*
Y52580D1*
Y52551D1*
Y52521D1*
Y52491D1*
Y52461D1*
Y52431D1*
Y52401D1*
Y52371D1*
Y52341D1*
Y52311D1*
Y52281D1*
Y52251D1*
Y52221D1*
Y52191D1*
Y52162D1*
Y52132D1*
Y52102D1*
Y52072D1*
X37753Y52042D1*
X37748Y52012D1*
X37738Y51982D1*
X37724Y51952D1*
X37156Y52610D2*
Y52580D1*
Y52551D1*
Y52521D1*
Y52491D1*
Y52461D1*
Y52431D1*
Y52401D1*
Y52371D1*
Y52341D1*
Y52311D1*
Y52281D1*
Y52251D1*
Y52221D1*
Y52191D1*
Y52162D1*
Y52132D1*
Y52102D1*
Y52072D1*
X37216Y52610D2*
X37243Y52580D1*
X37264Y52551D1*
X37270Y52521D1*
X37273Y52491D1*
X37275Y52461D1*
Y52431D1*
Y52401D1*
X37276Y52371D1*
Y52341D1*
Y52311D1*
Y52281D1*
Y52251D1*
Y52221D1*
Y52191D1*
Y52162D1*
Y52132D1*
Y52102D1*
X37605Y52072D1*
X37635Y51713D2*
Y51683D1*
Y51653D1*
Y51623D1*
Y51593D1*
Y51563D1*
Y51533D1*
Y51503D1*
Y51473D1*
Y51443D1*
Y51414D1*
Y51384D1*
Y51354D1*
Y51324D1*
Y51294D1*
X37754Y51713D2*
Y51683D1*
Y51653D1*
Y51623D1*
Y51593D1*
Y51563D1*
Y51533D1*
Y51503D1*
Y51473D1*
Y51443D1*
Y51414D1*
Y51384D1*
Y51354D1*
Y51324D1*
Y51294D1*
Y51264D1*
Y51234D1*
Y51204D1*
Y51174D1*
Y51144D1*
Y51114D1*
Y51084D1*
Y51054D1*
Y51025D1*
Y50995D1*
Y50965D1*
Y50935D1*
Y50905D1*
Y50875D1*
Y50845D1*
Y50815D1*
Y50785D1*
Y50755D1*
Y50725D1*
X36587Y51294D2*
Y51264D1*
Y51234D1*
Y51204D1*
Y51174D1*
Y51144D1*
X37635D2*
Y51114D1*
Y51084D1*
Y51054D1*
Y51025D1*
Y50995D1*
Y50965D1*
Y50935D1*
Y50905D1*
Y50875D1*
Y50845D1*
Y50815D1*
Y50785D1*
Y50755D1*
Y50725D1*
X36587Y50636D2*
Y50606D1*
Y50576D1*
X36589Y50546D1*
X36592Y50516D1*
X36611Y50486D1*
X36655Y50456D1*
X36709Y50426D1*
X36769Y50396D1*
X36826Y50366D1*
X36876Y50336D1*
X36900Y50306D1*
X36909Y50276D1*
X36913Y50247D1*
X36915Y50217D1*
X36916Y50187D1*
Y50157D1*
Y50127D1*
Y50097D1*
Y50067D1*
Y50037D1*
Y50007D1*
Y49977D1*
Y49947D1*
Y49917D1*
Y49888D1*
Y49858D1*
X36914Y49828D1*
X36908Y49798D1*
X36885Y49768D1*
X36835Y49738D1*
X36771Y49708D1*
X36703Y49678D1*
X36648Y49648D1*
X36609Y49618D1*
X36598Y49588D1*
X36592Y49558D1*
X36589Y49528D1*
X36588Y49499D1*
X36587Y49469D1*
X36617Y50636D2*
X36694Y50606D1*
X36774Y50576D1*
X36855Y50546D1*
X36933Y50516D1*
X37008Y50486D1*
X37078Y50456D1*
X37146Y50426D1*
X37211Y50396D1*
X37275Y50366D1*
X37342Y50336D1*
X37417Y50306D1*
X37499Y50276D1*
X37578Y50247D1*
X37645Y50217D1*
X37695Y50187D1*
X37731Y50157D1*
X37743Y50127D1*
X37750Y50097D1*
X37752Y50067D1*
Y50037D1*
X37749Y50007D1*
X37731Y49977D1*
X37687Y49947D1*
X37633Y49917D1*
X37575Y49888D1*
X37514Y49858D1*
X37451Y49828D1*
X37387Y49798D1*
X37323Y49768D1*
X37257Y49738D1*
X37186Y49708D1*
X37107Y49678D1*
X37023Y49648D1*
X36941Y49618D1*
X36865Y49588D1*
X36794Y49558D1*
X36726Y49528D1*
X36657Y49499D1*
X36587Y49469D1*
X37006Y50276D2*
Y50247D1*
Y50217D1*
Y50187D1*
Y50157D1*
Y50127D1*
Y50097D1*
Y50067D1*
Y50037D1*
Y50007D1*
Y49977D1*
X37007Y49947D1*
X37008Y49917D1*
X37022Y49888D1*
X37069Y49858D1*
X37126Y49828D1*
X37006Y50276D2*
X37115Y50247D1*
X37214Y50217D1*
X37301Y50187D1*
X37378Y50157D1*
X37446Y50127D1*
X37506Y50097D1*
X37558Y50067D1*
X37605Y50037D1*
X37527Y50007D1*
X37445Y49977D1*
X37360Y49947D1*
X37278Y49917D1*
X37196Y49888D1*
X37105Y49858D1*
X37006Y49828D1*
X36587Y49259D2*
Y49229D1*
Y49199D1*
Y49169D1*
Y49139D1*
Y49110D1*
Y49080D1*
X37724Y49259D2*
X37735Y49229D1*
X37744Y49199D1*
X37749Y49169D1*
X37752Y49139D1*
X37753Y49110D1*
Y49080D1*
X37749Y49050D1*
X37740Y49020D1*
X37726Y48990D1*
X37693Y48960D1*
X37650Y48930D1*
X37599Y48900D1*
X37544Y48870D1*
X37488Y48840D1*
X37433Y48810D1*
X37376Y48780D1*
X37313Y48751D1*
X37244Y48721D1*
X37172Y48691D1*
X37104Y48661D1*
X37040Y48631D1*
X36978Y48601D1*
X36920Y48571D1*
X36869Y48541D1*
X36829Y48511D1*
X36797Y48481D1*
X36887Y48451D1*
X36969Y48421D1*
X37041Y48391D1*
X37107Y48362D1*
X37169Y48332D1*
X37230Y48302D1*
X37290Y48272D1*
X37350Y48242D1*
X37412Y48212D1*
X37477Y48182D1*
X37548Y48152D1*
X37618Y48122D1*
X37670Y48092D1*
X37709Y48062D1*
X37727Y48032D1*
X37740Y48002D1*
X37748Y47973D1*
X37752Y47943D1*
X37753Y47913D1*
X37754Y47883D1*
Y47853D1*
Y47823D1*
Y47793D1*
X37694Y49080D2*
X37611Y49050D1*
X37533Y49020D1*
X37463Y48990D1*
X37399Y48960D1*
X37337Y48930D1*
X37276Y48900D1*
X37216Y48870D1*
X37156Y48840D1*
X37094Y48810D1*
X37026Y48780D1*
X36952Y48751D1*
X36878Y48721D1*
X36811Y48691D1*
X36750Y48661D1*
X36694Y48631D1*
X36648Y48601D1*
X36612Y48571D1*
X36599Y48541D1*
X36593Y48511D1*
X36590Y48481D1*
X36599Y48451D1*
X36631Y48421D1*
X36676Y48391D1*
X36731Y48362D1*
X36792Y48332D1*
X36854Y48302D1*
X36915Y48272D1*
X36976Y48242D1*
X37036Y48212D1*
X37098Y48182D1*
X37166Y48152D1*
X37240Y48122D1*
X37315Y48092D1*
X37386Y48062D1*
X37453Y48032D1*
X37513Y48002D1*
X37564Y47973D1*
X37587Y47943D1*
X37605Y47913D1*
X36587D2*
Y47883D1*
Y47853D1*
Y47823D1*
Y47793D1*
X37036Y47464D2*
X36950Y47434D1*
X36878Y47404D1*
X36822Y47374D1*
X36778Y47344D1*
X36742Y47314D1*
X36713Y47284D1*
X36686Y47254D1*
X36660Y47225D1*
X36636Y47195D1*
X36616Y47165D1*
X36602Y47135D1*
X36594Y47105D1*
X36590Y47075D1*
X36587Y47045D1*
X36583Y47015D1*
X36575Y46985D1*
X36568Y46955D1*
X36562Y46925D1*
X36560Y46895D1*
X36558Y46865D1*
Y46836D1*
Y46806D1*
X36559Y46776D1*
X36562Y46746D1*
X36570Y46716D1*
X36577Y46686D1*
X36583Y46656D1*
X36586Y46626D1*
X36592Y46596D1*
X36600Y46566D1*
X36613Y46536D1*
X36630Y46506D1*
X36648Y46476D1*
X36668Y46447D1*
X36688Y46417D1*
X36713Y46387D1*
X36742Y46357D1*
X36780Y46327D1*
X36829Y46297D1*
X36887Y46267D1*
X37335Y47464D2*
X37418Y47434D1*
X37486Y47404D1*
X37538Y47374D1*
X37580Y47344D1*
X37615Y47314D1*
X37644Y47284D1*
X37669Y47254D1*
X37692Y47225D1*
X37709Y47195D1*
X37722Y47165D1*
X37733Y47135D1*
X37743Y47105D1*
X37750Y47075D1*
X37757Y47045D1*
X37766Y47015D1*
X37774Y46985D1*
X37779Y46955D1*
X37782Y46925D1*
X37783Y46895D1*
X37784Y46865D1*
Y46836D1*
X37783Y46806D1*
X37779Y46776D1*
X37772Y46746D1*
X37764Y46716D1*
X37758Y46686D1*
X37751Y46656D1*
X37743Y46626D1*
X37734Y46596D1*
X37723Y46566D1*
X37709Y46536D1*
X37692Y46506D1*
X37674Y46476D1*
X37653Y46447D1*
X37628Y46417D1*
X37597Y46387D1*
X37560Y46357D1*
X37519Y46327D1*
X37473Y46297D1*
X37425Y46267D1*
X37156Y47284D2*
X37043Y47254D1*
X36942Y47225D1*
X36861Y47195D1*
X36802Y47165D1*
X36763Y47135D1*
X36738Y47105D1*
X36721Y47075D1*
X36709Y47045D1*
X36698Y47015D1*
X36688Y46985D1*
X36682Y46955D1*
X36679Y46925D1*
X36678Y46895D1*
X36677Y46865D1*
Y46836D1*
Y46806D1*
X36678Y46776D1*
X36682Y46746D1*
X36689Y46716D1*
X36697Y46686D1*
X36705Y46656D1*
X36716Y46626D1*
X36737Y46596D1*
X36767Y46566D1*
X36806Y46536D1*
X36856Y46506D1*
X36914Y46476D1*
X36975Y46447D1*
X37036Y46417D1*
X37276Y47284D2*
X37359Y47254D1*
X37435Y47225D1*
X37499Y47195D1*
X37547Y47165D1*
X37582Y47135D1*
X37599Y47105D1*
X37613Y47075D1*
X37628Y47045D1*
X37641Y47015D1*
X37652Y46985D1*
X37659Y46955D1*
X37662Y46925D1*
X37664Y46895D1*
Y46865D1*
Y46836D1*
Y46806D1*
X37663Y46776D1*
X37659Y46746D1*
X37651Y46716D1*
X37640Y46686D1*
X37626Y46656D1*
X37610Y46626D1*
X37588Y46596D1*
X37559Y46566D1*
X37523Y46536D1*
X37478Y46506D1*
X37424Y46476D1*
X37365Y46447D1*
X37305Y46417D1*
X37635Y46088D2*
Y46058D1*
Y46028D1*
Y45998D1*
Y45968D1*
Y45938D1*
Y45908D1*
Y45878D1*
Y45848D1*
Y45818D1*
Y45788D1*
Y45758D1*
Y45728D1*
Y45699D1*
Y45669D1*
X37754Y46088D2*
Y46058D1*
Y46028D1*
Y45998D1*
Y45968D1*
Y45938D1*
Y45908D1*
Y45878D1*
Y45848D1*
Y45818D1*
Y45788D1*
Y45758D1*
Y45728D1*
Y45699D1*
Y45669D1*
Y45639D1*
Y45609D1*
Y45579D1*
Y45549D1*
Y45519D1*
Y45489D1*
Y45459D1*
Y45429D1*
Y45399D1*
Y45369D1*
Y45339D1*
Y45310D1*
Y45280D1*
Y45250D1*
Y45220D1*
Y45190D1*
Y45160D1*
Y45130D1*
Y45100D1*
X36587Y45669D2*
Y45639D1*
Y45609D1*
Y45579D1*
Y45549D1*
Y45519D1*
X37635D2*
Y45489D1*
Y45459D1*
Y45429D1*
Y45399D1*
Y45369D1*
Y45339D1*
Y45310D1*
Y45280D1*
Y45250D1*
Y45220D1*
Y45190D1*
Y45160D1*
Y45130D1*
Y45100D1*
X36916Y44891D2*
X36845Y44861D1*
X36788Y44831D1*
X36742Y44801D1*
X36700Y44771D1*
X36664Y44741D1*
X36636Y44711D1*
X36616Y44681D1*
X36602Y44651D1*
X36594Y44621D1*
X36590Y44591D1*
X36587Y44562D1*
X36583Y44532D1*
X36575Y44502D1*
X36568Y44472D1*
X36562Y44442D1*
X36560Y44412D1*
X36558Y44382D1*
Y44352D1*
Y44322D1*
X36559Y44292D1*
X36562Y44262D1*
X36570Y44232D1*
X36577Y44202D1*
X36584Y44173D1*
X36590Y44143D1*
X36600Y44113D1*
X36613Y44083D1*
X36631Y44053D1*
X36653Y44023D1*
X36681Y43993D1*
X36714Y43963D1*
X36756Y43933D1*
X36804Y43903D1*
X36857Y43873D1*
X37724Y44891D2*
X37738Y44861D1*
X37747Y44831D1*
X37751Y44801D1*
X37753Y44771D1*
X37754Y44741D1*
X36916D2*
X36863Y44711D1*
X36815Y44681D1*
X36776Y44651D1*
X36747Y44621D1*
X36726Y44591D1*
X36711Y44562D1*
X36699Y44532D1*
X36689Y44502D1*
X36683Y44472D1*
X36679Y44442D1*
X36678Y44412D1*
X36677Y44382D1*
Y44352D1*
X36678Y44322D1*
X36682Y44292D1*
X36689Y44262D1*
X36698Y44232D1*
X36710Y44202D1*
X36725Y44173D1*
X36758Y44143D1*
X36802Y44113D1*
X36860Y44083D1*
X36930Y44053D1*
X37006Y44023D1*
X37754D2*
Y43993D1*
Y43963D1*
Y43933D1*
Y43903D1*
Y43873D1*
X36587Y43634D2*
Y43604D1*
Y43574D1*
X36589Y43544D1*
X36592Y43514D1*
X36611Y43484D1*
X36655Y43454D1*
X36709Y43425D1*
X36769Y43395D1*
X36826Y43365D1*
X36876Y43335D1*
X36900Y43305D1*
X36909Y43275D1*
X36913Y43245D1*
X36915Y43215D1*
X36916Y43185D1*
Y43155D1*
Y43125D1*
Y43095D1*
Y43065D1*
Y43036D1*
Y43006D1*
Y42976D1*
Y42946D1*
Y42916D1*
Y42886D1*
Y42856D1*
X36914Y42826D1*
X36908Y42796D1*
X36879Y42766D1*
X36834Y42736D1*
X36774Y42706D1*
X36710Y42676D1*
X36656Y42647D1*
X36615Y42617D1*
X36600Y42587D1*
X36593Y42557D1*
X36589Y42527D1*
X36588Y42497D1*
X36587Y42467D1*
X36617Y43634D2*
X36683Y43604D1*
X36752Y43574D1*
X36832Y43544D1*
X36918Y43514D1*
X36999Y43484D1*
X37075Y43454D1*
X37145Y43425D1*
X37211Y43395D1*
X37274Y43365D1*
X37339Y43335D1*
X37406Y43305D1*
X37477Y43275D1*
X37555Y43245D1*
X37629Y43215D1*
X37686Y43185D1*
X37728Y43155D1*
X37742Y43125D1*
X37749Y43095D1*
X37752Y43065D1*
Y43036D1*
X37748Y43006D1*
X37740Y42976D1*
X37715Y42946D1*
X37658Y42916D1*
X37591Y42886D1*
X37523Y42856D1*
X37455Y42826D1*
X37389Y42796D1*
X37323Y42766D1*
X37257Y42736D1*
X37188Y42706D1*
X37117Y42676D1*
X37045Y42647D1*
X36971Y42617D1*
X36891Y42587D1*
X36810Y42557D1*
X36734Y42527D1*
X36661Y42497D1*
X36587Y42467D1*
X37006Y43275D2*
Y43245D1*
Y43215D1*
Y43185D1*
Y43155D1*
Y43125D1*
Y43095D1*
Y43065D1*
Y43036D1*
Y43006D1*
Y42976D1*
X37007Y42946D1*
X37008Y42916D1*
X37022Y42886D1*
X37069Y42856D1*
X37126Y42826D1*
X37096Y43275D2*
X37147Y43245D1*
X37215Y43215D1*
X37296Y43185D1*
X37374Y43155D1*
X37444Y43125D1*
X37505Y43095D1*
X37557Y43065D1*
X37605Y43036D1*
X37534Y43006D1*
X37459Y42976D1*
X37375Y42946D1*
X37289Y42916D1*
X37202Y42886D1*
X37108Y42856D1*
X37006Y42826D1*
Y42317D2*
X36992Y42288D1*
X36984Y42258D1*
X36980Y42228D1*
X36978Y42198D1*
X36977Y42168D1*
Y42138D1*
X36976Y42108D1*
Y42078D1*
Y42048D1*
Y42018D1*
Y41988D1*
Y41958D1*
Y41928D1*
Y41899D1*
Y41869D1*
Y41839D1*
X37036Y42317D2*
X37050Y42288D1*
X37059Y42258D1*
X37063Y42228D1*
X37065Y42198D1*
X37066Y42168D1*
Y42138D1*
Y42108D1*
Y42078D1*
Y42048D1*
Y42018D1*
Y41988D1*
Y41958D1*
Y41928D1*
Y41899D1*
Y41869D1*
Y41839D1*
X36797Y41629D2*
X36761Y41599D1*
X36730Y41569D1*
X36703Y41539D1*
X36679Y41510D1*
X36658Y41480D1*
X36638Y41450D1*
X36618Y41420D1*
X36604Y41390D1*
X36595Y41360D1*
X36590Y41330D1*
X36589Y41300D1*
X36588Y41270D1*
Y41240D1*
X36587Y41210D1*
Y41180D1*
Y41151D1*
Y41121D1*
Y41091D1*
Y41061D1*
Y41031D1*
Y41001D1*
Y40971D1*
Y40941D1*
Y40911D1*
Y40881D1*
Y40851D1*
Y40821D1*
Y40791D1*
Y40762D1*
X37006Y41629D2*
X37046Y41599D1*
X37084Y41569D1*
X37115Y41539D1*
X37137Y41510D1*
X37155Y41480D1*
X37177Y41450D1*
X37223Y41420D1*
X37276Y41390D1*
X37395Y41539D2*
X37356Y41510D1*
X37320Y41480D1*
X37287Y41450D1*
X37253Y41420D1*
X37216Y41390D1*
X37515Y41539D2*
X37572Y41510D1*
X37619Y41480D1*
X37657Y41450D1*
X37686Y41420D1*
X37708Y41390D1*
X37717Y41360D1*
X37722Y41330D1*
X37728Y41300D1*
X37736Y41270D1*
X37744Y41240D1*
X37749Y41210D1*
X37752Y41180D1*
X37753Y41151D1*
X37754Y41121D1*
Y41091D1*
Y41061D1*
Y41031D1*
Y41001D1*
Y40971D1*
Y40941D1*
Y40911D1*
Y40881D1*
Y40851D1*
Y40821D1*
Y40791D1*
Y40762D1*
X36827Y41450D2*
X36793Y41420D1*
X36761Y41390D1*
X36736Y41360D1*
X36717Y41330D1*
X36712Y41300D1*
X36709Y41270D1*
X36708Y41240D1*
X36707Y41210D1*
Y41180D1*
Y41151D1*
Y41121D1*
Y41091D1*
Y41061D1*
Y41031D1*
Y41001D1*
Y40971D1*
Y40941D1*
Y40911D1*
Y40881D1*
X36976Y41450D2*
X37011Y41420D1*
X37047Y41390D1*
X37080Y41360D1*
X37104Y41330D1*
X37121Y41300D1*
X37134Y41270D1*
X37144Y41240D1*
X37150Y41210D1*
X37154Y41180D1*
X37155Y41151D1*
X37156Y41121D1*
Y41091D1*
Y41061D1*
Y41031D1*
Y41001D1*
Y40971D1*
Y40941D1*
Y40911D1*
Y40881D1*
X37485Y41390D2*
X37408Y41360D1*
X37348Y41330D1*
X37304Y41300D1*
X37288Y41270D1*
X37276Y41240D1*
X37266Y41210D1*
X37257Y41180D1*
X37251Y41151D1*
X37248Y41121D1*
X37246Y41091D1*
Y41061D1*
Y41031D1*
Y41001D1*
Y40971D1*
Y40941D1*
Y40911D1*
Y40881D1*
X37485Y41390D2*
X37533Y41360D1*
X37569Y41330D1*
X37593Y41300D1*
X37610Y41270D1*
X37622Y41240D1*
X37629Y41210D1*
X37632Y41180D1*
X37634Y41151D1*
Y41121D1*
Y41091D1*
X37635Y41061D1*
Y41031D1*
Y41001D1*
Y40971D1*
Y40941D1*
Y40911D1*
Y40881D1*
M02*
