G04 DipTrace 2.4.0.2*
%INnewtoplong.gbr*%
%MOIN*%
%ADD13C,0.0394*%
%ADD14C,0.1575*%
%ADD15C,0.315*%
%ADD16C,0.1969*%
%ADD17C,0.025*%
%ADD18C,0.0787*%
%ADD19R,0.0787X0.0787*%
%ADD20R,0.0591X0.0591*%
%ADD21C,0.0591*%
%ADD34C,0.017*%
%FSLAX44Y44*%
G04*
G70*
G90*
G75*
G01*
%LNTop*%
%LPD*%
X19314Y15126D2*
D13*
X19501D1*
D14*
X21501Y13125D1*
X23939D1*
D13*
X24595Y12469D1*
X24689Y12563D1*
X19751Y62568D2*
D14*
X21876Y64693D1*
X24064D1*
X23939Y64818D1*
X39378Y11938D2*
D15*
X34503D1*
X36503Y9938D1*
X50942D1*
X61818Y20814D1*
Y33315D1*
X64818Y36315D1*
X86321D1*
X37503Y65318D2*
X32377D1*
X34753Y67694D1*
X51192D1*
X61568Y57318D1*
Y43441D1*
X63943Y41066D1*
X86321D1*
X60505Y36440D2*
D14*
X60818Y38566D1*
X53130Y60318D2*
X53817D1*
X58630Y55505D1*
Y53130D1*
X58755Y53255D1*
X51942Y17063D2*
X53817D1*
X58630Y21876D1*
Y23189D1*
X58755Y23314D1*
Y24939D1*
X46066Y13000D2*
X48067D1*
X50004Y14938D1*
X11125Y52880D2*
Y54005D1*
X13125Y56005D1*
X13250D1*
X11375Y26377D2*
Y24564D1*
X13125Y22814D1*
X45879Y64631D2*
X47379D1*
X49754Y62256D1*
X49629Y11250D2*
X53005Y14626D1*
X54505D1*
X48754Y66756D2*
D16*
X52630Y62881D1*
X55067D1*
X11063Y37691D2*
D14*
X8875D1*
Y33190D1*
X8688Y33003D1*
X11063Y41316D2*
X10625Y40878D1*
X8625D1*
Y43629D1*
X6562Y41566D1*
Y35503D1*
X8875Y33190D1*
X53343Y70695D2*
D17*
X88918D1*
X4456Y70447D2*
X32289D1*
X53655D2*
X88918D1*
X4151Y70198D2*
X32031D1*
X53913D2*
X88918D1*
X4155Y69949D2*
X31781D1*
X54163D2*
X88918D1*
X4155Y69701D2*
X31531D1*
X54413D2*
X88914D1*
X4159Y69452D2*
X31285D1*
X54659D2*
X88914D1*
X4159Y69203D2*
X31035D1*
X54909D2*
X88914D1*
X4163Y68955D2*
X30785D1*
X55159D2*
X88914D1*
X4163Y68706D2*
X30539D1*
X55405D2*
X88914D1*
X4167Y68457D2*
X30289D1*
X55655D2*
X88910D1*
X4171Y68208D2*
X30039D1*
X55905D2*
X88910D1*
X4171Y67960D2*
X29793D1*
X56151D2*
X88910D1*
X4175Y67711D2*
X29558D1*
X56401D2*
X88910D1*
X4175Y67462D2*
X21019D1*
X56651D2*
X88906D1*
X4179Y67214D2*
X20437D1*
X56898D2*
X88906D1*
X4179Y66965D2*
X20062D1*
X57148D2*
X88906D1*
X4183Y66716D2*
X19785D1*
X57398D2*
X88906D1*
X4183Y66468D2*
X19539D1*
X57644D2*
X88902D1*
X4187Y66219D2*
X19289D1*
X57894D2*
X88902D1*
X4187Y65970D2*
X19039D1*
X58144D2*
X88902D1*
X4191Y65722D2*
X18793D1*
X58390D2*
X88902D1*
X4191Y65473D2*
X18543D1*
X58640D2*
X88898D1*
X4194Y65224D2*
X18293D1*
X58890D2*
X88898D1*
X4198Y64976D2*
X18047D1*
X59136D2*
X88898D1*
X4198Y64727D2*
X17797D1*
X59386D2*
X88898D1*
X4202Y64478D2*
X17555D1*
X59636D2*
X88894D1*
X4202Y64229D2*
X17359D1*
X59882D2*
X88894D1*
X4206Y63981D2*
X17203D1*
X60132D2*
X88894D1*
X4206Y63732D2*
X17082D1*
X60382D2*
X88894D1*
X4210Y63483D2*
X16984D1*
X60628D2*
X88894D1*
X4210Y63235D2*
X16914D1*
X60878D2*
X88891D1*
X4214Y62986D2*
X16867D1*
X61128D2*
X88891D1*
X4214Y62737D2*
X16840D1*
X61374D2*
X88891D1*
X4218Y62489D2*
X15308D1*
X61624D2*
X88891D1*
X4218Y62240D2*
X14824D1*
X61874D2*
X88887D1*
X4222Y61991D2*
X14484D1*
X62120D2*
X88887D1*
X4226Y61743D2*
X14223D1*
X62370D2*
X88887D1*
X4226Y61494D2*
X14016D1*
X62620D2*
X88887D1*
X4230Y61245D2*
X13844D1*
X62866D2*
X88883D1*
X4230Y60997D2*
X13707D1*
X63116D2*
X88883D1*
X4233Y60748D2*
X13598D1*
X63366D2*
X88883D1*
X4233Y60499D2*
X13512D1*
X63612D2*
X88883D1*
X4237Y60250D2*
X13453D1*
X63862D2*
X88879D1*
X4237Y60002D2*
X13410D1*
X64112D2*
X88879D1*
X4241Y59753D2*
X13391D1*
X64351D2*
X88879D1*
X4241Y59504D2*
X13391D1*
X64550D2*
X88879D1*
X4245Y59256D2*
X13410D1*
X64718D2*
X88875D1*
X4245Y59007D2*
X12312D1*
X64858D2*
X88875D1*
X4249Y58758D2*
X11828D1*
X64976D2*
X88875D1*
X4249Y58510D2*
X11492D1*
X65073D2*
X88875D1*
X4253Y58261D2*
X11238D1*
X65148D2*
X88875D1*
X4257Y58012D2*
X11019D1*
X65206D2*
X88871D1*
X4257Y57764D2*
X10769D1*
X65245D2*
X88871D1*
X4261Y57515D2*
X10523D1*
X65265D2*
X88871D1*
X4261Y57266D2*
X10273D1*
X65273D2*
X88871D1*
X4265Y57018D2*
X10023D1*
X65273D2*
X88867D1*
X4265Y56769D2*
X9777D1*
X65273D2*
X88867D1*
X4269Y56520D2*
X9527D1*
X65273D2*
X88867D1*
X4269Y56271D2*
X9277D1*
X65273D2*
X88867D1*
X4273Y56023D2*
X9031D1*
X65273D2*
X88863D1*
X4273Y55774D2*
X8812D1*
X65273D2*
X88863D1*
X4276Y55525D2*
X8641D1*
X65273D2*
X88863D1*
X4276Y55277D2*
X8504D1*
X65273D2*
X88863D1*
X4280Y55028D2*
X8398D1*
X65273D2*
X88859D1*
X4284Y54779D2*
X8316D1*
X65273D2*
X88859D1*
X4284Y54531D2*
X6476D1*
X65273D2*
X88859D1*
X4288Y54282D2*
X6476D1*
X65273D2*
X88859D1*
X4288Y54033D2*
X6476D1*
X65273D2*
X88855D1*
X4292Y53785D2*
X6476D1*
X65273D2*
X88855D1*
X4292Y53536D2*
X6476D1*
X65273D2*
X88855D1*
X4296Y53287D2*
X6476D1*
X65273D2*
X88855D1*
X4296Y53039D2*
X6476D1*
X65273D2*
X88855D1*
X4300Y52790D2*
X6476D1*
X65273D2*
X88851D1*
X4300Y52541D2*
X6476D1*
X65273D2*
X88851D1*
X4304Y52292D2*
X6476D1*
X65273D2*
X88851D1*
X4304Y52044D2*
X6476D1*
X65273D2*
X88851D1*
X4308Y51795D2*
X6476D1*
X65273D2*
X88848D1*
X4312Y51546D2*
X6476D1*
X65273D2*
X88848D1*
X4312Y51298D2*
X6476D1*
X65273D2*
X88848D1*
X4316Y51049D2*
X6476D1*
X65273D2*
X88848D1*
X4316Y50800D2*
X6476D1*
X65273D2*
X88844D1*
X4319Y50552D2*
X6476D1*
X65273D2*
X88844D1*
X4319Y50303D2*
X6476D1*
X65273D2*
X88844D1*
X4323Y50054D2*
X6476D1*
X65273D2*
X88844D1*
X4323Y49806D2*
X6476D1*
X65273D2*
X88840D1*
X4327Y49557D2*
X6476D1*
X65862D2*
X88840D1*
X4327Y49308D2*
X6476D1*
X66515D2*
X88840D1*
X4331Y49060D2*
X6476D1*
X66913D2*
X88840D1*
X4331Y48811D2*
X6476D1*
X67214D2*
X88836D1*
X4335Y48562D2*
X6476D1*
X67448D2*
X88836D1*
X4335Y48313D2*
X6476D1*
X67640D2*
X88836D1*
X4339Y48065D2*
X6476D1*
X67792D2*
X88836D1*
X4343Y47816D2*
X6476D1*
X67917D2*
X88836D1*
X4343Y47567D2*
X6476D1*
X68015D2*
X88832D1*
X4347Y47319D2*
X6476D1*
X68089D2*
X88832D1*
X4347Y47070D2*
X6476D1*
X68140D2*
X88832D1*
X4351Y46821D2*
X6476D1*
X68171D2*
X88832D1*
X4351Y46573D2*
X6476D1*
X68183D2*
X88828D1*
X4355Y46324D2*
X6476D1*
X68171D2*
X88828D1*
X4355Y46075D2*
X6476D1*
X68144D2*
X88828D1*
X4358Y45827D2*
X6476D1*
X68093D2*
X88828D1*
X4358Y45578D2*
X6461D1*
X68019D2*
X88824D1*
X4362Y45329D2*
X6211D1*
X67921D2*
X88824D1*
X4362Y45081D2*
X5965D1*
X67800D2*
X88824D1*
X4366Y44832D2*
X5715D1*
X67648D2*
X88824D1*
X4370Y44583D2*
X5465D1*
X87421D2*
X88820D1*
X4370Y44334D2*
X5219D1*
X88034D2*
X88820D1*
X4374Y44086D2*
X4969D1*
X88444D2*
X88820D1*
X4374Y43837D2*
X4719D1*
X4378Y43588D2*
X4472D1*
X4464Y33392D2*
X4562D1*
X88577D2*
X88781D1*
X4464Y33144D2*
X4808D1*
X88206D2*
X88777D1*
X4468Y32895D2*
X5058D1*
X87698D2*
X88777D1*
X4468Y32646D2*
X5305D1*
X86601D2*
X88777D1*
X4472Y32397D2*
X5555D1*
X67792D2*
X88777D1*
X4472Y32149D2*
X5805D1*
X67941D2*
X88777D1*
X4476Y31900D2*
X5992D1*
X68058D2*
X88773D1*
X4476Y31651D2*
X6105D1*
X68151D2*
X88773D1*
X4480Y31403D2*
X6254D1*
X68222D2*
X88773D1*
X4480Y31154D2*
X6351D1*
X68273D2*
X88773D1*
X4483Y30905D2*
X6351D1*
X68300D2*
X88769D1*
X4487Y30657D2*
X6351D1*
X68308D2*
X88769D1*
X4487Y30408D2*
X6351D1*
X68292D2*
X88769D1*
X4491Y30159D2*
X6351D1*
X68261D2*
X88769D1*
X4491Y29911D2*
X6351D1*
X68206D2*
X88766D1*
X4495Y29662D2*
X6351D1*
X68128D2*
X88766D1*
X4495Y29413D2*
X6351D1*
X68030D2*
X88766D1*
X4499Y29165D2*
X6351D1*
X67901D2*
X88766D1*
X4499Y28916D2*
X6351D1*
X67745D2*
X88762D1*
X4503Y28667D2*
X6351D1*
X67550D2*
X88762D1*
X4503Y28418D2*
X6351D1*
X67312D2*
X88762D1*
X4507Y28170D2*
X6351D1*
X67003D2*
X88762D1*
X4507Y27921D2*
X6351D1*
X66585D2*
X88758D1*
X4511Y27672D2*
X6351D1*
X65874D2*
X88758D1*
X4515Y27424D2*
X6351D1*
X65523D2*
X88758D1*
X4515Y27175D2*
X6351D1*
X65523D2*
X88758D1*
X4519Y26926D2*
X6351D1*
X65523D2*
X88758D1*
X4519Y26678D2*
X6351D1*
X65523D2*
X88754D1*
X4523Y26429D2*
X6351D1*
X65523D2*
X88754D1*
X4523Y26180D2*
X6351D1*
X65523D2*
X88754D1*
X4526Y25932D2*
X6351D1*
X65523D2*
X88754D1*
X4526Y25683D2*
X6351D1*
X65523D2*
X88750D1*
X4530Y25434D2*
X6351D1*
X65523D2*
X88750D1*
X4530Y25186D2*
X6351D1*
X65523D2*
X88750D1*
X4534Y24937D2*
X6351D1*
X65523D2*
X88750D1*
X4534Y24688D2*
X6351D1*
X65523D2*
X88746D1*
X4538Y24439D2*
X6351D1*
X65523D2*
X88746D1*
X4542Y24191D2*
X6351D1*
X65523D2*
X88746D1*
X4542Y23942D2*
X6351D1*
X65523D2*
X88746D1*
X4546Y23693D2*
X6351D1*
X65523D2*
X88742D1*
X4546Y23445D2*
X6351D1*
X65523D2*
X88742D1*
X4550Y23196D2*
X6351D1*
X65523D2*
X88742D1*
X4550Y22947D2*
X6351D1*
X65523D2*
X88742D1*
X4554Y22699D2*
X6351D1*
X65523D2*
X88738D1*
X4554Y22450D2*
X9375D1*
X65523D2*
X88738D1*
X4558Y22201D2*
X9625D1*
X65523D2*
X88738D1*
X4558Y21953D2*
X9875D1*
X65523D2*
X88738D1*
X4562Y21704D2*
X10121D1*
X65523D2*
X88738D1*
X4562Y21455D2*
X10371D1*
X65523D2*
X88734D1*
X4566Y21207D2*
X10621D1*
X65523D2*
X88734D1*
X4566Y20958D2*
X10867D1*
X65523D2*
X88734D1*
X4569Y20709D2*
X11117D1*
X65519D2*
X88734D1*
X4573Y20460D2*
X11422D1*
X65503D2*
X88730D1*
X4573Y20212D2*
X11840D1*
X65472D2*
X88730D1*
X4577Y19963D2*
X12621D1*
X65421D2*
X88730D1*
X4577Y19714D2*
X12816D1*
X65355D2*
X88730D1*
X4581Y19466D2*
X12945D1*
X65265D2*
X88726D1*
X4581Y19217D2*
X13109D1*
X65155D2*
X88726D1*
X4585Y18968D2*
X13308D1*
X65026D2*
X88726D1*
X4585Y18720D2*
X13566D1*
X64866D2*
X88726D1*
X4589Y18471D2*
X13508D1*
X64679D2*
X88723D1*
X4589Y18222D2*
X13469D1*
X64452D2*
X88723D1*
X4593Y17974D2*
X13453D1*
X64206D2*
X88723D1*
X4593Y17725D2*
X13453D1*
X63956D2*
X88723D1*
X4597Y17476D2*
X13476D1*
X63706D2*
X88719D1*
X4601Y17228D2*
X13519D1*
X63460D2*
X88719D1*
X4601Y16979D2*
X13586D1*
X63210D2*
X88719D1*
X4605Y16730D2*
X13672D1*
X62960D2*
X88719D1*
X4605Y16481D2*
X13785D1*
X62714D2*
X88719D1*
X4608Y16233D2*
X13926D1*
X62464D2*
X88715D1*
X4608Y15984D2*
X14098D1*
X62214D2*
X88715D1*
X4612Y15735D2*
X14312D1*
X61968D2*
X88715D1*
X4612Y15487D2*
X14582D1*
X61718D2*
X88715D1*
X4616Y15238D2*
X14933D1*
X61468D2*
X88711D1*
X4616Y14989D2*
X15441D1*
X61222D2*
X88711D1*
X4620Y14741D2*
X16609D1*
X60972D2*
X88711D1*
X4620Y14492D2*
X16656D1*
X60722D2*
X88711D1*
X4624Y14243D2*
X16723D1*
X60476D2*
X88707D1*
X4628Y13995D2*
X16816D1*
X60226D2*
X88707D1*
X4628Y13746D2*
X16937D1*
X59976D2*
X88707D1*
X4632Y13497D2*
X17086D1*
X59730D2*
X88707D1*
X4632Y13249D2*
X17277D1*
X59480D2*
X88703D1*
X4636Y13000D2*
X17516D1*
X59230D2*
X88703D1*
X4636Y12751D2*
X17762D1*
X58983D2*
X88703D1*
X4640Y12502D2*
X18012D1*
X58733D2*
X88703D1*
X4640Y12254D2*
X18262D1*
X58483D2*
X88699D1*
X4644Y12005D2*
X18508D1*
X58237D2*
X88699D1*
X4644Y11756D2*
X18758D1*
X57987D2*
X88699D1*
X4648Y11508D2*
X19008D1*
X57737D2*
X88699D1*
X4648Y11259D2*
X19254D1*
X57491D2*
X88699D1*
X4651Y11010D2*
X19508D1*
X57241D2*
X88695D1*
X4651Y10762D2*
X19812D1*
X56991D2*
X88695D1*
X4655Y10513D2*
X20238D1*
X56745D2*
X88695D1*
X4659Y10264D2*
X21062D1*
X56495D2*
X88695D1*
X4659Y10016D2*
X31344D1*
X56245D2*
X88691D1*
X4663Y9767D2*
X31508D1*
X55999D2*
X88691D1*
X4663Y9518D2*
X31707D1*
X55749D2*
X88691D1*
X4667Y9270D2*
X31945D1*
X55499D2*
X88691D1*
X4667Y9021D2*
X32191D1*
X55253D2*
X88687D1*
X4671Y8772D2*
X32441D1*
X55003D2*
X88687D1*
X4671Y8523D2*
X32691D1*
X54753D2*
X88687D1*
X4675Y8275D2*
X32937D1*
X54507D2*
X88687D1*
X4675Y8026D2*
X33187D1*
X54257D2*
X88683D1*
X4679Y7777D2*
X33437D1*
X54007D2*
X88683D1*
X4679Y7529D2*
X33683D1*
X53761D2*
X88683D1*
X4683Y7280D2*
X33933D1*
X53511D2*
X88683D1*
X4687Y7031D2*
X34223D1*
X53222D2*
X88683D1*
X4687Y6783D2*
X34586D1*
X52858D2*
X88680D1*
X4691Y6534D2*
X35082D1*
X52362D2*
X88680D1*
X4691Y6285D2*
X36043D1*
X51401D2*
X88680D1*
X4694Y6037D2*
X88680D1*
X4694Y5788D2*
X88676D1*
X4698Y5539D2*
X88676D1*
X4698Y5291D2*
X88676D1*
X4702Y5042D2*
X88676D1*
X4702Y4793D2*
X88672D1*
X4706Y4544D2*
X88672D1*
X4706Y4296D2*
X83312D1*
X13442Y59209D2*
X13420Y59430D1*
X13413Y59680D1*
X13428Y59929D1*
X13462Y60177D1*
X13516Y60421D1*
X13590Y60660D1*
X13683Y60892D1*
X13794Y61116D1*
X13923Y61330D1*
X14069Y61533D1*
X14230Y61723D1*
X14407Y61900D1*
X14598Y62062D1*
X14800Y62208D1*
X15014Y62337D1*
X15238Y62448D1*
X15470Y62541D1*
X15709Y62615D1*
X15953Y62669D1*
X16201Y62703D1*
X16450Y62718D1*
X16700Y62712D1*
X16859Y62697D1*
X16893Y63005D1*
X16942Y63250D1*
X17011Y63490D1*
X17101Y63723D1*
X17211Y63948D1*
X17339Y64162D1*
X17486Y64365D1*
X17707Y64612D1*
X19922Y66824D1*
X20114Y66985D1*
X20318Y67128D1*
X20534Y67254D1*
X20761Y67360D1*
X20995Y67447D1*
X21236Y67513D1*
X21482Y67557D1*
X21731Y67581D1*
X22412Y67584D1*
X22679Y67653D1*
X22926Y67692D1*
X23257Y67711D1*
X29581D1*
X29865Y68008D1*
X32242Y70382D1*
X32398Y70519D1*
X32504Y70605D1*
X32323Y70610D1*
X4124Y70445D1*
X4197Y61945D1*
X4353Y43434D1*
X4606Y43699D1*
X6504Y45596D1*
X6503Y49689D1*
Y54689D1*
X8319D1*
X8366Y54866D1*
X8451Y55102D1*
X8555Y55329D1*
X8679Y55546D1*
X8821Y55751D1*
X8981Y55944D1*
X9611Y56579D1*
X11103Y58070D1*
X11263Y58263D1*
X11439Y58440D1*
X11630Y58602D1*
X11833Y58747D1*
X12049Y58874D1*
X12274Y58981D1*
X12508Y59069D1*
X12749Y59136D1*
X12995Y59182D1*
X13243Y59207D1*
X13443Y59210D1*
X16628Y14789D2*
X16414Y14792D1*
X16165Y14814D1*
X15918Y14856D1*
X15676Y14918D1*
X15440Y15000D1*
X15211Y15100D1*
X14991Y15219D1*
X14781Y15354D1*
X14583Y15507D1*
X14398Y15675D1*
X14227Y15857D1*
X14071Y16053D1*
X13932Y16260D1*
X13810Y16478D1*
X13706Y16706D1*
X13621Y16940D1*
X13555Y17181D1*
X13508Y17427D1*
X13482Y17676D1*
X13476Y17925D1*
X13490Y18175D1*
X13524Y18423D1*
X13593Y18715D1*
X13386Y18913D1*
X13221Y19101D1*
X13073Y19302D1*
X12943Y19515D1*
X12832Y19739D1*
X12768Y19897D1*
X12689Y19956D1*
X12443Y20005D1*
X12203Y20074D1*
X11970Y20164D1*
X11746Y20274D1*
X11531Y20402D1*
X11329Y20549D1*
X11081Y20770D1*
X9200Y22660D1*
X9122Y22692D1*
X6378D1*
X6382Y27686D1*
X6378Y27942D1*
X6382Y28686D1*
X6378Y28942D1*
Y31266D1*
X6275Y31410D1*
X6146Y31624D1*
X6037Y31849D1*
X5977Y31998D1*
X4471Y33507D1*
X4437Y33446D1*
X4687Y4062D1*
X88696Y4313D1*
X88806Y33605D1*
X88578Y33411D1*
X88376Y33265D1*
X88164Y33132D1*
X87944Y33014D1*
X87716Y32912D1*
X87481Y32825D1*
X87241Y32754D1*
X86998Y32700D1*
X86750Y32662D1*
X86501Y32642D1*
X85821Y32637D1*
X67590D1*
X67784Y32369D1*
X67912Y32154D1*
X68021Y31930D1*
X68112Y31697D1*
X68184Y31458D1*
X68237Y31213D1*
X68269Y30965D1*
X68281Y30690D1*
X68271Y30440D1*
X68241Y30192D1*
X68191Y29947D1*
X68121Y29707D1*
X68032Y29474D1*
X67924Y29248D1*
X67798Y29032D1*
X67656Y28827D1*
X67497Y28634D1*
X67323Y28454D1*
X67135Y28289D1*
X66935Y28140D1*
X66723Y28008D1*
X66501Y27893D1*
X66271Y27796D1*
X66033Y27718D1*
X65790Y27660D1*
X65500Y27618D1*
X65496Y27065D1*
X65494Y20689D1*
X65477Y20439D1*
X65443Y20192D1*
X65393Y19947D1*
X65326Y19706D1*
X65242Y19471D1*
X65143Y19241D1*
X65029Y19019D1*
X64899Y18805D1*
X64756Y18600D1*
X64599Y18406D1*
X64331Y18124D1*
X53453Y7250D1*
X53265Y7085D1*
X53066Y6934D1*
X52857Y6797D1*
X52639Y6674D1*
X52413Y6567D1*
X52181Y6474D1*
X51943Y6398D1*
X51700Y6338D1*
X51454Y6295D1*
X51206Y6269D1*
X50817Y6259D1*
X36378Y6261D1*
X36129Y6278D1*
X35881Y6312D1*
X35636Y6363D1*
X35395Y6430D1*
X35160Y6513D1*
X34930Y6612D1*
X34708Y6727D1*
X34494Y6856D1*
X34290Y7000D1*
X34095Y7157D1*
X33814Y7425D1*
X31815Y9427D1*
X31651Y9615D1*
X31499Y9814D1*
X31306Y10111D1*
X22882Y10114D1*
X22633Y10136D1*
X22387Y10179D1*
X22172Y10235D1*
X21376Y10237D1*
X21127Y10259D1*
X20881Y10302D1*
X20640Y10366D1*
X20405Y10451D1*
X20178Y10555D1*
X19961Y10679D1*
X19755Y10822D1*
X19563Y10981D1*
X18927Y11612D1*
X17371Y13172D1*
X17210Y13363D1*
X17066Y13568D1*
X16941Y13784D1*
X16834Y14010D1*
X16748Y14244D1*
X16682Y14486D1*
X16639Y14720D1*
X68154Y46442D2*
X68133Y46192D1*
X68093Y45946D1*
X68033Y45703D1*
X67953Y45466D1*
X67855Y45236D1*
X67738Y45015D1*
X67561Y44745D1*
X86446Y44742D1*
X86695Y44725D1*
X86943Y44691D1*
X87187Y44641D1*
X87428Y44574D1*
X87664Y44490D1*
X87893Y44391D1*
X88116Y44277D1*
X88329Y44147D1*
X88534Y44004D1*
X88728Y43847D1*
X88841Y43744D1*
X88849Y45187D1*
X88945Y70941D1*
X86447Y70929D1*
X53270Y70729D1*
X53471Y70581D1*
X53662Y70419D1*
X54146Y69941D1*
X64256Y59829D1*
X64420Y59640D1*
X64571Y59441D1*
X64709Y59232D1*
X64831Y59015D1*
X64939Y58789D1*
X65031Y58557D1*
X65108Y58319D1*
X65167Y58076D1*
X65211Y57830D1*
X65237Y57581D1*
X65246Y57193D1*
Y49650D1*
X65516Y49622D1*
X65762Y49575D1*
X66003Y49509D1*
X66238Y49424D1*
X66465Y49320D1*
X66683Y49198D1*
X66891Y49059D1*
X67086Y48904D1*
X67269Y48733D1*
X67437Y48548D1*
X67589Y48350D1*
X67725Y48140D1*
X67844Y47920D1*
X67944Y47691D1*
X68026Y47455D1*
X68088Y47213D1*
X68130Y46966D1*
X68152Y46717D1*
X68154Y46442D1*
D16*
X16501Y59630D3*
X16563Y17876D3*
X65193Y30690D3*
X65068Y46566D3*
D19*
X37253Y55005D3*
Y56005D3*
Y57005D3*
Y58005D3*
Y59005D3*
Y60005D3*
Y61005D3*
Y62005D3*
X9000Y46191D3*
Y47191D3*
Y48191D3*
Y49191D3*
Y50191D3*
Y51191D3*
Y52191D3*
X8875Y25189D3*
Y26189D3*
Y27189D3*
Y28189D3*
Y29189D3*
Y30189D3*
Y31189D3*
D20*
Y25189D3*
D21*
Y26189D3*
Y27189D3*
Y28189D3*
Y29189D3*
Y30189D3*
Y31189D3*
D19*
X33315Y38566D3*
X34315D3*
X40191Y38691D3*
X41191D3*
X37253Y34940D3*
Y35940D3*
Y14751D2*
D14*
X50004Y15188D1*
X19501Y15126D2*
X34909Y15099D1*
X23007Y13002D2*
X34818D1*
X34446D2*
X46257D1*
X19751Y62568D2*
X35159Y62542D1*
X38878Y62318D2*
X49129Y62256D1*
X37633Y64445D2*
X45879Y64631D1*
X23257Y64820D2*
X35068D1*
X13493Y40597D2*
D18*
G02X13493Y40597I13J0D01*
G01*
X15474D2*
D14*
X13506D1*
X13493D2*
D18*
G02X13493Y40597I13J0D01*
G01*
X15461D2*
G02X15461Y40597I13J0D01*
G01*
X15474Y56345D2*
D14*
Y40597D1*
X15461D2*
D18*
G02X15461Y40597I13J0D01*
G01*
Y56345D2*
G02X15461Y56345I13J0D01*
G01*
X19411D2*
D14*
X15474D1*
X15461D2*
D18*
G02X15461Y56345I13J0D01*
G01*
X19398D2*
G02X19398Y56345I13J0D01*
G01*
X19411Y60282D2*
D14*
Y56345D1*
X19398D2*
D18*
G02X19398Y56345I13J0D01*
G01*
Y60282D2*
G02X19398Y60282I13J0D01*
G01*
X33191D2*
D14*
X19411D1*
X19398D2*
D18*
G02X19398Y60282I13J0D01*
G01*
X33178D2*
G02X33178Y60282I13J0D01*
G01*
X33191Y58313D2*
D14*
Y60282D1*
X33178D2*
D18*
G02X33178Y60282I13J0D01*
G01*
Y58313D2*
G02X33178Y58313I13J0D01*
G01*
X21380D2*
D14*
X33191D1*
X33178D2*
D18*
G02X33178Y58313I13J0D01*
G01*
X21367D2*
G02X21367Y58313I13J0D01*
G01*
X21380Y54376D2*
D14*
Y58313D1*
X21367D2*
D18*
G02X21367Y58313I13J0D01*
G01*
Y54376D2*
G02X21367Y54376I13J0D01*
G01*
X17443D2*
D14*
X21380D1*
X21367D2*
D18*
G02X21367Y54376I13J0D01*
G01*
X17430D2*
G02X17430Y54376I13J0D01*
G01*
X17443Y40597D2*
D14*
Y54376D1*
X17430D2*
D18*
G02X17430Y54376I13J0D01*
G01*
Y40597D2*
G02X17430Y40597I13J0D01*
G01*
X19411D2*
D14*
X17443D1*
X17430D2*
D18*
G02X17430Y40597I13J0D01*
G01*
X19398D2*
G02X19398Y40597I13J0D01*
G01*
X19411Y52408D2*
D14*
Y40597D1*
X19398D2*
D18*
G02X19398Y40597I13J0D01*
G01*
Y52408D2*
G02X19398Y52408I13J0D01*
G01*
X23348D2*
D14*
X19411D1*
X19398D2*
D18*
G02X19398Y52408I13J0D01*
G01*
X23335D2*
G02X23335Y52408I13J0D01*
G01*
X23348Y56345D2*
D14*
Y52408D1*
X23335D2*
D18*
G02X23335Y52408I13J0D01*
G01*
Y56345D2*
G02X23335Y56345I13J0D01*
G01*
X33191D2*
D14*
X23348D1*
X23335D2*
D18*
G02X23335Y56345I13J0D01*
G01*
X33178D2*
G02X33178Y56345I13J0D01*
G01*
X33191Y54376D2*
D14*
Y56345D1*
X33178D2*
D18*
G02X33178Y56345I13J0D01*
G01*
Y54376D2*
G02X33178Y54376I13J0D01*
G01*
X25317D2*
D14*
X33191D1*
X33178D2*
D18*
G02X33178Y54376I13J0D01*
G01*
X25304D2*
G02X25304Y54376I13J0D01*
G01*
X25317Y50439D2*
D14*
Y54376D1*
X25304D2*
D18*
G02X25304Y54376I13J0D01*
G01*
Y50439D2*
G02X25304Y50439I13J0D01*
G01*
X21380D2*
D14*
X25317D1*
X25304D2*
D18*
G02X25304Y50439I13J0D01*
G01*
X21367D2*
G02X21367Y50439I13J0D01*
G01*
X21380Y40597D2*
D14*
Y50439D1*
X21367D2*
D18*
G02X21367Y50439I13J0D01*
G01*
Y40597D2*
G02X21367Y40597I13J0D01*
G01*
X23348D2*
D14*
X21380D1*
X21367D2*
D18*
G02X21367Y40597I13J0D01*
G01*
X23335D2*
G02X23335Y40597I13J0D01*
G01*
X23348Y48471D2*
D14*
Y40597D1*
X23335D2*
D18*
G02X23335Y40597I13J0D01*
G01*
Y48471D2*
G02X23335Y48471I13J0D01*
G01*
X27285D2*
D14*
X23348D1*
X23335D2*
D18*
G02X23335Y48471I13J0D01*
G01*
X27272D2*
G02X27272Y48471I13J0D01*
G01*
X27285Y52408D2*
D14*
Y48471D1*
X27272D2*
D18*
G02X27272Y48471I13J0D01*
G01*
Y52408D2*
G02X27272Y52408I13J0D01*
G01*
X33191D2*
D14*
X27285D1*
X27272D2*
D18*
G02X27272Y52408I13J0D01*
G01*
X33178D2*
G02X33178Y52408I13J0D01*
G01*
X33191Y50439D2*
D14*
Y52408D1*
X33178D2*
D18*
G02X33178Y52408I13J0D01*
G01*
Y50439D2*
G02X33178Y50439I13J0D01*
G01*
X29254D2*
D14*
X33191D1*
X33178D2*
D18*
G02X33178Y50439I13J0D01*
G01*
X29241D2*
G02X29241Y50439I13J0D01*
G01*
X29254Y46502D2*
D14*
Y50439D1*
X29241D2*
D18*
G02X29241Y50439I13J0D01*
G01*
Y46502D2*
G02X29241Y46502I13J0D01*
G01*
X25317D2*
D14*
X29254D1*
X29241D2*
D18*
G02X29241Y46502I13J0D01*
G01*
X25304D2*
G02X25304Y46502I13J0D01*
G01*
X25317Y40597D2*
D14*
Y46502D1*
X25304D2*
D18*
G02X25304Y46502I13J0D01*
G01*
Y40597D2*
G02X25304Y40597I13J0D01*
G01*
X27285D2*
D14*
X25317D1*
X25304D2*
D18*
G02X25304Y40597I13J0D01*
G01*
X27272D2*
G02X27272Y40597I13J0D01*
G01*
X27285Y44534D2*
D14*
Y40597D1*
X27272D2*
D18*
G02X27272Y40597I13J0D01*
G01*
Y44534D2*
G02X27272Y44534I13J0D01*
G01*
X31222D2*
D14*
X27285D1*
X27272D2*
D18*
G02X27272Y44534I13J0D01*
G01*
X31209D2*
G02X31209Y44534I13J0D01*
G01*
X31222Y48471D2*
D14*
Y44534D1*
X31209D2*
D18*
G02X31209Y44534I13J0D01*
G01*
Y48471D2*
G02X31209Y48471I13J0D01*
G01*
X33191D2*
D14*
X31222D1*
X31209D2*
D18*
G02X31209Y48471I13J0D01*
G01*
X33178D2*
G02X33178Y48471I13J0D01*
G01*
X33191Y42565D2*
D14*
Y48471D1*
X33178D2*
D18*
G02X33178Y48471I13J0D01*
G01*
Y42565D2*
G02X33178Y42565I13J0D01*
G01*
X29254D2*
D14*
X33191D1*
X33178D2*
D18*
G02X33178Y42565I13J0D01*
G01*
X29241D2*
G02X29241Y42565I13J0D01*
G01*
X29254Y40597D2*
D14*
Y42565D1*
X29241D2*
D18*
G02X29241Y42565I13J0D01*
G01*
Y40597D2*
G02X29241Y40597I13J0D01*
G01*
X35159D2*
D14*
X29254D1*
X29241D2*
D18*
G02X29241Y40597I13J0D01*
G01*
X35146D2*
G02X35146Y40597I13J0D01*
G01*
X35159D2*
D14*
X35378Y62318D1*
X35146Y40597D2*
D18*
G02X35146Y40597I13J0D01*
G01*
X5619Y36660D2*
G02X5619Y36660I13J0D01*
G01*
G02X5619Y36660I13J0D01*
G01*
X35146Y15006D2*
G02X35146Y15006I13J0D01*
G01*
X35159Y16975D2*
D14*
Y15006D1*
X35146D2*
D18*
G02X35146Y15006I13J0D01*
G01*
Y16975D2*
G02X35146Y16975I13J0D01*
G01*
X19411D2*
D14*
X35159D1*
X35146D2*
D18*
G02X35146Y16975I13J0D01*
G01*
X19398D2*
G02X19398Y16975I13J0D01*
G01*
X19411Y20912D2*
D14*
Y16975D1*
X19398D2*
D18*
G02X19398Y16975I13J0D01*
G01*
Y20912D2*
G02X19398Y20912I13J0D01*
G01*
X15474D2*
D14*
X19411D1*
X19398D2*
D18*
G02X19398Y20912I13J0D01*
G01*
X15461D2*
G02X15461Y20912I13J0D01*
G01*
X15474Y36660D2*
D14*
Y20912D1*
X15461D2*
D18*
G02X15461Y20912I13J0D01*
G01*
Y36660D2*
G02X15461Y36660I13J0D01*
G01*
X17443D2*
D14*
X15474D1*
X15461D2*
D18*
G02X15461Y36660I13J0D01*
G01*
X17430D2*
G02X17430Y36660I13J0D01*
G01*
X17443Y22880D2*
D14*
Y36660D1*
X17430D2*
D18*
G02X17430Y36660I13J0D01*
G01*
Y22880D2*
G02X17430Y22880I13J0D01*
G01*
X21380D2*
D14*
X17443D1*
X17430D2*
D18*
G02X17430Y22880I13J0D01*
G01*
X21367D2*
G02X21367Y22880I13J0D01*
G01*
X21380Y18943D2*
D14*
Y22880D1*
X21367D2*
D18*
G02X21367Y22880I13J0D01*
G01*
Y18943D2*
G02X21367Y18943I13J0D01*
G01*
X35159D2*
D14*
X21380D1*
X21367D2*
D18*
G02X21367Y18943I13J0D01*
G01*
X35146D2*
G02X35146Y18943I13J0D01*
G01*
X35159Y20912D2*
D14*
Y18943D1*
X35146D2*
D18*
G02X35146Y18943I13J0D01*
G01*
Y20912D2*
G02X35146Y20912I13J0D01*
G01*
X23348D2*
D14*
X35159D1*
X35146D2*
D18*
G02X35146Y20912I13J0D01*
G01*
X23335D2*
G02X23335Y20912I13J0D01*
G01*
X23348Y24849D2*
D14*
Y20912D1*
X23335D2*
D18*
G02X23335Y20912I13J0D01*
G01*
Y24849D2*
G02X23335Y24849I13J0D01*
G01*
X19411D2*
D14*
X23348D1*
X23335D2*
D18*
G02X23335Y24849I13J0D01*
G01*
X19398D2*
G02X19398Y24849I13J0D01*
G01*
X19411Y36660D2*
D14*
Y24849D1*
X19398D2*
D18*
G02X19398Y24849I13J0D01*
G01*
Y36660D2*
G02X19398Y36660I13J0D01*
G01*
X21380D2*
D14*
X19411D1*
X19398D2*
D18*
G02X19398Y36660I13J0D01*
G01*
X21367D2*
G02X21367Y36660I13J0D01*
G01*
X21380Y26817D2*
D14*
Y36660D1*
X21367D2*
D18*
G02X21367Y36660I13J0D01*
G01*
Y26817D2*
G02X21367Y26817I13J0D01*
G01*
X25317D2*
D14*
X21380D1*
X21367D2*
D18*
G02X21367Y26817I13J0D01*
G01*
X25304D2*
G02X25304Y26817I13J0D01*
G01*
X25317Y22880D2*
D14*
Y26817D1*
X25304D2*
D18*
G02X25304Y26817I13J0D01*
G01*
Y22880D2*
G02X25304Y22880I13J0D01*
G01*
X35159D2*
D14*
X25317D1*
X25304D2*
D18*
G02X25304Y22880I13J0D01*
G01*
X35146D2*
G02X35146Y22880I13J0D01*
G01*
X35159Y24849D2*
D14*
Y22880D1*
X35146D2*
D18*
G02X35146Y22880I13J0D01*
G01*
Y24849D2*
G02X35146Y24849I13J0D01*
G01*
X27285D2*
D14*
X35159D1*
X35146D2*
D18*
G02X35146Y24849I13J0D01*
G01*
X27272D2*
G02X27272Y24849I13J0D01*
G01*
X27285Y28786D2*
D14*
Y24849D1*
X27272D2*
D18*
G02X27272Y24849I13J0D01*
G01*
Y28786D2*
G02X27272Y28786I13J0D01*
G01*
X23348D2*
D14*
X27285D1*
X27272D2*
D18*
G02X27272Y28786I13J0D01*
G01*
X23335D2*
G02X23335Y28786I13J0D01*
G01*
X23348Y36660D2*
D14*
Y28786D1*
X23335D2*
D18*
G02X23335Y28786I13J0D01*
G01*
Y36660D2*
G02X23335Y36660I13J0D01*
G01*
X25317D2*
D14*
X23348D1*
X23335D2*
D18*
G02X23335Y36660I13J0D01*
G01*
X25304D2*
G02X25304Y36660I13J0D01*
G01*
X25317Y30754D2*
D14*
Y36660D1*
X25304D2*
D18*
G02X25304Y36660I13J0D01*
G01*
Y30754D2*
G02X25304Y30754I13J0D01*
G01*
X29254D2*
D14*
X25317D1*
X25304D2*
D18*
G02X25304Y30754I13J0D01*
G01*
X29241D2*
G02X29241Y30754I13J0D01*
G01*
X29254Y26817D2*
D14*
Y30754D1*
X29241D2*
D18*
G02X29241Y30754I13J0D01*
G01*
Y26817D2*
G02X29241Y26817I13J0D01*
G01*
X35159D2*
D14*
X29254D1*
X29241D2*
D18*
G02X29241Y26817I13J0D01*
G01*
X35146D2*
G02X35146Y26817I13J0D01*
G01*
X35159Y28786D2*
D14*
Y26817D1*
X35146D2*
D18*
G02X35146Y26817I13J0D01*
G01*
Y28786D2*
G02X35146Y28786I13J0D01*
G01*
X31222D2*
D14*
X35159D1*
X35146D2*
D18*
G02X35146Y28786I13J0D01*
G01*
X31209D2*
G02X31209Y28786I13J0D01*
G01*
X31222Y32723D2*
D14*
Y28786D1*
X31209D2*
D18*
G02X31209Y28786I13J0D01*
G01*
Y32723D2*
G02X31209Y32723I13J0D01*
G01*
X27285D2*
D14*
X31222D1*
X31209D2*
D18*
G02X31209Y32723I13J0D01*
G01*
X27272D2*
G02X27272Y32723I13J0D01*
G01*
X27285Y36660D2*
D14*
Y32723D1*
X27272D2*
D18*
G02X27272Y32723I13J0D01*
G01*
Y36660D2*
G02X27272Y36660I13J0D01*
G01*
X29254D2*
D14*
X27285D1*
X27272D2*
D18*
G02X27272Y36660I13J0D01*
G01*
X29241D2*
G02X29241Y36660I13J0D01*
G01*
X29254Y34691D2*
D14*
Y36660D1*
X29241D2*
D18*
G02X29241Y36660I13J0D01*
G01*
Y34691D2*
G02X29241Y34691I13J0D01*
G01*
X33191D2*
D14*
X29254D1*
X29241D2*
D18*
G02X29241Y34691I13J0D01*
G01*
X33178D2*
G02X33178Y34691I13J0D01*
G01*
X33191Y30754D2*
D14*
Y34691D1*
X33178D2*
D18*
G02X33178Y34691I13J0D01*
G01*
Y30754D2*
G02X33178Y30754I13J0D01*
G01*
X35159D2*
D14*
X33191D1*
X33178D2*
D18*
G02X33178Y30754I13J0D01*
G01*
X35146D2*
G02X35146Y30754I13J0D01*
G01*
X35159Y36660D2*
D14*
Y30754D1*
X35146D2*
D18*
G02X35146Y30754I13J0D01*
G01*
Y36660D2*
G02X35146Y36660I13J0D01*
G01*
X31222D2*
D14*
X35159D1*
X35146D2*
D18*
G02X35146Y36660I13J0D01*
G01*
X31209D2*
G02X31209Y36660I13J0D01*
G01*
X31222Y38628D2*
D14*
Y36660D1*
X31209D2*
D18*
G02X31209Y36660I13J0D01*
G01*
Y38628D2*
G02X31209Y38628I13J0D01*
G01*
X13125Y38378D2*
D14*
X31222Y38628D1*
X31209D2*
D18*
G02X31209Y38628I13J0D01*
G01*
X60737Y36660D2*
G02X60737Y36660I13J0D01*
G01*
X58782D2*
D14*
X60750D1*
X60737D2*
D18*
G02X60737Y36660I13J0D01*
G01*
X58768D2*
G02X58768Y36660I13J0D01*
G01*
X58755Y23189D2*
D14*
X58782Y36660D1*
X58768D2*
D18*
G02X58768Y36660I13J0D01*
G01*
X13378Y40912D2*
D14*
X13404Y56320D1*
X13191Y22910D2*
X13217Y38318D1*
X11223Y41100D2*
Y52911D1*
X39096Y16975D2*
X51567Y16938D1*
X39083Y16975D2*
D18*
G02X39083Y16975I13J0D01*
G01*
X39096Y18943D2*
D14*
Y16975D1*
X39083D2*
D18*
G02X39083Y16975I13J0D01*
G01*
Y18943D2*
G02X39083Y18943I13J0D01*
G01*
X52876D2*
D14*
X39096D1*
X39083D2*
D18*
G02X39083Y18943I13J0D01*
G01*
X52863D2*
G02X52863Y18943I13J0D01*
G01*
X52876Y22880D2*
D14*
Y18943D1*
X52863D2*
D18*
G02X52863Y18943I13J0D01*
G01*
Y22880D2*
G02X52863Y22880I13J0D01*
G01*
X56813D2*
D14*
X52876D1*
X52863D2*
D18*
G02X52863Y22880I13J0D01*
G01*
X56800D2*
G02X56800Y22880I13J0D01*
G01*
X56813Y36660D2*
D14*
Y22880D1*
X56800D2*
D18*
G02X56800Y22880I13J0D01*
G01*
Y36660D2*
G02X56800Y36660I13J0D01*
G01*
X54845D2*
D14*
X56813D1*
X56800D2*
D18*
G02X56800Y36660I13J0D01*
G01*
X54831D2*
G02X54831Y36660I13J0D01*
G01*
X54845Y24849D2*
D14*
Y36660D1*
X54831D2*
D18*
G02X54831Y36660I13J0D01*
G01*
Y24849D2*
G02X54831Y24849I13J0D01*
G01*
X50908D2*
D14*
X54845D1*
X54831D2*
D18*
G02X54831Y24849I13J0D01*
G01*
X50894D2*
G02X50894Y24849I13J0D01*
G01*
X50908Y20912D2*
D14*
Y24849D1*
X50894D2*
D18*
G02X50894Y24849I13J0D01*
G01*
Y20912D2*
G02X50894Y20912I13J0D01*
G01*
X39096D2*
D14*
X50908D1*
X50894D2*
D18*
G02X50894Y20912I13J0D01*
G01*
X39083D2*
G02X39083Y20912I13J0D01*
G01*
X39096Y22880D2*
D14*
Y20912D1*
X39083D2*
D18*
G02X39083Y20912I13J0D01*
G01*
Y22880D2*
G02X39083Y22880I13J0D01*
G01*
X48939D2*
D14*
X39096D1*
X39083D2*
D18*
G02X39083Y22880I13J0D01*
G01*
X48926D2*
G02X48926Y22880I13J0D01*
G01*
X48939Y26817D2*
D14*
Y22880D1*
X48926D2*
D18*
G02X48926Y22880I13J0D01*
G01*
Y26817D2*
G02X48926Y26817I13J0D01*
G01*
X52876D2*
D14*
X48939D1*
X48926D2*
D18*
G02X48926Y26817I13J0D01*
G01*
X52863D2*
G02X52863Y26817I13J0D01*
G01*
X52876Y36660D2*
D14*
Y26817D1*
X52863D2*
D18*
G02X52863Y26817I13J0D01*
G01*
Y36660D2*
G02X52863Y36660I13J0D01*
G01*
X50908D2*
D14*
X52876D1*
X52863D2*
D18*
G02X52863Y36660I13J0D01*
G01*
X50894D2*
G02X50894Y36660I13J0D01*
G01*
X50908Y28786D2*
D14*
Y36660D1*
X50894D2*
D18*
G02X50894Y36660I13J0D01*
G01*
Y28786D2*
G02X50894Y28786I13J0D01*
G01*
X46971D2*
D14*
X50908D1*
X50894D2*
D18*
G02X50894Y28786I13J0D01*
G01*
X46957D2*
G02X46957Y28786I13J0D01*
G01*
X46971Y24849D2*
D14*
Y28786D1*
X46957D2*
D18*
G02X46957Y28786I13J0D01*
G01*
Y24849D2*
G02X46957Y24849I13J0D01*
G01*
X39096D2*
D14*
X46971D1*
X46957D2*
D18*
G02X46957Y24849I13J0D01*
G01*
X39083D2*
G02X39083Y24849I13J0D01*
G01*
X39096Y26817D2*
D14*
Y24849D1*
X39083D2*
D18*
G02X39083Y24849I13J0D01*
G01*
Y26817D2*
G02X39083Y26817I13J0D01*
G01*
X45002D2*
D14*
X39096D1*
X39083D2*
D18*
G02X39083Y26817I13J0D01*
G01*
X44989D2*
G02X44989Y26817I13J0D01*
G01*
X45002Y30754D2*
D14*
Y26817D1*
X44989D2*
D18*
G02X44989Y26817I13J0D01*
G01*
Y30754D2*
G02X44989Y30754I13J0D01*
G01*
X48939D2*
D14*
X45002D1*
X44989D2*
D18*
G02X44989Y30754I13J0D01*
G01*
X48926D2*
G02X48926Y30754I13J0D01*
G01*
X48939Y36660D2*
D14*
Y30754D1*
X48926D2*
D18*
G02X48926Y30754I13J0D01*
G01*
Y36660D2*
G02X48926Y36660I13J0D01*
G01*
X46971D2*
D14*
X48939D1*
X48926D2*
D18*
G02X48926Y36660I13J0D01*
G01*
X46957D2*
G02X46957Y36660I13J0D01*
G01*
X46971Y32723D2*
D14*
Y36660D1*
X46957D2*
D18*
G02X46957Y36660I13J0D01*
G01*
Y32723D2*
G02X46957Y32723I13J0D01*
G01*
X43034D2*
D14*
X46971D1*
X46957D2*
D18*
G02X46957Y32723I13J0D01*
G01*
X43020D2*
G02X43020Y32723I13J0D01*
G01*
X43034Y28786D2*
D14*
Y32723D1*
X43020D2*
D18*
G02X43020Y32723I13J0D01*
G01*
Y28786D2*
G02X43020Y28786I13J0D01*
G01*
X39096D2*
D14*
X43034D1*
X43020D2*
D18*
G02X43020Y28786I13J0D01*
G01*
X39083D2*
G02X39083Y28786I13J0D01*
G01*
X39096Y30754D2*
D14*
Y28786D1*
X39083D2*
D18*
G02X39083Y28786I13J0D01*
G01*
Y30754D2*
G02X39083Y30754I13J0D01*
G01*
X41065D2*
D14*
X39096D1*
X39083D2*
D18*
G02X39083Y30754I13J0D01*
G01*
X41052D2*
G02X41052Y30754I13J0D01*
G01*
X41065Y34691D2*
D14*
Y30754D1*
X41052D2*
D18*
G02X41052Y30754I13J0D01*
G01*
Y34691D2*
G02X41052Y34691I13J0D01*
G01*
X45002D2*
D14*
X41065D1*
X41052D2*
D18*
G02X41052Y34691I13J0D01*
G01*
X44989D2*
G02X44989Y34691I13J0D01*
G01*
X45002Y36660D2*
D14*
Y34691D1*
X44989D2*
D18*
G02X44989Y34691I13J0D01*
G01*
Y36660D2*
G02X44989Y36660I13J0D01*
G01*
X39096D2*
D14*
X45002D1*
X44989D2*
D18*
G02X44989Y36660I13J0D01*
G01*
X39083D2*
G02X39083Y36660I13J0D01*
G01*
X39096D2*
D14*
Y32723D1*
X39083D2*
D18*
G02X39083Y32723I13J0D01*
G01*
Y36660D2*
G02X39083Y36660I13J0D01*
G01*
X39096Y32723D2*
D14*
X37128D1*
X37115D2*
D18*
G02X37115Y32723I13J0D01*
G01*
X39083D2*
G02X39083Y32723I13J0D01*
G01*
X37128D2*
D14*
X37065Y14813D1*
X37115Y32723D2*
D18*
G02X37115Y32723I13J0D01*
G01*
X39083Y62250D2*
G02X39083Y62250I13J0D01*
G01*
X39096Y60282D2*
D14*
Y62250D1*
X39083D2*
D18*
G02X39083Y62250I13J0D01*
G01*
Y60282D2*
G02X39083Y60282I13J0D01*
G01*
X52880Y60318D2*
D14*
X39096Y60282D1*
X39083D2*
D18*
G02X39083Y60282I13J0D01*
G01*
X54831D2*
G02X54831Y60282I13J0D01*
G01*
G02X54831Y60282I13J0D01*
G01*
X58943Y56345D2*
Y56346D1*
Y56347D1*
Y56348D1*
Y56349D1*
Y56350D1*
Y56351D1*
Y56352D1*
Y56353D1*
Y56354D1*
Y56355D1*
Y56356D1*
Y56357D1*
Y56358D1*
Y56357D1*
Y56356D1*
Y56355D1*
Y56354D1*
Y56353D1*
Y56352D1*
Y56351D1*
Y56350D1*
Y56349D1*
Y56348D1*
Y56347D1*
Y56346D1*
Y56345D1*
Y56344D1*
Y56343D1*
Y56342D1*
Y56341D1*
Y56340D1*
Y56339D1*
Y56338D1*
Y56337D1*
Y56336D1*
Y56335D1*
Y56334D1*
Y56333D1*
Y56332D1*
Y56333D1*
Y56334D1*
Y56335D1*
Y56336D1*
Y56337D1*
Y56338D1*
Y56339D1*
Y56340D1*
Y56341D1*
Y56342D1*
Y56343D1*
Y56344D1*
Y56345D1*
X58782Y40597D2*
D14*
X58755Y53755D1*
X58630Y56345D2*
D18*
Y56346D1*
X58631Y56347D1*
X58632D1*
X58633Y56348D1*
X58635Y56349D1*
X58637Y56350D1*
X58640Y56351D1*
X58643Y56352D1*
X58646D1*
X58649Y56353D1*
X58653Y56354D1*
X58657D1*
X58662Y56355D1*
X58666Y56356D1*
X58671D1*
X58676D1*
X58682Y56357D1*
X58687D1*
X58693D1*
X58698Y56358D1*
X58704D1*
X58710D1*
X58715D1*
X58721D1*
X58727D1*
X58732Y56357D1*
X58738D1*
X58743D1*
X58748Y56356D1*
X58754D1*
X58758D1*
X58763Y56355D1*
X58767Y56354D1*
X58772D1*
X58775Y56353D1*
X58779Y56352D1*
X58782D1*
X58785Y56351D1*
X58788Y56350D1*
X58790Y56349D1*
X58791Y56348D1*
X58793Y56347D1*
X58794D1*
Y56346D1*
X58795Y56345D1*
X58794Y56344D1*
Y56343D1*
X58793Y56342D1*
X58791Y56341D1*
X58790Y56340D1*
X58788Y56339D1*
X58785D1*
X58782Y56338D1*
X58779Y56337D1*
X58775Y56336D1*
X58772D1*
X58767Y56335D1*
X58763Y56334D1*
X58758D1*
X58754Y56333D1*
X58748D1*
X58743D1*
X58738Y56332D1*
X58732D1*
X58727D1*
X58721D1*
X58715D1*
X58710D1*
X58704D1*
X58698D1*
X58693D1*
X58687D1*
X58682Y56333D1*
X58676D1*
X58671D1*
X58666Y56334D1*
X58662D1*
X58657Y56335D1*
X58653Y56336D1*
X58649D1*
X58646Y56337D1*
X58643Y56338D1*
X58640Y56339D1*
X58637D1*
X58635Y56340D1*
X58633Y56341D1*
X58632Y56342D1*
X58631Y56343D1*
X58630Y56344D1*
Y56345D1*
X58768Y40597D2*
G02X58768Y40597I13J0D01*
G01*
X56813D2*
D14*
X58782D1*
X58768D2*
D18*
G02X58768Y40597I13J0D01*
G01*
X56800D2*
G02X56800Y40597I13J0D01*
G01*
X56813Y54376D2*
D14*
Y40597D1*
X56800D2*
D18*
G02X56800Y40597I13J0D01*
G01*
Y54376D2*
G02X56800Y54376I13J0D01*
G01*
X52876D2*
D14*
X56813D1*
X56800D2*
D18*
G02X56800Y54376I13J0D01*
G01*
X52863D2*
G02X52863Y54376I13J0D01*
G01*
X52876Y58313D2*
D14*
Y54376D1*
X52863D2*
D18*
G02X52863Y54376I13J0D01*
G01*
Y58313D2*
G02X52863Y58313I13J0D01*
G01*
X39096D2*
D14*
X52876D1*
X52863D2*
D18*
G02X52863Y58313I13J0D01*
G01*
X39083D2*
G02X39083Y58313I13J0D01*
G01*
X39096Y56345D2*
D14*
Y58313D1*
X39083D2*
D18*
G02X39083Y58313I13J0D01*
G01*
Y56345D2*
G02X39083Y56345I13J0D01*
G01*
X50908D2*
D14*
X39096D1*
X39083D2*
D18*
G02X39083Y56345I13J0D01*
G01*
X50894D2*
G02X50894Y56345I13J0D01*
G01*
X50908Y52408D2*
D14*
Y56345D1*
X50894D2*
D18*
G02X50894Y56345I13J0D01*
G01*
Y52408D2*
G02X50894Y52408I13J0D01*
G01*
X54845D2*
D14*
X50908D1*
X50894D2*
D18*
G02X50894Y52408I13J0D01*
G01*
X54831D2*
G02X54831Y52408I13J0D01*
G01*
X54845Y40597D2*
D14*
Y52408D1*
X54831D2*
D18*
G02X54831Y52408I13J0D01*
G01*
Y40597D2*
G02X54831Y40597I13J0D01*
G01*
X52876D2*
D14*
X54845D1*
X54831D2*
D18*
G02X54831Y40597I13J0D01*
G01*
X52863D2*
G02X52863Y40597I13J0D01*
G01*
X52876Y50439D2*
D14*
Y40597D1*
X52863D2*
D18*
G02X52863Y40597I13J0D01*
G01*
Y50439D2*
G02X52863Y50439I13J0D01*
G01*
X48939D2*
D14*
X52876D1*
X52863D2*
D18*
G02X52863Y50439I13J0D01*
G01*
X48926D2*
G02X48926Y50439I13J0D01*
G01*
X48939Y54376D2*
D14*
Y50439D1*
X48926D2*
D18*
G02X48926Y50439I13J0D01*
G01*
Y54376D2*
G02X48926Y54376I13J0D01*
G01*
X39096D2*
D14*
X48939D1*
X48926D2*
D18*
G02X48926Y54376I13J0D01*
G01*
X39083D2*
G02X39083Y54376I13J0D01*
G01*
X39096Y52408D2*
D14*
Y54376D1*
X39083D2*
D18*
G02X39083Y54376I13J0D01*
G01*
Y52408D2*
G02X39083Y52408I13J0D01*
G01*
X46971D2*
D14*
X39096D1*
X39083D2*
D18*
G02X39083Y52408I13J0D01*
G01*
X46957D2*
G02X46957Y52408I13J0D01*
G01*
X46971Y48471D2*
D14*
Y52408D1*
X46957D2*
D18*
G02X46957Y52408I13J0D01*
G01*
Y48471D2*
G02X46957Y48471I13J0D01*
G01*
X50908D2*
D14*
X46971D1*
X46957D2*
D18*
G02X46957Y48471I13J0D01*
G01*
X50894D2*
G02X50894Y48471I13J0D01*
G01*
X50908Y40597D2*
D14*
Y48471D1*
X50894D2*
D18*
G02X50894Y48471I13J0D01*
G01*
Y40597D2*
G02X50894Y40597I13J0D01*
G01*
X48939D2*
D14*
X50908D1*
X50894D2*
D18*
G02X50894Y40597I13J0D01*
G01*
X48926D2*
G02X48926Y40597I13J0D01*
G01*
X48939Y46502D2*
D14*
Y40597D1*
X48926D2*
D18*
G02X48926Y40597I13J0D01*
G01*
Y46502D2*
G02X48926Y46502I13J0D01*
G01*
X45002D2*
D14*
X48939D1*
X48926D2*
D18*
G02X48926Y46502I13J0D01*
G01*
X44989D2*
G02X44989Y46502I13J0D01*
G01*
X45002Y50439D2*
D14*
Y46502D1*
X44989D2*
D18*
G02X44989Y46502I13J0D01*
G01*
Y50439D2*
G02X44989Y50439I13J0D01*
G01*
X39096D2*
D14*
X45002D1*
X44989D2*
D18*
G02X44989Y50439I13J0D01*
G01*
X39083D2*
G02X39083Y50439I13J0D01*
G01*
X39096Y48471D2*
D14*
Y50439D1*
X39083D2*
D18*
G02X39083Y50439I13J0D01*
G01*
Y48471D2*
G02X39083Y48471I13J0D01*
G01*
X43034D2*
D14*
X39096D1*
X39083D2*
D18*
G02X39083Y48471I13J0D01*
G01*
X43020D2*
G02X43020Y48471I13J0D01*
G01*
X43034Y44534D2*
D14*
Y48471D1*
X43020D2*
D18*
G02X43020Y48471I13J0D01*
G01*
Y44534D2*
G02X43020Y44534I13J0D01*
G01*
X46971D2*
D14*
X43034D1*
X43020D2*
D18*
G02X43020Y44534I13J0D01*
G01*
X46957D2*
G02X46957Y44534I13J0D01*
G01*
X46971Y40597D2*
D14*
Y44534D1*
X46957D2*
D18*
G02X46957Y44534I13J0D01*
G01*
Y40597D2*
G02X46957Y40597I13J0D01*
G01*
X45002D2*
D14*
X46971D1*
X46957D2*
D18*
G02X46957Y40597I13J0D01*
G01*
X44989D2*
G02X44989Y40597I13J0D01*
G01*
X45002Y42565D2*
D14*
Y40597D1*
X44989D2*
D18*
G02X44989Y40597I13J0D01*
G01*
Y42565D2*
G02X44989Y42565I13J0D01*
G01*
X41065D2*
D14*
X45002D1*
X44989D2*
D18*
G02X44989Y42565I13J0D01*
G01*
X41052D2*
G02X41052Y42565I13J0D01*
G01*
X41065Y46502D2*
D14*
Y42565D1*
X41052D2*
D18*
G02X41052Y42565I13J0D01*
G01*
Y46502D2*
G02X41052Y46502I13J0D01*
G01*
X39096D2*
D14*
X41065D1*
X41052D2*
D18*
G02X41052Y46502I13J0D01*
G01*
X39083D2*
G02X39083Y46502I13J0D01*
G01*
X39096Y40597D2*
D14*
Y46502D1*
X39083D2*
D18*
G02X39083Y46502I13J0D01*
G01*
Y40597D2*
G02X39083Y40597I13J0D01*
G01*
X43034D2*
D14*
X39096D1*
X39083D2*
D18*
G02X39083Y40597I13J0D01*
G01*
X43020D2*
G02X43020Y40597I13J0D01*
G01*
X43034Y38628D2*
D14*
Y40597D1*
X43020D2*
D18*
G02X43020Y40597I13J0D01*
G01*
Y38628D2*
G02X43020Y38628I13J0D01*
G01*
X61256Y38753D2*
D14*
X43034Y38628D1*
X43020D2*
D18*
G02X43020Y38628I13J0D01*
G01*
X11098Y25974D2*
D14*
Y37785D1*
X36626Y37972D2*
D34*
X37731D1*
Y38447D1*
X37678Y38605D1*
X37625Y38657D1*
X37521Y38709D1*
X37363D1*
X37257Y38657D1*
X37205Y38605D1*
X37152Y38447D1*
X37099Y38605D1*
X37047Y38657D1*
X36942Y38709D1*
X36836D1*
X36732Y38657D1*
X36678Y38605D1*
X36626Y38447D1*
Y37972D1*
X37152D2*
Y38447D1*
X37731Y39890D2*
X36626D1*
X37731Y39470D1*
X36626Y39049D1*
X37731D1*
X36784Y40967D2*
X36678Y40862D1*
X36626Y40704D1*
Y40494D1*
X36678Y40336D1*
X36784Y40230D1*
X36889D1*
X36994Y40283D1*
X37047Y40336D1*
X37099Y40440D1*
X37205Y40756D1*
X37257Y40862D1*
X37311Y40914D1*
X37415Y40967D1*
X37573D1*
X37678Y40862D1*
X37731Y40704D1*
Y40494D1*
X37678Y40336D1*
X37573Y40230D1*
X36889Y42096D2*
X36784Y42043D1*
X36678Y41937D1*
X36626Y41833D1*
Y41623D1*
X36678Y41517D1*
X36784Y41412D1*
X36889Y41359D1*
X37047Y41306D1*
X37311D1*
X37467Y41359D1*
X37573Y41412D1*
X37678Y41517D1*
X37731Y41623D1*
Y41833D1*
X37678Y41937D1*
X37573Y42043D1*
X37467Y42096D1*
X36626Y43119D2*
Y42435D1*
X37731D1*
Y43119D1*
X37152Y42435D2*
Y42856D1*
M02*
