G04 DipTrace 2.4.0.2*
%INTop24.gbr*%
%MOIN*%
%ADD13C,0.1378*%
%ADD14C,0.1575*%
%ADD15C,0.025*%
%ADD16C,0.0787*%
%ADD17C,0.1969*%
%ADD18R,0.0787X0.0787*%
%ADD19R,0.0591X0.0591*%
%ADD20C,0.0591*%
%ADD33C,0.017*%
%FSLAX44Y44*%
G04*
G70*
G90*
G75*
G01*
%LNTop*%
%LPD*%
X19314Y15126D2*
D13*
X19501D1*
X21376Y13250D1*
X27002D1*
X19751Y62568D2*
D14*
X21876Y64693D1*
X24064D1*
X23939Y64818D1*
X53130Y60318D2*
D13*
X55255D1*
X59443Y56130D1*
Y53255D1*
X59693D1*
X51942Y16938D2*
X55630D1*
X59443Y20751D1*
Y24814D1*
X46066Y13000D2*
X48067D1*
X50004Y14938D1*
X11125Y52880D2*
D14*
Y54005D1*
X13125Y56005D1*
X13250D1*
X11375Y26377D2*
Y24564D1*
X13125Y22814D1*
X45879Y64631D2*
X47379D1*
X49754Y62256D1*
X11063Y37691D2*
D13*
X8875D1*
Y33190D1*
X8688Y33003D1*
X11063Y41316D2*
X10625Y40878D1*
X8625D1*
Y43629D1*
X6937Y41941D1*
Y35128D1*
X8875Y33190D1*
X51663Y70758D2*
D15*
X89168D1*
X14003Y70509D2*
X89168D1*
X4276Y70260D2*
X89164D1*
X4276Y70012D2*
X89164D1*
X4280Y69763D2*
X89160D1*
X4280Y69514D2*
X89160D1*
X4280Y69266D2*
X89156D1*
X4284Y69017D2*
X89156D1*
X4284Y68768D2*
X89152D1*
X4284Y68520D2*
X89152D1*
X4288Y68271D2*
X89148D1*
X4288Y68022D2*
X89148D1*
X4288Y67774D2*
X89144D1*
X4292Y67525D2*
X21269D1*
X27151D2*
X45976D1*
X47452D2*
X89144D1*
X4292Y67276D2*
X20555D1*
X48569D2*
X89141D1*
X4296Y67028D2*
X20144D1*
X49019D2*
X89141D1*
X4296Y66779D2*
X19851D1*
X49339D2*
X89137D1*
X4296Y66530D2*
X19601D1*
X49593D2*
X89137D1*
X4300Y66281D2*
X19351D1*
X49843D2*
X89133D1*
X4300Y66033D2*
X19101D1*
X50089D2*
X89133D1*
X4300Y65784D2*
X18855D1*
X50339D2*
X89129D1*
X4304Y65535D2*
X18605D1*
X50589D2*
X89129D1*
X4304Y65287D2*
X18355D1*
X50835D2*
X89129D1*
X4304Y65038D2*
X18109D1*
X51085D2*
X89125D1*
X4308Y64789D2*
X17859D1*
X51335D2*
X89125D1*
X4308Y64541D2*
X17613D1*
X51581D2*
X89121D1*
X4308Y64292D2*
X17406D1*
X51831D2*
X89121D1*
X4312Y64043D2*
X17238D1*
X52050D2*
X89117D1*
X4312Y63795D2*
X17109D1*
X52226D2*
X89117D1*
X4316Y63546D2*
X17004D1*
X52366D2*
X89113D1*
X4316Y63297D2*
X16930D1*
X52476D2*
X89113D1*
X4316Y63049D2*
X16875D1*
X55862D2*
X89109D1*
X4319Y62800D2*
X16844D1*
X56558D2*
X89109D1*
X4319Y62551D2*
X15476D1*
X56956D2*
X89105D1*
X4319Y62302D2*
X14930D1*
X57245D2*
X89105D1*
X4323Y62054D2*
X14562D1*
X57491D2*
X89101D1*
X4323Y61805D2*
X14285D1*
X57741D2*
X89101D1*
X4323Y61556D2*
X14062D1*
X57991D2*
X89098D1*
X4327Y61308D2*
X13883D1*
X58237D2*
X89098D1*
X4327Y61059D2*
X13738D1*
X58487D2*
X89094D1*
X4331Y60810D2*
X13621D1*
X58737D2*
X89094D1*
X4331Y60562D2*
X13531D1*
X58984D2*
X89090D1*
X4331Y60313D2*
X13465D1*
X59234D2*
X89090D1*
X4335Y60064D2*
X13418D1*
X59484D2*
X89086D1*
X4335Y59816D2*
X13394D1*
X59730D2*
X89086D1*
X4335Y59567D2*
X13391D1*
X59980D2*
X89086D1*
X4339Y59318D2*
X13402D1*
X60230D2*
X89082D1*
X4339Y59070D2*
X12891D1*
X60476D2*
X89082D1*
X4339Y58821D2*
X12137D1*
X60726D2*
X89078D1*
X4343Y58572D2*
X11730D1*
X60976D2*
X89078D1*
X4343Y58323D2*
X11375D1*
X61222D2*
X89074D1*
X4343Y58075D2*
X11082D1*
X61472D2*
X89074D1*
X4347Y57826D2*
X10832D1*
X61687D2*
X89070D1*
X4347Y57577D2*
X10586D1*
X61855D2*
X89070D1*
X4351Y57329D2*
X10336D1*
X61991D2*
X89066D1*
X4351Y57080D2*
X10086D1*
X62093D2*
X89066D1*
X4351Y56831D2*
X9840D1*
X62171D2*
X89062D1*
X4355Y56583D2*
X9590D1*
X62222D2*
X89062D1*
X4355Y56334D2*
X9340D1*
X62253D2*
X89059D1*
X4355Y56085D2*
X9094D1*
X62261D2*
X89059D1*
X4359Y55837D2*
X8863D1*
X62261D2*
X89055D1*
X4359Y55588D2*
X8680D1*
X62261D2*
X89055D1*
X4359Y55339D2*
X8535D1*
X62261D2*
X89051D1*
X4362Y55091D2*
X8422D1*
X62261D2*
X89051D1*
X4362Y54842D2*
X8332D1*
X62261D2*
X89047D1*
X4362Y54593D2*
X6476D1*
X62261D2*
X89047D1*
X4366Y54344D2*
X6476D1*
X62288D2*
X89043D1*
X4366Y54096D2*
X6476D1*
X62382D2*
X89043D1*
X4370Y53847D2*
X6476D1*
X62448D2*
X89039D1*
X4370Y53598D2*
X6476D1*
X62487D2*
X89039D1*
X4370Y53350D2*
X6476D1*
X62507D2*
X89039D1*
X4374Y53101D2*
X6476D1*
X62507D2*
X89035D1*
X4374Y52852D2*
X6476D1*
X62480D2*
X89035D1*
X4374Y52604D2*
X6476D1*
X62433D2*
X89031D1*
X4378Y52355D2*
X6476D1*
X62362D2*
X89031D1*
X4378Y52106D2*
X6476D1*
X62265D2*
X89027D1*
X4378Y51858D2*
X6476D1*
X62202D2*
X89027D1*
X4382Y51609D2*
X6476D1*
X62202D2*
X89023D1*
X4382Y51360D2*
X6476D1*
X62202D2*
X89023D1*
X4382Y51112D2*
X6476D1*
X62202D2*
X89019D1*
X4386Y50863D2*
X6476D1*
X62202D2*
X89019D1*
X4386Y50614D2*
X6476D1*
X62206D2*
X89016D1*
X4390Y50365D2*
X6476D1*
X62206D2*
X89016D1*
X4390Y50117D2*
X6476D1*
X62206D2*
X89012D1*
X4390Y49868D2*
X6476D1*
X62206D2*
X89012D1*
X4394Y49619D2*
X6476D1*
X62206D2*
X64582D1*
X65554D2*
X89008D1*
X4394Y49371D2*
X6476D1*
X62206D2*
X63750D1*
X66386D2*
X89008D1*
X4394Y49122D2*
X6476D1*
X62206D2*
X63312D1*
X66827D2*
X89004D1*
X4398Y48873D2*
X6476D1*
X62206D2*
X62992D1*
X67148D2*
X89004D1*
X4398Y48625D2*
X6476D1*
X62210D2*
X62742D1*
X67394D2*
X89000D1*
X4398Y48376D2*
X6476D1*
X62210D2*
X62543D1*
X67597D2*
X89000D1*
X4401Y48127D2*
X6476D1*
X62210D2*
X62379D1*
X67757D2*
X88996D1*
X4401Y47879D2*
X6476D1*
X67890D2*
X88996D1*
X4401Y47630D2*
X6476D1*
X67991D2*
X88996D1*
X4405Y47381D2*
X6476D1*
X68073D2*
X88992D1*
X4405Y47133D2*
X6476D1*
X68128D2*
X88992D1*
X4409Y46884D2*
X6476D1*
X68163D2*
X88988D1*
X4409Y46635D2*
X6476D1*
X68179D2*
X88988D1*
X4409Y46386D2*
X6476D1*
X68175D2*
X88984D1*
X4413Y46138D2*
X6476D1*
X68151D2*
X88984D1*
X4413Y45889D2*
X6476D1*
X68105D2*
X88980D1*
X4413Y45640D2*
X6476D1*
X68038D2*
X88980D1*
X4417Y45392D2*
X6414D1*
X67948D2*
X88976D1*
X4417Y45143D2*
X6164D1*
X62214D2*
X62306D1*
X67835D2*
X88976D1*
X4417Y44894D2*
X5918D1*
X62214D2*
X62449D1*
X67691D2*
X88973D1*
X4421Y44646D2*
X5668D1*
X62218D2*
X62625D1*
X67511D2*
X88973D1*
X4421Y44397D2*
X5418D1*
X62218D2*
X62848D1*
X67292D2*
X88969D1*
X4421Y44148D2*
X5172D1*
X62218D2*
X63125D1*
X67015D2*
X88969D1*
X4425Y43900D2*
X4922D1*
X62218D2*
X63488D1*
X66648D2*
X88965D1*
X4425Y43651D2*
X4703D1*
X62218D2*
X64027D1*
X66109D2*
X88965D1*
X4429Y43402D2*
X4534D1*
X62218D2*
X88961D1*
X62218Y43154D2*
X88961D1*
X62222Y42905D2*
X88957D1*
X62222Y42656D2*
X88957D1*
X62222Y42407D2*
X88953D1*
X62222Y42159D2*
X88953D1*
X62222Y41910D2*
X88949D1*
X62222Y41661D2*
X88949D1*
X88382Y41413D2*
X88949D1*
X88753Y33952D2*
X88891D1*
X88214Y33703D2*
X88891D1*
X4484Y33455D2*
X4676D1*
X62343D2*
X63793D1*
X66593D2*
X88887D1*
X4484Y33206D2*
X4887D1*
X62343D2*
X63379D1*
X67007D2*
X88887D1*
X4487Y32957D2*
X5133D1*
X62343D2*
X63074D1*
X67316D2*
X88883D1*
X4487Y32709D2*
X5383D1*
X62343D2*
X62832D1*
X67554D2*
X88883D1*
X4487Y32460D2*
X5633D1*
X62343D2*
X62641D1*
X67749D2*
X88879D1*
X4491Y32211D2*
X5879D1*
X62343D2*
X62480D1*
X67905D2*
X88879D1*
X4491Y31963D2*
X6070D1*
X68030D2*
X88875D1*
X4491Y31714D2*
X6184D1*
X68132D2*
X88875D1*
X4495Y31465D2*
X6332D1*
X68206D2*
X88871D1*
X4495Y31217D2*
X6351D1*
X68261D2*
X88871D1*
X4495Y30968D2*
X6351D1*
X68292D2*
X88867D1*
X4499Y30719D2*
X6351D1*
X68308D2*
X88867D1*
X4499Y30470D2*
X6351D1*
X68300D2*
X88863D1*
X4499Y30222D2*
X6351D1*
X68269D2*
X88863D1*
X4503Y29973D2*
X6351D1*
X68222D2*
X88859D1*
X4503Y29724D2*
X6351D1*
X68151D2*
X88859D1*
X4507Y29476D2*
X6351D1*
X68058D2*
X88859D1*
X4507Y29227D2*
X6351D1*
X62335D2*
X62448D1*
X67937D2*
X88855D1*
X4507Y28978D2*
X6351D1*
X62335D2*
X62598D1*
X67788D2*
X88855D1*
X4511Y28730D2*
X6351D1*
X62335D2*
X62781D1*
X67605D2*
X88851D1*
X4511Y28481D2*
X6351D1*
X62335D2*
X63012D1*
X67374D2*
X88851D1*
X4511Y28232D2*
X6351D1*
X62335D2*
X63301D1*
X67089D2*
X88848D1*
X4515Y27984D2*
X6351D1*
X62331D2*
X63684D1*
X66706D2*
X88848D1*
X4515Y27735D2*
X6351D1*
X62331D2*
X64273D1*
X66112D2*
X88844D1*
X4515Y27486D2*
X6351D1*
X62331D2*
X88844D1*
X4519Y27238D2*
X6351D1*
X62331D2*
X88840D1*
X4519Y26989D2*
X6351D1*
X62331D2*
X88840D1*
X4523Y26740D2*
X6351D1*
X62331D2*
X88836D1*
X4523Y26491D2*
X6351D1*
X62331D2*
X88836D1*
X4523Y26243D2*
X6351D1*
X62331D2*
X88832D1*
X4526Y25994D2*
X6351D1*
X62327D2*
X88832D1*
X4526Y25745D2*
X6351D1*
X62327D2*
X88828D1*
X4526Y25497D2*
X6351D1*
X62327D2*
X88828D1*
X4530Y25248D2*
X6351D1*
X62327D2*
X88824D1*
X4530Y24999D2*
X6351D1*
X62327D2*
X88824D1*
X4530Y24751D2*
X6351D1*
X62327D2*
X88820D1*
X4534Y24502D2*
X6351D1*
X62327D2*
X88820D1*
X4534Y24253D2*
X6351D1*
X62327D2*
X88816D1*
X4534Y24005D2*
X6351D1*
X62323D2*
X88816D1*
X4538Y23756D2*
X6351D1*
X62323D2*
X88816D1*
X4538Y23507D2*
X6351D1*
X62323D2*
X88812D1*
X4542Y23259D2*
X6351D1*
X62323D2*
X88812D1*
X4542Y23010D2*
X6351D1*
X62323D2*
X88809D1*
X4542Y22761D2*
X6351D1*
X62323D2*
X88809D1*
X4546Y22512D2*
X9312D1*
X62308D2*
X88805D1*
X4546Y22264D2*
X9562D1*
X62269D2*
X88805D1*
X4546Y22015D2*
X9812D1*
X62261D2*
X88801D1*
X4550Y21766D2*
X10059D1*
X62261D2*
X88801D1*
X4550Y21518D2*
X10309D1*
X62261D2*
X88797D1*
X4550Y21269D2*
X10559D1*
X62261D2*
X88797D1*
X4554Y21020D2*
X10805D1*
X62261D2*
X88793D1*
X4554Y20772D2*
X11055D1*
X62261D2*
X88793D1*
X4554Y20523D2*
X11336D1*
X62249D2*
X88789D1*
X4558Y20274D2*
X11719D1*
X62218D2*
X88789D1*
X4558Y20026D2*
X12340D1*
X62163D2*
X88785D1*
X4562Y19777D2*
X12789D1*
X62085D2*
X88785D1*
X4562Y19528D2*
X12910D1*
X61980D2*
X88781D1*
X4562Y19280D2*
X13062D1*
X61839D2*
X88781D1*
X4566Y19031D2*
X13254D1*
X61667D2*
X88777D1*
X4566Y18782D2*
X13496D1*
X61448D2*
X88777D1*
X4566Y18533D2*
X13523D1*
X61198D2*
X88773D1*
X4569Y18285D2*
X13476D1*
X60952D2*
X88773D1*
X4569Y18036D2*
X13453D1*
X60702D2*
X88769D1*
X4569Y17787D2*
X13453D1*
X60452D2*
X88769D1*
X4573Y17539D2*
X13469D1*
X60206D2*
X88769D1*
X4573Y17290D2*
X13508D1*
X59956D2*
X88766D1*
X4573Y17041D2*
X13566D1*
X59706D2*
X88766D1*
X4577Y16793D2*
X13648D1*
X59460D2*
X88762D1*
X4577Y16544D2*
X13754D1*
X59210D2*
X88762D1*
X4581Y16295D2*
X13887D1*
X58960D2*
X88758D1*
X4581Y16047D2*
X14051D1*
X58714D2*
X88758D1*
X4581Y15798D2*
X14254D1*
X58464D2*
X88754D1*
X4585Y15549D2*
X14508D1*
X58214D2*
X88754D1*
X4585Y15301D2*
X14836D1*
X57968D2*
X88750D1*
X4585Y15052D2*
X15289D1*
X57718D2*
X88750D1*
X4589Y14803D2*
X16238D1*
X57456D2*
X88746D1*
X4589Y14554D2*
X16555D1*
X57109D2*
X88746D1*
X4589Y14306D2*
X16621D1*
X56585D2*
X88742D1*
X4593Y14057D2*
X16707D1*
X52691D2*
X88742D1*
X4593Y13808D2*
X16828D1*
X52581D2*
X88738D1*
X4593Y13560D2*
X16976D1*
X52456D2*
X88738D1*
X4597Y13311D2*
X17168D1*
X52300D2*
X88734D1*
X4597Y13062D2*
X17406D1*
X52097D2*
X88734D1*
X4601Y12814D2*
X17723D1*
X51855D2*
X88730D1*
X4601Y12565D2*
X18090D1*
X51605D2*
X88730D1*
X4601Y12316D2*
X18336D1*
X51355D2*
X88726D1*
X4605Y12068D2*
X18586D1*
X51109D2*
X88726D1*
X4605Y11819D2*
X18836D1*
X50859D2*
X88726D1*
X4605Y11570D2*
X19082D1*
X50609D2*
X88723D1*
X4609Y11322D2*
X19332D1*
X50362D2*
X88723D1*
X4609Y11073D2*
X19605D1*
X50112D2*
X88719D1*
X4609Y10824D2*
X19969D1*
X49843D2*
X88719D1*
X4612Y10575D2*
X20551D1*
X49476D2*
X88715D1*
X4612Y10327D2*
X22184D1*
X48898D2*
X88715D1*
X4612Y10078D2*
X88711D1*
X4616Y9829D2*
X88711D1*
X4616Y9581D2*
X88707D1*
X4620Y9332D2*
X88707D1*
X4620Y9083D2*
X88703D1*
X4620Y8835D2*
X88703D1*
X4624Y8586D2*
X88699D1*
X4624Y8337D2*
X88699D1*
X4624Y8089D2*
X88695D1*
X4628Y7840D2*
X88695D1*
X4628Y7591D2*
X88691D1*
X4628Y7343D2*
X88691D1*
X4632Y7094D2*
X88687D1*
X4632Y6845D2*
X88687D1*
X4632Y6596D2*
X88684D1*
X4636Y6348D2*
X88684D1*
X4636Y6099D2*
X88680D1*
X4640Y5850D2*
X88680D1*
X4640Y5602D2*
X88680D1*
X4640Y5353D2*
X88676D1*
X4644Y5104D2*
X88676D1*
X4644Y4856D2*
X88672D1*
X4644Y4607D2*
X69031D1*
X4648Y4358D2*
X45066D1*
X4648Y4110D2*
X21105D1*
X13458Y59108D2*
X13420Y59430D1*
X13413Y59680D1*
X13428Y59929D1*
X13462Y60177D1*
X13516Y60421D1*
X13590Y60660D1*
X13683Y60892D1*
X13794Y61116D1*
X13923Y61330D1*
X14069Y61533D1*
X14230Y61723D1*
X14407Y61900D1*
X14598Y62062D1*
X14800Y62208D1*
X15014Y62337D1*
X15238Y62448D1*
X15470Y62541D1*
X15709Y62615D1*
X15953Y62669D1*
X16201Y62703D1*
X16450Y62718D1*
X16700Y62712D1*
X16859Y62697D1*
X16893Y63005D1*
X16942Y63250D1*
X17011Y63490D1*
X17101Y63723D1*
X17211Y63948D1*
X17339Y64162D1*
X17486Y64365D1*
X17707Y64612D1*
X19922Y66824D1*
X20114Y66985D1*
X20318Y67128D1*
X20534Y67254D1*
X20761Y67360D1*
X20995Y67447D1*
X21236Y67513D1*
X21482Y67557D1*
X21731Y67581D1*
X22626Y67584D1*
X22857D1*
X23173Y67611D1*
X23378Y67654D1*
X23611Y67691D1*
X23846Y67708D1*
X24081Y67706D1*
X24316Y67685D1*
X24548Y67644D1*
X24801Y67577D1*
X38125Y67274D1*
X38362Y67325D1*
X38611Y67355D1*
X39383Y67376D1*
X47129Y67548D1*
X47378Y67531D1*
X47629Y67511D1*
X47877Y67479D1*
X48121Y67425D1*
X48359Y67351D1*
X48590Y67256D1*
X48813Y67141D1*
X49024Y67008D1*
X49223Y66857D1*
X49423Y66675D1*
X51885Y64210D1*
X52046Y64018D1*
X52189Y63814D1*
X52315Y63598D1*
X52421Y63371D1*
X52515Y63111D1*
X53380Y63110D1*
X55380Y63108D1*
X55629Y63085D1*
X55875Y63041D1*
X56116Y62974D1*
X56350Y62887D1*
X56575Y62779D1*
X56790Y62651D1*
X56992Y62504D1*
X57229Y62293D1*
X61504Y58014D1*
X61664Y57822D1*
X61806Y57617D1*
X61930Y57400D1*
X62033Y57172D1*
X62116Y56937D1*
X62178Y56694D1*
X62217Y56448D1*
X62235Y56130D1*
Y54407D1*
X62346Y54126D1*
X62413Y53886D1*
X62459Y53640D1*
X62482Y53391D1*
X62483Y53141D1*
X62462Y52892D1*
X62418Y52646D1*
X62353Y52405D1*
X62266Y52170D1*
X62178Y51983D1*
X62185Y47671D1*
X62303Y47941D1*
X62424Y48160D1*
X62561Y48369D1*
X62715Y48566D1*
X62885Y48749D1*
X63068Y48919D1*
X63265Y49073D1*
X63474Y49211D1*
X63693Y49331D1*
X63921Y49433D1*
X64157Y49517D1*
X64398Y49581D1*
X64644Y49625D1*
X64893Y49649D1*
X65143Y49653D1*
X65392Y49637D1*
X65639Y49601D1*
X65883Y49545D1*
X66121Y49469D1*
X66352Y49375D1*
X66575Y49262D1*
X66788Y49131D1*
X66990Y48983D1*
X67179Y48820D1*
X67355Y48642D1*
X67515Y48450D1*
X67659Y48246D1*
X67787Y48031D1*
X67896Y47806D1*
X67987Y47574D1*
X68059Y47334D1*
X68111Y47090D1*
X68144Y46842D1*
X68156Y46566D1*
X68146Y46317D1*
X68116Y46069D1*
X68066Y45824D1*
X67996Y45584D1*
X67907Y45350D1*
X67799Y45125D1*
X67673Y44909D1*
X67531Y44703D1*
X67372Y44510D1*
X67198Y44331D1*
X67010Y44166D1*
X66810Y44017D1*
X66598Y43884D1*
X66376Y43769D1*
X66146Y43673D1*
X65908Y43595D1*
X65665Y43537D1*
X65418Y43499D1*
X65169Y43480D1*
X64919Y43482D1*
X64670Y43505D1*
X64423Y43547D1*
X64181Y43609D1*
X63945Y43690D1*
X63716Y43791D1*
X63496Y43909D1*
X63286Y44045D1*
X63088Y44197D1*
X62903Y44365D1*
X62732Y44548D1*
X62576Y44743D1*
X62437Y44951D1*
X62315Y45169D1*
X62190Y45451D1*
X62198Y41546D1*
X87504Y41579D1*
X87753Y41558D1*
X87999Y41515D1*
X88241Y41451D1*
X88476Y41367D1*
X88703Y41263D1*
X88970Y41107D1*
X89195Y71003D1*
X87947Y70997D1*
X4250Y70445D1*
X4404Y43113D1*
X4538Y43370D1*
X4675Y43579D1*
X4831Y43774D1*
X5140Y44092D1*
X6501Y45454D1*
X6503Y49689D1*
Y54689D1*
X8319D1*
X8366Y54866D1*
X8451Y55102D1*
X8555Y55329D1*
X8679Y55546D1*
X8821Y55751D1*
X8981Y55944D1*
X9611Y56579D1*
X11172Y58136D1*
X11363Y58296D1*
X11551Y58430D1*
X11662Y58502D1*
X11864Y58649D1*
X12079Y58778D1*
X12304Y58887D1*
X12537Y58975D1*
X12778Y59042D1*
X13024Y59087D1*
X13273Y59110D1*
X13456Y59112D1*
X16542Y14788D2*
X16289Y14800D1*
X16041Y14833D1*
X15797Y14885D1*
X15557Y14957D1*
X15324Y15048D1*
X15100Y15157D1*
X14885Y15284D1*
X14681Y15429D1*
X14489Y15589D1*
X14311Y15764D1*
X14147Y15953D1*
X14000Y16155D1*
X13869Y16368D1*
X13756Y16591D1*
X13661Y16822D1*
X13585Y17060D1*
X13529Y17304D1*
X13493Y17551D1*
X13476Y17801D1*
X13481Y18050D1*
X13505Y18299D1*
X13549Y18545D1*
X13593Y18715D1*
X13358Y18943D1*
X13196Y19133D1*
X13050Y19336D1*
X12923Y19552D1*
X12816Y19777D1*
X12750Y19948D1*
X12443Y20005D1*
X12203Y20074D1*
X11970Y20164D1*
X11746Y20274D1*
X11531Y20402D1*
X11329Y20549D1*
X11081Y20770D1*
X9200Y22660D1*
X9122Y22692D1*
X6378D1*
X6382Y27686D1*
X6378Y27942D1*
X6382Y28686D1*
X6378Y28942D1*
Y31430D1*
X6206Y31723D1*
X6101Y31950D1*
X6061Y32055D1*
X4876Y33244D1*
X4716Y33435D1*
X4574Y33641D1*
X4486Y33791D1*
X4456Y33820D1*
X4624Y3942D1*
X5623Y3949D1*
X88697Y4813D1*
X88917Y34074D1*
X88657Y33911D1*
X88433Y33799D1*
X88201Y33708D1*
X87961Y33636D1*
X87717Y33586D1*
X87468Y33557D1*
X87136Y33549D1*
X66414Y33526D1*
X66700Y33385D1*
X66913Y33254D1*
X67115Y33107D1*
X67304Y32943D1*
X67480Y32765D1*
X67640Y32573D1*
X67784Y32369D1*
X67912Y32154D1*
X68021Y31930D1*
X68112Y31697D1*
X68184Y31458D1*
X68237Y31213D1*
X68269Y30965D1*
X68281Y30690D1*
X68271Y30440D1*
X68241Y30192D1*
X68191Y29947D1*
X68121Y29707D1*
X68032Y29474D1*
X67924Y29248D1*
X67798Y29032D1*
X67656Y28827D1*
X67497Y28634D1*
X67323Y28454D1*
X67135Y28289D1*
X66935Y28140D1*
X66723Y28008D1*
X66501Y27893D1*
X66271Y27796D1*
X66033Y27718D1*
X65790Y27660D1*
X65543Y27622D1*
X65294Y27604D1*
X65044Y27606D1*
X64795Y27628D1*
X64548Y27670D1*
X64306Y27732D1*
X64070Y27814D1*
X63841Y27914D1*
X63621Y28032D1*
X63411Y28168D1*
X63213Y28321D1*
X63028Y28489D1*
X62857Y28671D1*
X62702Y28866D1*
X62562Y29074D1*
X62440Y29292D1*
X62312Y29581D1*
X62298Y22809D1*
X62286Y22559D1*
X62252Y22311D1*
X62235Y22189D1*
X62233Y20626D1*
X62210Y20377D1*
X62166Y20131D1*
X62099Y19891D1*
X62012Y19656D1*
X61904Y19431D1*
X61776Y19216D1*
X61629Y19014D1*
X61417Y18777D1*
X57514Y14877D1*
X57322Y14717D1*
X57117Y14575D1*
X56900Y14451D1*
X56672Y14348D1*
X56436Y14265D1*
X56194Y14204D1*
X55947Y14164D1*
X55630Y14146D1*
X52704D1*
X52555Y13802D1*
X52443Y13578D1*
X52312Y13366D1*
X52162Y13166D1*
X51979Y12964D1*
X49951Y10939D1*
X49759Y10779D1*
X49554Y10637D1*
X49336Y10513D1*
X49109Y10410D1*
X48873Y10327D1*
X48631Y10266D1*
X48384Y10226D1*
X48067Y10208D1*
X29068Y10210D1*
X22882Y10213D1*
X22633Y10235D1*
X22387Y10279D1*
X22146Y10346D1*
X21859Y10458D1*
X21251Y10461D1*
X21002Y10483D1*
X20757Y10528D1*
X20516Y10594D1*
X20282Y10682D1*
X20056Y10790D1*
X19842Y10918D1*
X19639Y11064D1*
X19402Y11276D1*
X18034Y12643D1*
X17779Y12793D1*
X17576Y12939D1*
X17388Y13103D1*
X17215Y13284D1*
X17058Y13479D1*
X16920Y13687D1*
X16801Y13907D1*
X16702Y14136D1*
X16624Y14374D1*
X16568Y14617D1*
X16542Y14791D1*
X62314Y31803D2*
X62428Y32064D1*
X62549Y32283D1*
X62686Y32492D1*
X62840Y32689D1*
X63010Y32873D1*
X63193Y33042D1*
X63390Y33196D1*
X63599Y33334D1*
X63818Y33454D1*
X63970Y33524D1*
X62320Y33522D1*
X62315Y31807D1*
D17*
X16501Y59630D3*
X16563Y17876D3*
X65193Y30690D3*
X65068Y46566D3*
D18*
X37253Y55005D3*
Y56005D3*
Y57005D3*
Y58005D3*
Y59005D3*
Y60005D3*
Y61005D3*
Y62005D3*
X9000Y46191D3*
Y47191D3*
Y48191D3*
Y49191D3*
Y50191D3*
Y51191D3*
Y52191D3*
X8875Y25189D3*
Y26189D3*
Y27189D3*
Y28189D3*
Y29189D3*
Y30189D3*
Y31189D3*
D19*
Y25189D3*
D20*
Y26189D3*
Y27189D3*
Y28189D3*
Y29189D3*
Y30189D3*
Y31189D3*
D18*
X33315Y38566D3*
X34315D3*
X40191Y38691D3*
X41191D3*
X37253Y34940D3*
Y35940D3*
Y14751D2*
D14*
X50004Y15188D1*
X19501Y15126D2*
D13*
X34909Y15099D1*
X23007Y13002D2*
X34818D1*
X34446D2*
X46257D1*
X19751Y62568D2*
X35159Y62542D1*
X38878Y62318D2*
X49129Y62256D1*
X38821Y64570D2*
X47067Y64756D1*
X23257Y64820D2*
X39753Y64443D1*
X13493Y40597D2*
D16*
G02X13493Y40597I13J0D01*
G01*
X15474D2*
D13*
X13506D1*
X13493D2*
D16*
G02X13493Y40597I13J0D01*
G01*
X15461D2*
G02X15461Y40597I13J0D01*
G01*
X15474Y56345D2*
D13*
Y40597D1*
X15461D2*
D16*
G02X15461Y40597I13J0D01*
G01*
Y56345D2*
G02X15461Y56345I13J0D01*
G01*
X19411D2*
D13*
X15474D1*
X15461D2*
D16*
G02X15461Y56345I13J0D01*
G01*
X19398D2*
G02X19398Y56345I13J0D01*
G01*
X19411Y60282D2*
D13*
Y56345D1*
X19398D2*
D16*
G02X19398Y56345I13J0D01*
G01*
Y60282D2*
G02X19398Y60282I13J0D01*
G01*
X33191D2*
D13*
X19411D1*
X19398D2*
D16*
G02X19398Y60282I13J0D01*
G01*
X33178D2*
G02X33178Y60282I13J0D01*
G01*
X33191Y58313D2*
D14*
Y60282D1*
X33178D2*
D16*
G02X33178Y60282I13J0D01*
G01*
Y58313D2*
G02X33178Y58313I13J0D01*
G01*
X21380D2*
D13*
X33191D1*
X33178D2*
D16*
G02X33178Y58313I13J0D01*
G01*
X21367D2*
G02X21367Y58313I13J0D01*
G01*
X21380Y54376D2*
D13*
Y58313D1*
X21367D2*
D16*
G02X21367Y58313I13J0D01*
G01*
Y54376D2*
G02X21367Y54376I13J0D01*
G01*
X17443D2*
D14*
X21380D1*
X21367D2*
D16*
G02X21367Y54376I13J0D01*
G01*
X17430D2*
G02X17430Y54376I13J0D01*
G01*
X17443Y40597D2*
D13*
Y54376D1*
X17430D2*
D16*
G02X17430Y54376I13J0D01*
G01*
Y40597D2*
G02X17430Y40597I13J0D01*
G01*
X19411D2*
D13*
X17443D1*
X17430D2*
D16*
G02X17430Y40597I13J0D01*
G01*
X19398D2*
G02X19398Y40597I13J0D01*
G01*
X19411Y52408D2*
D13*
Y40597D1*
X19398D2*
D16*
G02X19398Y40597I13J0D01*
G01*
Y52408D2*
G02X19398Y52408I13J0D01*
G01*
X23348D2*
D14*
X19411D1*
X19398D2*
D16*
G02X19398Y52408I13J0D01*
G01*
X23335D2*
G02X23335Y52408I13J0D01*
G01*
X23348Y56345D2*
D14*
Y52408D1*
X23335D2*
D16*
G02X23335Y52408I13J0D01*
G01*
Y56345D2*
G02X23335Y56345I13J0D01*
G01*
X33191D2*
D13*
X23348D1*
X23335D2*
D16*
G02X23335Y56345I13J0D01*
G01*
X33178D2*
G02X33178Y56345I13J0D01*
G01*
X33191Y54376D2*
D13*
Y56345D1*
X33178D2*
D16*
G02X33178Y56345I13J0D01*
G01*
Y54376D2*
G02X33178Y54376I13J0D01*
G01*
X25317D2*
D13*
X33191D1*
X33178D2*
D16*
G02X33178Y54376I13J0D01*
G01*
X25304D2*
G02X25304Y54376I13J0D01*
G01*
X25317Y50439D2*
D14*
Y54376D1*
X25304D2*
D16*
G02X25304Y54376I13J0D01*
G01*
Y50439D2*
G02X25304Y50439I13J0D01*
G01*
X21380D2*
D14*
X25317D1*
X25304D2*
D16*
G02X25304Y50439I13J0D01*
G01*
X21367D2*
G02X21367Y50439I13J0D01*
G01*
X21380Y40597D2*
D13*
Y50439D1*
X21367D2*
D16*
G02X21367Y50439I13J0D01*
G01*
Y40597D2*
G02X21367Y40597I13J0D01*
G01*
X23348D2*
D13*
X21380D1*
X21367D2*
D16*
G02X21367Y40597I13J0D01*
G01*
X23335D2*
G02X23335Y40597I13J0D01*
G01*
X23348Y48471D2*
D13*
Y40597D1*
X23335D2*
D16*
G02X23335Y40597I13J0D01*
G01*
Y48471D2*
G02X23335Y48471I13J0D01*
G01*
X27285D2*
D14*
X23348D1*
X23335D2*
D16*
G02X23335Y48471I13J0D01*
G01*
X27272D2*
G02X27272Y48471I13J0D01*
G01*
X27285Y52408D2*
D13*
Y48471D1*
X27272D2*
D16*
G02X27272Y48471I13J0D01*
G01*
Y52408D2*
G02X27272Y52408I13J0D01*
G01*
X33191D2*
D13*
X27285D1*
X27272D2*
D16*
G02X27272Y52408I13J0D01*
G01*
X33178D2*
G02X33178Y52408I13J0D01*
G01*
X33191Y50439D2*
D13*
Y52408D1*
X33178D2*
D16*
G02X33178Y52408I13J0D01*
G01*
Y50439D2*
G02X33178Y50439I13J0D01*
G01*
X29254D2*
D13*
X33191D1*
X33178D2*
D16*
G02X33178Y50439I13J0D01*
G01*
X29241D2*
G02X29241Y50439I13J0D01*
G01*
X29254Y46502D2*
D14*
Y50439D1*
X29241D2*
D16*
G02X29241Y50439I13J0D01*
G01*
Y46502D2*
G02X29241Y46502I13J0D01*
G01*
X25317D2*
D14*
X29254D1*
X29241D2*
D16*
G02X29241Y46502I13J0D01*
G01*
X25304D2*
G02X25304Y46502I13J0D01*
G01*
X25317Y40597D2*
D13*
Y46502D1*
X25304D2*
D16*
G02X25304Y46502I13J0D01*
G01*
Y40597D2*
G02X25304Y40597I13J0D01*
G01*
X27285D2*
D14*
X25317D1*
X25304D2*
D16*
G02X25304Y40597I13J0D01*
G01*
X27272D2*
G02X27272Y40597I13J0D01*
G01*
X27285Y44534D2*
D13*
Y40597D1*
X27272D2*
D16*
G02X27272Y40597I13J0D01*
G01*
Y44534D2*
G02X27272Y44534I13J0D01*
G01*
X31222D2*
D14*
X27285D1*
X27272D2*
D16*
G02X27272Y44534I13J0D01*
G01*
X31209D2*
G02X31209Y44534I13J0D01*
G01*
X31222Y48471D2*
D13*
Y44534D1*
X31209D2*
D16*
G02X31209Y44534I13J0D01*
G01*
Y48471D2*
G02X31209Y48471I13J0D01*
G01*
X33191D2*
D14*
X31222D1*
X31209D2*
D16*
G02X31209Y48471I13J0D01*
G01*
X33178D2*
G02X33178Y48471I13J0D01*
G01*
X33191Y42565D2*
D13*
Y48471D1*
X33178D2*
D16*
G02X33178Y48471I13J0D01*
G01*
Y42565D2*
G02X33178Y42565I13J0D01*
G01*
X29254D2*
D13*
X33191D1*
X33178D2*
D16*
G02X33178Y42565I13J0D01*
G01*
X29241D2*
G02X29241Y42565I13J0D01*
G01*
X29254Y40597D2*
D13*
Y42565D1*
X29241D2*
D16*
G02X29241Y42565I13J0D01*
G01*
Y40597D2*
G02X29241Y40597I13J0D01*
G01*
X35159D2*
D13*
X29254D1*
X29241D2*
D16*
G02X29241Y40597I13J0D01*
G01*
X35146D2*
G02X35146Y40597I13J0D01*
G01*
X35159D2*
D13*
X35378Y62318D1*
X35146Y40597D2*
D16*
G02X35146Y40597I13J0D01*
G01*
X5619Y36660D2*
G02X5619Y36660I13J0D01*
G01*
G02X5619Y36660I13J0D01*
G01*
X35146Y15006D2*
G02X35146Y15006I13J0D01*
G01*
X35159Y16975D2*
D13*
Y15006D1*
X35146D2*
D16*
G02X35146Y15006I13J0D01*
G01*
Y16975D2*
G02X35146Y16975I13J0D01*
G01*
X19411D2*
D13*
X35159D1*
X35146D2*
D16*
G02X35146Y16975I13J0D01*
G01*
X19398D2*
G02X19398Y16975I13J0D01*
G01*
X19411Y20912D2*
D14*
Y16975D1*
X19398D2*
D16*
G02X19398Y16975I13J0D01*
G01*
Y20912D2*
G02X19398Y20912I13J0D01*
G01*
X15474D2*
D14*
X19411D1*
X19398D2*
D16*
G02X19398Y20912I13J0D01*
G01*
X15461D2*
G02X15461Y20912I13J0D01*
G01*
X15474Y36660D2*
D13*
Y20912D1*
X15461D2*
D16*
G02X15461Y20912I13J0D01*
G01*
Y36660D2*
G02X15461Y36660I13J0D01*
G01*
X17443D2*
D13*
X15474D1*
X15461D2*
D16*
G02X15461Y36660I13J0D01*
G01*
X17430D2*
G02X17430Y36660I13J0D01*
G01*
X17443Y22880D2*
D13*
Y36660D1*
X17430D2*
D16*
G02X17430Y36660I13J0D01*
G01*
Y22880D2*
G02X17430Y22880I13J0D01*
G01*
X21380D2*
D14*
X17443D1*
X17430D2*
D16*
G02X17430Y22880I13J0D01*
G01*
X21367D2*
G02X21367Y22880I13J0D01*
G01*
X21380Y18943D2*
D14*
Y22880D1*
X21367D2*
D16*
G02X21367Y22880I13J0D01*
G01*
Y18943D2*
G02X21367Y18943I13J0D01*
G01*
X35159D2*
D13*
X21380D1*
X21367D2*
D16*
G02X21367Y18943I13J0D01*
G01*
X35146D2*
G02X35146Y18943I13J0D01*
G01*
X35159Y20912D2*
D13*
Y18943D1*
X35146D2*
D16*
G02X35146Y18943I13J0D01*
G01*
Y20912D2*
G02X35146Y20912I13J0D01*
G01*
X23348D2*
D13*
X35159D1*
X35146D2*
D16*
G02X35146Y20912I13J0D01*
G01*
X23335D2*
G02X23335Y20912I13J0D01*
G01*
X23348Y24849D2*
D14*
Y20912D1*
X23335D2*
D16*
G02X23335Y20912I13J0D01*
G01*
Y24849D2*
G02X23335Y24849I13J0D01*
G01*
X19411D2*
D14*
X23348D1*
X23335D2*
D16*
G02X23335Y24849I13J0D01*
G01*
X19398D2*
G02X19398Y24849I13J0D01*
G01*
X19411Y36660D2*
D14*
Y24849D1*
X19398D2*
D16*
G02X19398Y24849I13J0D01*
G01*
Y36660D2*
G02X19398Y36660I13J0D01*
G01*
X21314Y36503D2*
D14*
X19411Y36660D1*
X19398D2*
D16*
G02X19398Y36660I13J0D01*
G01*
X21367D2*
G02X21367Y36660I13J0D01*
G01*
X21380Y26817D2*
D13*
Y36660D1*
X21367D2*
D16*
G02X21367Y36660I13J0D01*
G01*
Y26817D2*
G02X21367Y26817I13J0D01*
G01*
X25317D2*
D14*
X21380D1*
X21367D2*
D16*
G02X21367Y26817I13J0D01*
G01*
X25304D2*
G02X25304Y26817I13J0D01*
G01*
X25317Y22880D2*
D14*
Y26817D1*
X25304D2*
D16*
G02X25304Y26817I13J0D01*
G01*
Y22880D2*
G02X25304Y22880I13J0D01*
G01*
X35159D2*
D13*
X25317D1*
X25304D2*
D16*
G02X25304Y22880I13J0D01*
G01*
X35146D2*
G02X35146Y22880I13J0D01*
G01*
X35159Y24849D2*
D13*
Y22880D1*
X35146D2*
D16*
G02X35146Y22880I13J0D01*
G01*
Y24849D2*
G02X35146Y24849I13J0D01*
G01*
X27285D2*
D13*
X35159D1*
X35146D2*
D16*
G02X35146Y24849I13J0D01*
G01*
X27272D2*
G02X27272Y24849I13J0D01*
G01*
X27285Y28786D2*
D14*
Y24849D1*
X27272D2*
D16*
G02X27272Y24849I13J0D01*
G01*
Y28786D2*
G02X27272Y28786I13J0D01*
G01*
X23348D2*
D14*
X27285D1*
X27272D2*
D16*
G02X27272Y28786I13J0D01*
G01*
X23335D2*
G02X23335Y28786I13J0D01*
G01*
X23348Y36660D2*
D13*
Y28786D1*
X23335D2*
D16*
G02X23335Y28786I13J0D01*
G01*
Y36660D2*
G02X23335Y36660I13J0D01*
G01*
X25317D2*
D14*
X23348D1*
X23335D2*
D16*
G02X23335Y36660I13J0D01*
G01*
X25304D2*
G02X25304Y36660I13J0D01*
G01*
X25317Y30754D2*
D13*
Y36660D1*
X25304D2*
D16*
G02X25304Y36660I13J0D01*
G01*
Y30754D2*
G02X25304Y30754I13J0D01*
G01*
X29254D2*
D14*
X25317D1*
X25304D2*
D16*
G02X25304Y30754I13J0D01*
G01*
X29241D2*
G02X29241Y30754I13J0D01*
G01*
X29254Y26817D2*
D14*
Y30754D1*
X29241D2*
D16*
G02X29241Y30754I13J0D01*
G01*
Y26817D2*
G02X29241Y26817I13J0D01*
G01*
X35159D2*
D13*
X29254D1*
X29241D2*
D16*
G02X29241Y26817I13J0D01*
G01*
X35146D2*
G02X35146Y26817I13J0D01*
G01*
X35159Y28786D2*
D14*
Y26817D1*
X35146D2*
D16*
G02X35146Y26817I13J0D01*
G01*
Y28786D2*
G02X35146Y28786I13J0D01*
G01*
X31222D2*
D13*
X35159D1*
X35146D2*
D16*
G02X35146Y28786I13J0D01*
G01*
X31209D2*
G02X31209Y28786I13J0D01*
G01*
X31222Y32723D2*
D14*
Y28786D1*
X31209D2*
D16*
G02X31209Y28786I13J0D01*
G01*
Y32723D2*
G02X31209Y32723I13J0D01*
G01*
X27285D2*
D14*
X31222D1*
X31209D2*
D16*
G02X31209Y32723I13J0D01*
G01*
X27272D2*
G02X27272Y32723I13J0D01*
G01*
X27285Y36660D2*
D14*
Y32723D1*
X27272D2*
D16*
G02X27272Y32723I13J0D01*
G01*
Y36660D2*
G02X27272Y36660I13J0D01*
G01*
X29254D2*
D13*
X27285D1*
X27272D2*
D16*
G02X27272Y36660I13J0D01*
G01*
X29241D2*
G02X29241Y36660I13J0D01*
G01*
X29254Y34691D2*
D14*
Y36660D1*
X29241D2*
D16*
G02X29241Y36660I13J0D01*
G01*
Y34691D2*
G02X29241Y34691I13J0D01*
G01*
X33191D2*
D13*
X29254D1*
X29241D2*
D16*
G02X29241Y34691I13J0D01*
G01*
X33178D2*
G02X33178Y34691I13J0D01*
G01*
X33191Y30754D2*
D13*
Y34691D1*
X33178D2*
D16*
G02X33178Y34691I13J0D01*
G01*
Y30754D2*
G02X33178Y30754I13J0D01*
G01*
X35159D2*
D14*
X33191D1*
X33178D2*
D16*
G02X33178Y30754I13J0D01*
G01*
X35146D2*
G02X35146Y30754I13J0D01*
G01*
X35159Y36660D2*
D13*
Y30754D1*
X35146D2*
D16*
G02X35146Y30754I13J0D01*
G01*
Y36660D2*
G02X35146Y36660I13J0D01*
G01*
X31222D2*
D14*
X35159D1*
X35146D2*
D16*
G02X35146Y36660I13J0D01*
G01*
X31209D2*
G02X31209Y36660I13J0D01*
G01*
X31222Y38628D2*
D14*
Y36660D1*
X31209D2*
D16*
G02X31209Y36660I13J0D01*
G01*
Y38628D2*
G02X31209Y38628I13J0D01*
G01*
X13125Y38378D2*
D13*
X31222Y38628D1*
X31209D2*
D16*
G02X31209Y38628I13J0D01*
G01*
X60763Y36660D2*
Y36661D1*
X60764D1*
X60766Y36662D1*
X60768Y36663D1*
X60770Y36664D1*
X60774Y36665D1*
X60777Y36666D1*
X60782Y36667D1*
X60786D1*
X60792Y36668D1*
X60797Y36669D1*
X60803D1*
X60810Y36670D1*
X60817Y36671D1*
X60824D1*
X60831D1*
X60839Y36672D1*
X60847D1*
X60855D1*
X60863Y36673D1*
X60872D1*
X60880D1*
X60889D1*
X60897D1*
X60905D1*
X60914Y36672D1*
X60922D1*
X60930D1*
X60937Y36671D1*
X60945D1*
X60952D1*
X60959Y36670D1*
X60965Y36669D1*
X60971D1*
X60977Y36668D1*
X60982Y36667D1*
X60987D1*
X60991Y36666D1*
X60995Y36665D1*
X60998Y36664D1*
X61001Y36663D1*
X61003Y36662D1*
X61004Y36661D1*
X61005D1*
Y36660D1*
Y36659D1*
X61004Y36658D1*
X61003Y36657D1*
X61001Y36656D1*
X60998Y36655D1*
X60995Y36654D1*
X60991Y36653D1*
X60987D1*
X60982Y36652D1*
X60977Y36651D1*
X60971D1*
X60965Y36650D1*
X60959Y36649D1*
X60952D1*
X60945Y36648D1*
X60937D1*
X60930Y36647D1*
X60922D1*
X60914D1*
X60905D1*
X60897D1*
X60889D1*
X60880D1*
X60872D1*
X60863D1*
X60855D1*
X60847D1*
X60839D1*
X60831Y36648D1*
X60824D1*
X60817Y36649D1*
X60810D1*
X60803Y36650D1*
X60797Y36651D1*
X60792D1*
X60786Y36652D1*
X60782Y36653D1*
X60777D1*
X60774Y36654D1*
X60770Y36655D1*
X60768Y36656D1*
X60766Y36657D1*
X60764Y36658D1*
X60763Y36659D1*
Y36660D1*
X59532Y36410D2*
D14*
X87258Y36440D1*
X60737Y36660D2*
D16*
G02X60737Y36660I13J0D01*
G01*
X58768D2*
G02X58768Y36660I13J0D01*
G01*
X59505Y22814D2*
D13*
X59532Y36285D1*
X58768Y36660D2*
D16*
G02X58768Y36660I13J0D01*
G01*
X13378Y40912D2*
D13*
X13404Y56320D1*
X13191Y22910D2*
X13217Y38318D1*
X11223Y41100D2*
Y52911D1*
X39096Y16975D2*
X51567Y16938D1*
X39083Y16975D2*
D16*
G02X39083Y16975I13J0D01*
G01*
X39096Y18943D2*
D14*
Y16975D1*
X39083D2*
D16*
G02X39083Y16975I13J0D01*
G01*
Y18943D2*
G02X39083Y18943I13J0D01*
G01*
X52876D2*
D13*
X39096D1*
X39083D2*
D16*
G02X39083Y18943I13J0D01*
G01*
X52863D2*
G02X52863Y18943I13J0D01*
G01*
X52876Y22880D2*
D13*
Y18943D1*
X52863D2*
D16*
G02X52863Y18943I13J0D01*
G01*
Y22880D2*
G02X52863Y22880I13J0D01*
G01*
X56813D2*
D14*
X52876D1*
X52863D2*
D16*
G02X52863Y22880I13J0D01*
G01*
X56800D2*
G02X56800Y22880I13J0D01*
G01*
X56813Y36660D2*
D13*
Y22880D1*
X56800D2*
D16*
G02X56800Y22880I13J0D01*
G01*
Y36660D2*
G02X56800Y36660I13J0D01*
G01*
X54845D2*
D13*
X56813D1*
X56800D2*
D16*
G02X56800Y36660I13J0D01*
G01*
X54831D2*
G02X54831Y36660I13J0D01*
G01*
X54845Y24849D2*
D13*
Y36660D1*
X54831D2*
D16*
G02X54831Y36660I13J0D01*
G01*
Y24849D2*
G02X54831Y24849I13J0D01*
G01*
X50908D2*
D14*
X54845D1*
X54831D2*
D16*
G02X54831Y24849I13J0D01*
G01*
X50894D2*
G02X50894Y24849I13J0D01*
G01*
X50908Y20912D2*
D14*
Y24849D1*
X50894D2*
D16*
G02X50894Y24849I13J0D01*
G01*
Y20912D2*
G02X50894Y20912I13J0D01*
G01*
X39096D2*
D14*
X50908D1*
X50894D2*
D16*
G02X50894Y20912I13J0D01*
G01*
X39083D2*
G02X39083Y20912I13J0D01*
G01*
X39096Y22880D2*
D13*
Y20912D1*
X39083D2*
D16*
G02X39083Y20912I13J0D01*
G01*
Y22880D2*
G02X39083Y22880I13J0D01*
G01*
X48939D2*
D13*
X39096D1*
X39083D2*
D16*
G02X39083Y22880I13J0D01*
G01*
X48926D2*
G02X48926Y22880I13J0D01*
G01*
X48939Y26817D2*
D14*
Y22880D1*
X48926D2*
D16*
G02X48926Y22880I13J0D01*
G01*
Y26817D2*
G02X48926Y26817I13J0D01*
G01*
X52876D2*
D14*
X48939D1*
X48926D2*
D16*
G02X48926Y26817I13J0D01*
G01*
X52863D2*
G02X52863Y26817I13J0D01*
G01*
X52876Y36660D2*
D13*
Y26817D1*
X52863D2*
D16*
G02X52863Y26817I13J0D01*
G01*
Y36660D2*
G02X52863Y36660I13J0D01*
G01*
X50908D2*
D13*
X52876D1*
X52863D2*
D16*
G02X52863Y36660I13J0D01*
G01*
X50894D2*
G02X50894Y36660I13J0D01*
G01*
X50908Y28786D2*
D13*
Y36660D1*
X50894D2*
D16*
G02X50894Y36660I13J0D01*
G01*
Y28786D2*
G02X50894Y28786I13J0D01*
G01*
X46971D2*
D14*
X50908D1*
X50894D2*
D16*
G02X50894Y28786I13J0D01*
G01*
X46957D2*
G02X46957Y28786I13J0D01*
G01*
X46971Y24849D2*
D14*
Y28786D1*
X46957D2*
D16*
G02X46957Y28786I13J0D01*
G01*
Y24849D2*
G02X46957Y24849I13J0D01*
G01*
X39096D2*
D13*
X46971D1*
X46957D2*
D16*
G02X46957Y24849I13J0D01*
G01*
X39083D2*
G02X39083Y24849I13J0D01*
G01*
X39096Y26817D2*
D13*
Y24849D1*
X39083D2*
D16*
G02X39083Y24849I13J0D01*
G01*
Y26817D2*
G02X39083Y26817I13J0D01*
G01*
X45002D2*
D13*
X39096D1*
X39083D2*
D16*
G02X39083Y26817I13J0D01*
G01*
X44989D2*
G02X44989Y26817I13J0D01*
G01*
X45002Y30754D2*
D14*
Y26817D1*
X44989D2*
D16*
G02X44989Y26817I13J0D01*
G01*
Y30754D2*
G02X44989Y30754I13J0D01*
G01*
X48939D2*
D14*
X45002D1*
X44989D2*
D16*
G02X44989Y30754I13J0D01*
G01*
X48926D2*
G02X48926Y30754I13J0D01*
G01*
X48939Y36660D2*
D13*
Y30754D1*
X48926D2*
D16*
G02X48926Y30754I13J0D01*
G01*
Y36660D2*
G02X48926Y36660I13J0D01*
G01*
X46971D2*
D14*
X48939D1*
X48926D2*
D16*
G02X48926Y36660I13J0D01*
G01*
X46957D2*
G02X46957Y36660I13J0D01*
G01*
X46971Y32723D2*
D13*
Y36660D1*
X46957D2*
D16*
G02X46957Y36660I13J0D01*
G01*
Y32723D2*
G02X46957Y32723I13J0D01*
G01*
X43034D2*
D14*
X46971D1*
X46957D2*
D16*
G02X46957Y32723I13J0D01*
G01*
X43020D2*
G02X43020Y32723I13J0D01*
G01*
X43034Y28786D2*
D14*
Y32723D1*
X43020D2*
D16*
G02X43020Y32723I13J0D01*
G01*
Y28786D2*
G02X43020Y28786I13J0D01*
G01*
X39096D2*
D14*
X43034D1*
X43020D2*
D16*
G02X43020Y28786I13J0D01*
G01*
X39083D2*
G02X39083Y28786I13J0D01*
G01*
X39096Y30754D2*
D14*
Y28786D1*
X39083D2*
D16*
G02X39083Y28786I13J0D01*
G01*
Y30754D2*
G02X39083Y30754I13J0D01*
G01*
X41065D2*
D13*
X39096D1*
X39083D2*
D16*
G02X39083Y30754I13J0D01*
G01*
X41052D2*
G02X41052Y30754I13J0D01*
G01*
X41065Y34691D2*
D13*
Y30754D1*
X41052D2*
D16*
G02X41052Y30754I13J0D01*
G01*
Y34691D2*
G02X41052Y34691I13J0D01*
G01*
X45002D2*
D14*
X41065D1*
X41052D2*
D16*
G02X41052Y34691I13J0D01*
G01*
X44989D2*
G02X44989Y34691I13J0D01*
G01*
X45002Y36660D2*
D13*
Y34691D1*
X44989D2*
D16*
G02X44989Y34691I13J0D01*
G01*
Y36660D2*
G02X44989Y36660I13J0D01*
G01*
X39096D2*
D13*
X45002D1*
X44989D2*
D16*
G02X44989Y36660I13J0D01*
G01*
X39083D2*
G02X39083Y36660I13J0D01*
G01*
X39096D2*
D13*
Y32723D1*
X39083D2*
D16*
G02X39083Y32723I13J0D01*
G01*
Y36660D2*
G02X39083Y36660I13J0D01*
G01*
X39096Y32723D2*
D14*
X37128D1*
X37115D2*
D16*
G02X37115Y32723I13J0D01*
G01*
X39083D2*
G02X39083Y32723I13J0D01*
G01*
X37128D2*
D14*
X37065Y14813D1*
X37115Y32723D2*
D16*
G02X37115Y32723I13J0D01*
G01*
X39083Y62250D2*
G02X39083Y62250I13J0D01*
G01*
X39096Y60282D2*
D13*
Y62250D1*
X39083D2*
D16*
G02X39083Y62250I13J0D01*
G01*
Y60282D2*
G02X39083Y60282I13J0D01*
G01*
X52880Y60318D2*
D13*
X39096Y60282D1*
X39083D2*
D16*
G02X39083Y60282I13J0D01*
G01*
X54831D2*
G02X54831Y60282I13J0D01*
G01*
G02X54831Y60282I13J0D01*
G01*
X58943Y56345D2*
Y56346D1*
Y56347D1*
Y56348D1*
Y56349D1*
Y56350D1*
Y56351D1*
Y56352D1*
Y56353D1*
Y56354D1*
Y56355D1*
Y56356D1*
Y56357D1*
Y56358D1*
Y56357D1*
Y56356D1*
Y56355D1*
Y56354D1*
Y56353D1*
Y56352D1*
Y56351D1*
Y56350D1*
Y56349D1*
Y56348D1*
Y56347D1*
Y56346D1*
Y56345D1*
Y56344D1*
Y56343D1*
Y56342D1*
Y56341D1*
Y56340D1*
Y56339D1*
Y56338D1*
Y56337D1*
Y56336D1*
Y56335D1*
Y56334D1*
Y56333D1*
Y56332D1*
Y56333D1*
Y56334D1*
Y56335D1*
Y56336D1*
Y56337D1*
Y56338D1*
Y56339D1*
Y56340D1*
Y56341D1*
Y56342D1*
Y56343D1*
Y56344D1*
Y56345D1*
X59407Y40847D2*
D13*
X59380Y54005D1*
X58630Y56345D2*
D16*
Y56346D1*
X58631Y56347D1*
X58632D1*
X58633Y56348D1*
X58635Y56349D1*
X58637Y56350D1*
X58640Y56351D1*
X58643Y56352D1*
X58646D1*
X58649Y56353D1*
X58653Y56354D1*
X58657D1*
X58662Y56355D1*
X58666Y56356D1*
X58671D1*
X58676D1*
X58682Y56357D1*
X58687D1*
X58693D1*
X58698Y56358D1*
X58704D1*
X58710D1*
X58715D1*
X58721D1*
X58727D1*
X58732Y56357D1*
X58738D1*
X58743D1*
X58748Y56356D1*
X58754D1*
X58758D1*
X58763Y56355D1*
X58767Y56354D1*
X58772D1*
X58775Y56353D1*
X58779Y56352D1*
X58782D1*
X58785Y56351D1*
X58788Y56350D1*
X58790Y56349D1*
X58791Y56348D1*
X58793Y56347D1*
X58794D1*
Y56346D1*
X58795Y56345D1*
X58794Y56344D1*
Y56343D1*
X58793Y56342D1*
X58791Y56341D1*
X58790Y56340D1*
X58788Y56339D1*
X58785D1*
X58782Y56338D1*
X58779Y56337D1*
X58775Y56336D1*
X58772D1*
X58767Y56335D1*
X58763Y56334D1*
X58758D1*
X58754Y56333D1*
X58748D1*
X58743D1*
X58738Y56332D1*
X58732D1*
X58727D1*
X58721D1*
X58715D1*
X58710D1*
X58704D1*
X58698D1*
X58693D1*
X58687D1*
X58682Y56333D1*
X58676D1*
X58671D1*
X58666Y56334D1*
X58662D1*
X58657Y56335D1*
X58653Y56336D1*
X58649D1*
X58646Y56337D1*
X58643Y56338D1*
X58640Y56339D1*
X58637D1*
X58635Y56340D1*
X58633Y56341D1*
X58632Y56342D1*
X58631Y56343D1*
X58630Y56344D1*
Y56345D1*
X58768Y40597D2*
G02X58768Y40597I13J0D01*
G01*
X56813D2*
D14*
X58782D1*
X58768D2*
D16*
G02X58768Y40597I13J0D01*
G01*
X56800D2*
G02X56800Y40597I13J0D01*
G01*
X56813Y54376D2*
D13*
Y40597D1*
X56800D2*
D16*
G02X56800Y40597I13J0D01*
G01*
Y54376D2*
G02X56800Y54376I13J0D01*
G01*
X52876D2*
D13*
X56813D1*
X56800D2*
D16*
G02X56800Y54376I13J0D01*
G01*
X52863D2*
G02X52863Y54376I13J0D01*
G01*
X52876Y58313D2*
D13*
Y54376D1*
X52863D2*
D16*
G02X52863Y54376I13J0D01*
G01*
Y58313D2*
G02X52863Y58313I13J0D01*
G01*
X39096D2*
D13*
X52876D1*
X52863D2*
D16*
G02X52863Y58313I13J0D01*
G01*
X39083D2*
G02X39083Y58313I13J0D01*
G01*
X39096Y56345D2*
D13*
Y58313D1*
X39083D2*
D16*
G02X39083Y58313I13J0D01*
G01*
Y56345D2*
G02X39083Y56345I13J0D01*
G01*
X50908D2*
D13*
X39096D1*
X39083D2*
D16*
G02X39083Y56345I13J0D01*
G01*
X50894D2*
G02X50894Y56345I13J0D01*
G01*
X50908Y52408D2*
D13*
Y56345D1*
X50894D2*
D16*
G02X50894Y56345I13J0D01*
G01*
Y52408D2*
G02X50894Y52408I13J0D01*
G01*
X54845D2*
D13*
X50908D1*
X50894D2*
D16*
G02X50894Y52408I13J0D01*
G01*
X54831D2*
G02X54831Y52408I13J0D01*
G01*
X54845Y40597D2*
D13*
Y52408D1*
X54831D2*
D16*
G02X54831Y52408I13J0D01*
G01*
Y40597D2*
G02X54831Y40597I13J0D01*
G01*
X52876D2*
D14*
X54845D1*
X54831D2*
D16*
G02X54831Y40597I13J0D01*
G01*
X52863D2*
G02X52863Y40597I13J0D01*
G01*
X52876Y50439D2*
D13*
Y40597D1*
X52863D2*
D16*
G02X52863Y40597I13J0D01*
G01*
Y50439D2*
G02X52863Y50439I13J0D01*
G01*
X49192Y50379D2*
D14*
X53001Y50564D1*
X52863Y50439D2*
D16*
G02X52863Y50439I13J0D01*
G01*
X48926D2*
G02X48926Y50439I13J0D01*
G01*
X48939Y54376D2*
D13*
Y50439D1*
X48926D2*
D16*
G02X48926Y50439I13J0D01*
G01*
Y54376D2*
G02X48926Y54376I13J0D01*
G01*
X39096D2*
D13*
X48939D1*
X48926D2*
D16*
G02X48926Y54376I13J0D01*
G01*
X39083D2*
G02X39083Y54376I13J0D01*
G01*
X39096Y52408D2*
D14*
Y54376D1*
X39083D2*
D16*
G02X39083Y54376I13J0D01*
G01*
Y52408D2*
G02X39083Y52408I13J0D01*
G01*
X46971D2*
D13*
X39096D1*
X39083D2*
D16*
G02X39083Y52408I13J0D01*
G01*
X46957D2*
G02X46957Y52408I13J0D01*
G01*
X46971Y48471D2*
D14*
Y52408D1*
X46957D2*
D16*
G02X46957Y52408I13J0D01*
G01*
Y48471D2*
G02X46957Y48471I13J0D01*
G01*
X50908D2*
D14*
X46971D1*
X46957D2*
D16*
G02X46957Y48471I13J0D01*
G01*
X50894D2*
G02X50894Y48471I13J0D01*
G01*
X50754Y40503D2*
D13*
X50908Y48471D1*
X50894D2*
D16*
G02X50894Y48471I13J0D01*
G01*
Y40597D2*
G02X50894Y40597I13J0D01*
G01*
X48939D2*
D13*
X50908D1*
X50894D2*
D16*
G02X50894Y40597I13J0D01*
G01*
X48926D2*
G02X48926Y40597I13J0D01*
G01*
X48939Y46502D2*
D13*
Y40597D1*
X48926D2*
D16*
G02X48926Y40597I13J0D01*
G01*
Y46502D2*
G02X48926Y46502I13J0D01*
G01*
X45002D2*
D14*
X48939D1*
X48926D2*
D16*
G02X48926Y46502I13J0D01*
G01*
X44989D2*
G02X44989Y46502I13J0D01*
G01*
X45002Y50439D2*
D13*
Y46502D1*
X44989D2*
D16*
G02X44989Y46502I13J0D01*
G01*
Y50439D2*
G02X44989Y50439I13J0D01*
G01*
X39096D2*
D13*
X45002D1*
X44989D2*
D16*
G02X44989Y50439I13J0D01*
G01*
X39083D2*
G02X39083Y50439I13J0D01*
G01*
X39096Y48471D2*
D14*
Y50439D1*
X39083D2*
D16*
G02X39083Y50439I13J0D01*
G01*
Y48471D2*
G02X39083Y48471I13J0D01*
G01*
X43034D2*
D14*
X39096D1*
X39083D2*
D16*
G02X39083Y48471I13J0D01*
G01*
X43020D2*
G02X43020Y48471I13J0D01*
G01*
X43034Y44534D2*
D13*
Y48471D1*
X43020D2*
D16*
G02X43020Y48471I13J0D01*
G01*
Y44534D2*
G02X43020Y44534I13J0D01*
G01*
X46971D2*
D14*
X43034D1*
X43020D2*
D16*
G02X43020Y44534I13J0D01*
G01*
X46957D2*
G02X46957Y44534I13J0D01*
G01*
X46971Y40597D2*
D13*
Y44534D1*
X46957D2*
D16*
G02X46957Y44534I13J0D01*
G01*
Y40597D2*
G02X46957Y40597I13J0D01*
G01*
X45002D2*
D13*
X46971D1*
X46957D2*
D16*
G02X46957Y40597I13J0D01*
G01*
X44989D2*
G02X44989Y40597I13J0D01*
G01*
X45002Y42565D2*
D13*
Y40597D1*
X44989D2*
D16*
G02X44989Y40597I13J0D01*
G01*
Y42565D2*
G02X44989Y42565I13J0D01*
G01*
X41065D2*
D13*
X45002D1*
X44989D2*
D16*
G02X44989Y42565I13J0D01*
G01*
X41052D2*
G02X41052Y42565I13J0D01*
G01*
X41065Y46502D2*
D14*
Y42565D1*
X41052D2*
D16*
G02X41052Y42565I13J0D01*
G01*
Y46502D2*
G02X41052Y46502I13J0D01*
G01*
X39096D2*
D14*
X41065D1*
X41052D2*
D16*
G02X41052Y46502I13J0D01*
G01*
X39083D2*
G02X39083Y46502I13J0D01*
G01*
X39096Y40597D2*
D13*
Y46502D1*
X39083D2*
D16*
G02X39083Y46502I13J0D01*
G01*
Y40597D2*
G02X39083Y40597I13J0D01*
G01*
X43034D2*
D13*
X39096D1*
X39083D2*
D16*
G02X39083Y40597I13J0D01*
G01*
X43020D2*
G02X43020Y40597I13J0D01*
G01*
X43034Y38628D2*
D14*
Y40597D1*
X43020D2*
D16*
G02X43020Y40597I13J0D01*
G01*
Y38628D2*
G02X43020Y38628I13J0D01*
G01*
X87383Y38691D2*
D14*
X43034Y38628D1*
X43020D2*
D16*
G02X43020Y38628I13J0D01*
G01*
X11098Y25974D2*
D13*
Y37785D1*
X36626Y37972D2*
D33*
X37731D1*
Y38447D1*
X37678Y38605D1*
X37625Y38657D1*
X37521Y38709D1*
X37363D1*
X37257Y38657D1*
X37205Y38605D1*
X37152Y38447D1*
X37099Y38605D1*
X37047Y38657D1*
X36942Y38709D1*
X36836D1*
X36732Y38657D1*
X36678Y38605D1*
X36626Y38447D1*
Y37972D1*
X37152D2*
Y38447D1*
X37731Y39890D2*
X36626D1*
X37731Y39470D1*
X36626Y39049D1*
X37731D1*
X36784Y40967D2*
X36678Y40862D1*
X36626Y40704D1*
Y40494D1*
X36678Y40336D1*
X36784Y40230D1*
X36889D1*
X36994Y40283D1*
X37047Y40336D1*
X37099Y40440D1*
X37205Y40756D1*
X37257Y40862D1*
X37311Y40914D1*
X37415Y40967D1*
X37573D1*
X37678Y40862D1*
X37731Y40704D1*
Y40494D1*
X37678Y40336D1*
X37573Y40230D1*
X36889Y42096D2*
X36784Y42043D1*
X36678Y41937D1*
X36626Y41833D1*
Y41623D1*
X36678Y41517D1*
X36784Y41412D1*
X36889Y41359D1*
X37047Y41306D1*
X37311D1*
X37467Y41359D1*
X37573Y41412D1*
X37678Y41517D1*
X37731Y41623D1*
Y41833D1*
X37678Y41937D1*
X37573Y42043D1*
X37467Y42096D1*
X36626Y43119D2*
Y42435D1*
X37731D1*
Y43119D1*
X37152Y42435D2*
Y42856D1*
M02*
